<svg xmlns="http://www.w3.org/2000/svg" xmlns:xlink="http://www.w3.org/1999/xlink" width="1024" zoomAndPan="magnify" viewBox="0 0 768 576" height="768" preserveAspectRatio="xMidYMid meet" version="1.2"><defs><clipPath id="433740155f"><path d="M 136.921875 536 L 649.796875 536 L 649.796875 536.972656 L 136.921875 536.972656 Z M 136.921875 536 "/></clipPath><clipPath id="295845a774"><path d="M 136.921875 433 L 649.796875 433 L 649.796875 435 L 136.921875 435 Z M 136.921875 433 "/></clipPath><clipPath id="c9a221de48"><path d="M 136.921875 331 L 649.796875 331 L 649.796875 333 L 136.921875 333 Z M 136.921875 331 "/></clipPath><clipPath id="2082e632f6"><path d="M 136.921875 228 L 649.796875 228 L 649.796875 230 L 136.921875 230 Z M 136.921875 228 "/></clipPath><clipPath id="d813f38cb5"><path d="M 136.921875 126 L 649.796875 126 L 649.796875 128 L 136.921875 128 Z M 136.921875 126 "/></clipPath><clipPath id="625e73a0e9"><path d="M 136.921875 24.097656 L 649.796875 24.097656 L 649.796875 25 L 136.921875 25 Z M 136.921875 24.097656 "/></clipPath><clipPath id="bb4d1b7482"><path d="M 136.921875 229.246094 L 296.089844 229.246094 L 296.089844 536.972656 L 136.921875 536.972656 Z M 136.921875 229.246094 "/></clipPath><clipPath id="b226485cc9"><path d="M 313.773438 434.398438 L 472.941406 434.398438 L 472.941406 536.972656 L 313.773438 536.972656 Z M 313.773438 434.398438 "/></clipPath><clipPath id="e456f09b06"><path d="M 490.628906 24.097656 L 649.796875 24.097656 L 649.796875 536.972656 L 490.628906 536.972656 Z M 490.628906 24.097656 "/></clipPath></defs><g id="cbca51b25b"><g clip-rule="nonzero" clip-path="url(#433740155f)"><path style="fill:none;stroke-width:1;stroke-linecap:butt;stroke-linejoin:miter;stroke:#000000;stroke-opacity:0.6;stroke-miterlimit:4;" d="M 0.00225346 639.838368 L 639.839352 639.838368 " transform="matrix(0.801571,0,0,0.801571,136.920069,24.096638)"/></g><g clip-rule="nonzero" clip-path="url(#295845a774)"><path style="fill:none;stroke-width:1;stroke-linecap:butt;stroke-linejoin:miter;stroke:#000000;stroke-opacity:0.251;stroke-miterlimit:4;" d="M 0.00225346 511.871923 L 639.839352 511.871923 " transform="matrix(0.801571,0,0,0.801571,136.920069,24.096638)"/></g><g clip-rule="nonzero" clip-path="url(#c9a221de48)"><path style="fill:none;stroke-width:1;stroke-linecap:butt;stroke-linejoin:miter;stroke:#000000;stroke-opacity:0.251;stroke-miterlimit:4;" d="M 0.00225346 383.905478 L 639.839352 383.905478 " transform="matrix(0.801571,0,0,0.801571,136.920069,24.096638)"/></g><g clip-rule="nonzero" clip-path="url(#2082e632f6)"><path style="fill:none;stroke-width:1;stroke-linecap:butt;stroke-linejoin:miter;stroke:#000000;stroke-opacity:0.251;stroke-miterlimit:4;" d="M 0.00225346 255.93416 L 639.839352 255.93416 " transform="matrix(0.801571,0,0,0.801571,136.920069,24.096638)"/></g><g clip-rule="nonzero" clip-path="url(#d813f38cb5)"><path style="fill:none;stroke-width:1;stroke-linecap:butt;stroke-linejoin:miter;stroke:#000000;stroke-opacity:0.251;stroke-miterlimit:4;" d="M 0.00225346 127.967715 L 639.839352 127.967715 " transform="matrix(0.801571,0,0,0.801571,136.920069,24.096638)"/></g><g clip-rule="nonzero" clip-path="url(#625e73a0e9)"><path style="fill:none;stroke-width:1;stroke-linecap:butt;stroke-linejoin:miter;stroke:#000000;stroke-opacity:0.251;stroke-miterlimit:4;" d="M 0.00225346 0.00127007 L 639.839352 0.00127007 " transform="matrix(0.801571,0,0,0.801571,136.920069,24.096638)"/></g><g style="fill:#000000;fill-opacity:1;"><g transform="translate(200.782591, 560.540157)"><path style="stroke:none" d="M 10 0 L 8.375 -4.15625 L 3.140625 -4.15625 L 1.53125 0 L 0 0 L 5.15625 -13.109375 L 6.4375 -13.109375 L 11.5625 0 Z M 7.90625 -5.515625 L 6.375 -9.5625 C 6.1875 -10.070312 5.988281 -10.695312 5.78125 -11.4375 C 5.644531 -10.875 5.457031 -10.25 5.21875 -9.5625 L 3.671875 -5.515625 Z M 7.90625 -5.515625 "/></g></g><g style="fill:#000000;fill-opacity:1;"><g transform="translate(212.346175, 560.540157)"><path style="stroke:none" d="M 3.046875 0 L 1.578125 0 L 1.578125 -13.890625 L 3.046875 -13.890625 Z M 3.046875 0 "/></g></g><g style="fill:#000000;fill-opacity:1;"><g transform="translate(216.96804, 560.540157)"><path style="stroke:none" d="M 4.734375 -1.046875 C 4.992188 -1.046875 5.242188 -1.0625 5.484375 -1.09375 C 5.734375 -1.132812 5.925781 -1.175781 6.0625 -1.21875 L 6.0625 -0.09375 C 5.90625 -0.0078125 5.671875 0.0507812 5.359375 0.09375 C 5.046875 0.144531 4.765625 0.171875 4.515625 0.171875 C 2.617188 0.171875 1.671875 -0.820312 1.671875 -2.8125 L 1.671875 -8.625 L 0.28125 -8.625 L 0.28125 -9.34375 L 1.671875 -9.96875 L 2.296875 -12.046875 L 3.15625 -12.046875 L 3.15625 -9.78125 L 6 -9.78125 L 6 -8.625 L 3.15625 -8.625 L 3.15625 -2.875 C 3.15625 -2.28125 3.296875 -1.828125 3.578125 -1.515625 C 3.859375 -1.203125 4.242188 -1.046875 4.734375 -1.046875 Z M 4.734375 -1.046875 "/></g></g><g style="fill:#000000;fill-opacity:1;"><g transform="translate(223.419027, 560.540157)"><path style="stroke:none" d="M 7.59375 0 L 7.296875 -1.390625 L 7.21875 -1.390625 C 6.726562 -0.773438 6.238281 -0.359375 5.75 -0.140625 C 5.269531 0.0664062 4.671875 0.171875 3.953125 0.171875 C 2.972656 0.171875 2.207031 -0.078125 1.65625 -0.578125 C 1.113281 -1.078125 0.84375 -1.785156 0.84375 -2.703125 C 0.84375 -4.679688 2.421875 -5.71875 5.578125 -5.8125 L 7.234375 -5.859375 L 7.234375 -6.46875 C 7.234375 -7.238281 7.066406 -7.804688 6.734375 -8.171875 C 6.410156 -8.535156 5.882812 -8.71875 5.15625 -8.71875 C 4.34375 -8.71875 3.421875 -8.46875 2.390625 -7.96875 L 1.9375 -9.109375 C 2.414062 -9.367188 2.941406 -9.570312 3.515625 -9.71875 C 4.097656 -9.863281 4.675781 -9.9375 5.25 -9.9375 C 6.414062 -9.9375 7.28125 -9.675781 7.84375 -9.15625 C 8.40625 -8.644531 8.6875 -7.816406 8.6875 -6.671875 L 8.6875 0 Z M 4.234375 -1.046875 C 5.160156 -1.046875 5.882812 -1.296875 6.40625 -1.796875 C 6.9375 -2.304688 7.203125 -3.015625 7.203125 -3.921875 L 7.203125 -4.8125 L 5.71875 -4.75 C 4.539062 -4.707031 3.691406 -4.523438 3.171875 -4.203125 C 2.648438 -3.878906 2.390625 -3.375 2.390625 -2.6875 C 2.390625 -2.15625 2.550781 -1.75 2.875 -1.46875 C 3.195312 -1.1875 3.648438 -1.046875 4.234375 -1.046875 Z M 4.234375 -1.046875 "/></g></g><g style="fill:#000000;fill-opacity:1;"><g transform="translate(366.865728, 560.540157)"><path style="stroke:none" d="M 7.5625 0 L 3.140625 -11.5625 L 3.078125 -11.5625 C 3.160156 -10.644531 3.203125 -9.554688 3.203125 -8.296875 L 3.203125 0 L 1.796875 0 L 1.796875 -13.046875 L 4.078125 -13.046875 L 8.21875 -2.28125 L 8.28125 -2.28125 L 12.453125 -13.046875 L 14.71875 -13.046875 L 14.71875 0 L 13.203125 0 L 13.203125 -8.40625 C 13.203125 -9.375 13.242188 -10.421875 13.328125 -11.546875 L 13.25 -11.546875 L 8.796875 0 Z M 7.5625 0 "/></g></g><g style="fill:#000000;fill-opacity:1;"><g transform="translate(383.363472, 560.540157)"><path style="stroke:none" d="M 5.703125 0.171875 C 4.253906 0.171875 3.113281 -0.265625 2.28125 -1.140625 C 1.445312 -2.023438 1.03125 -3.25 1.03125 -4.8125 C 1.03125 -6.382812 1.414062 -7.632812 2.1875 -8.5625 C 2.96875 -9.5 4.007812 -9.96875 5.3125 -9.96875 C 6.539062 -9.96875 7.507812 -9.5625 8.21875 -8.75 C 8.9375 -7.945312 9.296875 -6.882812 9.296875 -5.5625 L 9.296875 -4.625 L 2.5625 -4.625 C 2.59375 -3.476562 2.882812 -2.601562 3.4375 -2 C 3.988281 -1.40625 4.757812 -1.109375 5.75 -1.109375 C 6.8125 -1.109375 7.851562 -1.332031 8.875 -1.78125 L 8.875 -0.453125 C 8.351562 -0.222656 7.859375 -0.0625 7.390625 0.03125 C 6.921875 0.125 6.359375 0.171875 5.703125 0.171875 Z M 5.296875 -8.71875 C 4.515625 -8.71875 3.890625 -8.460938 3.421875 -7.953125 C 2.953125 -7.441406 2.675781 -6.734375 2.59375 -5.828125 L 7.71875 -5.828125 C 7.71875 -6.765625 7.507812 -7.476562 7.09375 -7.96875 C 6.675781 -8.46875 6.078125 -8.71875 5.296875 -8.71875 Z M 5.296875 -8.71875 "/></g></g><g style="fill:#000000;fill-opacity:1;"><g transform="translate(393.615452, 560.540157)"><path style="stroke:none" d="M 8.234375 -1.3125 L 8.15625 -1.3125 C 7.46875 -0.320312 6.441406 0.171875 5.078125 0.171875 C 3.796875 0.171875 2.800781 -0.265625 2.09375 -1.140625 C 1.382812 -2.015625 1.03125 -3.253906 1.03125 -4.859375 C 1.03125 -6.472656 1.382812 -7.726562 2.09375 -8.625 C 2.8125 -9.519531 3.804688 -9.96875 5.078125 -9.96875 C 6.398438 -9.96875 7.414062 -9.484375 8.125 -8.515625 L 8.25 -8.515625 L 8.1875 -9.21875 L 8.15625 -9.90625 L 8.15625 -13.890625 L 9.625 -13.890625 L 9.625 0 L 8.421875 0 Z M 5.265625 -1.0625 C 6.273438 -1.0625 7.007812 -1.335938 7.46875 -1.890625 C 7.925781 -2.441406 8.15625 -3.328125 8.15625 -4.546875 L 8.15625 -4.859375 C 8.15625 -6.242188 7.921875 -7.234375 7.453125 -7.828125 C 6.992188 -8.421875 6.257812 -8.71875 5.25 -8.71875 C 4.382812 -8.71875 3.71875 -8.378906 3.25 -7.703125 C 2.789062 -7.023438 2.5625 -6.070312 2.5625 -4.84375 C 2.5625 -3.59375 2.789062 -2.648438 3.25 -2.015625 C 3.707031 -1.378906 4.378906 -1.0625 5.265625 -1.0625 Z M 5.265625 -1.0625 "/></g></g><g style="fill:#000000;fill-opacity:1;"><g transform="translate(404.81322, 560.540157)"><path style="stroke:none" d="M 3.046875 0 L 1.578125 0 L 1.578125 -9.78125 L 3.046875 -9.78125 Z M 1.453125 -12.4375 C 1.453125 -12.769531 1.535156 -13.015625 1.703125 -13.171875 C 1.867188 -13.335938 2.078125 -13.421875 2.328125 -13.421875 C 2.554688 -13.421875 2.757812 -13.335938 2.9375 -13.171875 C 3.113281 -13.015625 3.203125 -12.769531 3.203125 -12.4375 C 3.203125 -12.101562 3.113281 -11.851562 2.9375 -11.6875 C 2.757812 -11.519531 2.554688 -11.4375 2.328125 -11.4375 C 2.078125 -11.4375 1.867188 -11.519531 1.703125 -11.6875 C 1.535156 -11.851562 1.453125 -12.101562 1.453125 -12.4375 Z M 1.453125 -12.4375 "/></g></g><g style="fill:#000000;fill-opacity:1;"><g transform="translate(409.435084, 560.540157)"><path style="stroke:none" d="M 7.59375 0 L 7.296875 -1.390625 L 7.21875 -1.390625 C 6.726562 -0.773438 6.238281 -0.359375 5.75 -0.140625 C 5.269531 0.0664062 4.671875 0.171875 3.953125 0.171875 C 2.972656 0.171875 2.207031 -0.078125 1.65625 -0.578125 C 1.113281 -1.078125 0.84375 -1.785156 0.84375 -2.703125 C 0.84375 -4.679688 2.421875 -5.71875 5.578125 -5.8125 L 7.234375 -5.859375 L 7.234375 -6.46875 C 7.234375 -7.238281 7.066406 -7.804688 6.734375 -8.171875 C 6.410156 -8.535156 5.882812 -8.71875 5.15625 -8.71875 C 4.34375 -8.71875 3.421875 -8.46875 2.390625 -7.96875 L 1.9375 -9.109375 C 2.414062 -9.367188 2.941406 -9.570312 3.515625 -9.71875 C 4.097656 -9.863281 4.675781 -9.9375 5.25 -9.9375 C 6.414062 -9.9375 7.28125 -9.675781 7.84375 -9.15625 C 8.40625 -8.644531 8.6875 -7.816406 8.6875 -6.671875 L 8.6875 0 Z M 4.234375 -1.046875 C 5.160156 -1.046875 5.882812 -1.296875 6.40625 -1.796875 C 6.9375 -2.304688 7.203125 -3.015625 7.203125 -3.921875 L 7.203125 -4.8125 L 5.71875 -4.75 C 4.539062 -4.707031 3.691406 -4.523438 3.171875 -4.203125 C 2.648438 -3.878906 2.390625 -3.375 2.390625 -2.6875 C 2.390625 -2.15625 2.550781 -1.75 2.875 -1.46875 C 3.195312 -1.1875 3.648438 -1.046875 4.234375 -1.046875 Z M 4.234375 -1.046875 "/></g></g><g style="fill:#000000;fill-opacity:1;"><g transform="translate(551.685604, 560.540157)"><path style="stroke:none" d="M 1.796875 -13.046875 L 5.484375 -13.046875 C 7.210938 -13.046875 8.460938 -12.785156 9.234375 -12.265625 C 10.015625 -11.753906 10.40625 -10.9375 10.40625 -9.8125 C 10.40625 -9.039062 10.1875 -8.40625 9.75 -7.90625 C 9.320312 -7.40625 8.691406 -7.078125 7.859375 -6.921875 L 7.859375 -6.84375 C 9.847656 -6.5 10.84375 -5.457031 10.84375 -3.71875 C 10.84375 -2.550781 10.445312 -1.640625 9.65625 -0.984375 C 8.863281 -0.328125 7.757812 0 6.34375 0 L 1.796875 0 Z M 3.3125 -7.46875 L 5.8125 -7.46875 C 6.882812 -7.46875 7.65625 -7.632812 8.125 -7.96875 C 8.59375 -8.300781 8.828125 -8.867188 8.828125 -9.671875 C 8.828125 -10.398438 8.5625 -10.925781 8.03125 -11.25 C 7.507812 -11.570312 6.679688 -11.734375 5.546875 -11.734375 L 3.3125 -11.734375 Z M 3.3125 -6.171875 L 3.3125 -1.296875 L 6.03125 -1.296875 C 7.082031 -1.296875 7.875 -1.5 8.40625 -1.90625 C 8.945312 -2.3125 9.21875 -2.953125 9.21875 -3.828125 C 9.21875 -4.628906 8.941406 -5.21875 8.390625 -5.59375 C 7.847656 -5.976562 7.019531 -6.171875 5.90625 -6.171875 Z M 3.3125 -6.171875 "/></g></g><g style="fill:#000000;fill-opacity:1;"><g transform="translate(563.525793, 560.540157)"><path style="stroke:none" d="M 7.59375 0 L 7.296875 -1.390625 L 7.21875 -1.390625 C 6.726562 -0.773438 6.238281 -0.359375 5.75 -0.140625 C 5.269531 0.0664062 4.671875 0.171875 3.953125 0.171875 C 2.972656 0.171875 2.207031 -0.078125 1.65625 -0.578125 C 1.113281 -1.078125 0.84375 -1.785156 0.84375 -2.703125 C 0.84375 -4.679688 2.421875 -5.71875 5.578125 -5.8125 L 7.234375 -5.859375 L 7.234375 -6.46875 C 7.234375 -7.238281 7.066406 -7.804688 6.734375 -8.171875 C 6.410156 -8.535156 5.882812 -8.71875 5.15625 -8.71875 C 4.34375 -8.71875 3.421875 -8.46875 2.390625 -7.96875 L 1.9375 -9.109375 C 2.414062 -9.367188 2.941406 -9.570312 3.515625 -9.71875 C 4.097656 -9.863281 4.675781 -9.9375 5.25 -9.9375 C 6.414062 -9.9375 7.28125 -9.675781 7.84375 -9.15625 C 8.40625 -8.644531 8.6875 -7.816406 8.6875 -6.671875 L 8.6875 0 Z M 4.234375 -1.046875 C 5.160156 -1.046875 5.882812 -1.296875 6.40625 -1.796875 C 6.9375 -2.304688 7.203125 -3.015625 7.203125 -3.921875 L 7.203125 -4.8125 L 5.71875 -4.75 C 4.539062 -4.707031 3.691406 -4.523438 3.171875 -4.203125 C 2.648438 -3.878906 2.390625 -3.375 2.390625 -2.6875 C 2.390625 -2.15625 2.550781 -1.75 2.875 -1.46875 C 3.195312 -1.1875 3.648438 -1.046875 4.234375 -1.046875 Z M 4.234375 -1.046875 "/></g></g><g style="fill:#000000;fill-opacity:1;"><g transform="translate(573.688548, 560.540157)"><path style="stroke:none" d="M 0.390625 4.390625 C -0.179688 4.390625 -0.640625 4.316406 -0.984375 4.171875 L -0.984375 2.96875 C -0.578125 3.082031 -0.175781 3.140625 0.21875 3.140625 C 0.6875 3.140625 1.03125 3.015625 1.25 2.765625 C 1.46875 2.515625 1.578125 2.128906 1.578125 1.609375 L 1.578125 -9.78125 L 3.046875 -9.78125 L 3.046875 1.5 C 3.046875 3.425781 2.160156 4.390625 0.390625 4.390625 Z M 1.453125 -12.4375 C 1.453125 -12.769531 1.535156 -13.015625 1.703125 -13.171875 C 1.867188 -13.335938 2.078125 -13.421875 2.328125 -13.421875 C 2.554688 -13.421875 2.757812 -13.335938 2.9375 -13.171875 C 3.113281 -13.015625 3.203125 -12.769531 3.203125 -12.4375 C 3.203125 -12.101562 3.113281 -11.851562 2.9375 -11.6875 C 2.757812 -11.519531 2.554688 -11.4375 2.328125 -11.4375 C 2.078125 -11.4375 1.867188 -11.519531 1.703125 -11.6875 C 1.535156 -11.851562 1.453125 -12.101562 1.453125 -12.4375 Z M 1.453125 -12.4375 "/></g></g><g style="fill:#000000;fill-opacity:1;"><g transform="translate(578.310413, 560.540157)"><path style="stroke:none" d="M 7.59375 0 L 7.296875 -1.390625 L 7.21875 -1.390625 C 6.726562 -0.773438 6.238281 -0.359375 5.75 -0.140625 C 5.269531 0.0664062 4.671875 0.171875 3.953125 0.171875 C 2.972656 0.171875 2.207031 -0.078125 1.65625 -0.578125 C 1.113281 -1.078125 0.84375 -1.785156 0.84375 -2.703125 C 0.84375 -4.679688 2.421875 -5.71875 5.578125 -5.8125 L 7.234375 -5.859375 L 7.234375 -6.46875 C 7.234375 -7.238281 7.066406 -7.804688 6.734375 -8.171875 C 6.410156 -8.535156 5.882812 -8.71875 5.15625 -8.71875 C 4.34375 -8.71875 3.421875 -8.46875 2.390625 -7.96875 L 1.9375 -9.109375 C 2.414062 -9.367188 2.941406 -9.570312 3.515625 -9.71875 C 4.097656 -9.863281 4.675781 -9.9375 5.25 -9.9375 C 6.414062 -9.9375 7.28125 -9.675781 7.84375 -9.15625 C 8.40625 -8.644531 8.6875 -7.816406 8.6875 -6.671875 L 8.6875 0 Z M 4.234375 -1.046875 C 5.160156 -1.046875 5.882812 -1.296875 6.40625 -1.796875 C 6.9375 -2.304688 7.203125 -3.015625 7.203125 -3.921875 L 7.203125 -4.8125 L 5.71875 -4.75 C 4.539062 -4.707031 3.691406 -4.523438 3.171875 -4.203125 C 2.648438 -3.878906 2.390625 -3.375 2.390625 -2.6875 C 2.390625 -2.15625 2.550781 -1.75 2.875 -1.46875 C 3.195312 -1.1875 3.648438 -1.046875 4.234375 -1.046875 Z M 4.234375 -1.046875 "/></g></g><g style="fill:#000000;fill-opacity:1;"><g transform="translate(113.417919, 543.787317)"><path style="stroke:none" d="M 9.546875 -6.546875 C 9.546875 -4.285156 9.1875 -2.597656 8.46875 -1.484375 C 7.757812 -0.378906 6.675781 0.171875 5.21875 0.171875 C 3.8125 0.171875 2.738281 -0.394531 2 -1.53125 C 1.269531 -2.664062 0.90625 -4.335938 0.90625 -6.546875 C 0.90625 -8.816406 1.257812 -10.5 1.96875 -11.59375 C 2.675781 -12.695312 3.757812 -13.25 5.21875 -13.25 C 6.632812 -13.25 7.707031 -12.675781 8.4375 -11.53125 C 9.175781 -10.382812 9.546875 -8.722656 9.546875 -6.546875 Z M 2.40625 -6.546875 C 2.40625 -4.648438 2.628906 -3.265625 3.078125 -2.390625 C 3.523438 -1.523438 4.238281 -1.09375 5.21875 -1.09375 C 6.195312 -1.09375 6.910156 -1.53125 7.359375 -2.40625 C 7.804688 -3.289062 8.03125 -4.671875 8.03125 -6.546875 C 8.03125 -8.421875 7.804688 -9.789062 7.359375 -10.65625 C 6.910156 -11.53125 6.195312 -11.96875 5.21875 -11.96875 C 4.238281 -11.96875 3.523438 -11.535156 3.078125 -10.671875 C 2.628906 -9.816406 2.40625 -8.441406 2.40625 -6.546875 Z M 2.40625 -6.546875 "/></g></g><g style="fill:#000000;fill-opacity:1;"><g transform="translate(116.624206, 441.211874)"><path style="stroke:none" d="M 6.375 0 L 4.9375 0 L 4.9375 -9.296875 C 4.9375 -10.078125 4.957031 -10.8125 5 -11.5 C 4.875 -11.375 4.734375 -11.242188 4.578125 -11.109375 C 4.429688 -10.972656 3.726562 -10.390625 2.46875 -9.359375 L 1.671875 -10.375 L 5.125 -13.046875 L 6.375 -13.046875 Z M 6.375 0 "/></g></g><g style="fill:#000000;fill-opacity:1;"><g transform="translate(113.417919, 338.636372)"><path style="stroke:none" d="M 9.46875 0 L 0.890625 0 L 0.890625 -1.28125 L 4.328125 -4.734375 C 5.378906 -5.785156 6.070312 -6.535156 6.40625 -6.984375 C 6.738281 -7.441406 6.988281 -7.882812 7.15625 -8.3125 C 7.320312 -8.75 7.40625 -9.210938 7.40625 -9.703125 C 7.40625 -10.398438 7.191406 -10.953125 6.765625 -11.359375 C 6.335938 -11.765625 5.75 -11.96875 5 -11.96875 C 4.46875 -11.96875 3.957031 -11.878906 3.46875 -11.703125 C 2.976562 -11.523438 2.4375 -11.203125 1.84375 -10.734375 L 1.0625 -11.734375 C 2.257812 -12.734375 3.566406 -13.234375 4.984375 -13.234375 C 6.210938 -13.234375 7.175781 -12.921875 7.875 -12.296875 C 8.570312 -11.671875 8.921875 -10.828125 8.921875 -9.765625 C 8.921875 -8.941406 8.6875 -8.125 8.21875 -7.3125 C 7.757812 -6.5 6.890625 -5.472656 5.609375 -4.234375 L 2.765625 -1.453125 L 2.765625 -1.375 L 9.46875 -1.375 Z M 9.46875 0 "/></g></g><g style="fill:#000000;fill-opacity:1;"><g transform="translate(113.417919, 236.060929)"><path style="stroke:none" d="M 8.984375 -9.984375 C 8.984375 -9.148438 8.75 -8.46875 8.28125 -7.9375 C 7.8125 -7.40625 7.148438 -7.050781 6.296875 -6.875 L 6.296875 -6.796875 C 7.335938 -6.671875 8.109375 -6.335938 8.609375 -5.796875 C 9.117188 -5.265625 9.375 -4.566406 9.375 -3.703125 C 9.375 -2.453125 8.941406 -1.492188 8.078125 -0.828125 C 7.222656 -0.160156 6 0.171875 4.40625 0.171875 C 3.71875 0.171875 3.085938 0.117188 2.515625 0.015625 C 1.941406 -0.0859375 1.382812 -0.269531 0.84375 -0.53125 L 0.84375 -1.9375 C 1.40625 -1.65625 2.003906 -1.441406 2.640625 -1.296875 C 3.285156 -1.148438 3.894531 -1.078125 4.46875 -1.078125 C 6.71875 -1.078125 7.84375 -1.960938 7.84375 -3.734375 C 7.84375 -5.316406 6.597656 -6.109375 4.109375 -6.109375 L 2.828125 -6.109375 L 2.828125 -7.375 L 4.140625 -7.375 C 5.148438 -7.375 5.953125 -7.597656 6.546875 -8.046875 C 7.140625 -8.503906 7.4375 -9.128906 7.4375 -9.921875 C 7.4375 -10.554688 7.21875 -11.054688 6.78125 -11.421875 C 6.34375 -11.785156 5.75 -11.96875 5 -11.96875 C 4.4375 -11.96875 3.898438 -11.890625 3.390625 -11.734375 C 2.890625 -11.578125 2.3125 -11.289062 1.65625 -10.875 L 0.90625 -11.875 C 1.445312 -12.300781 2.066406 -12.632812 2.765625 -12.875 C 3.460938 -13.113281 4.195312 -13.234375 4.96875 -13.234375 C 6.238281 -13.234375 7.222656 -12.941406 7.921875 -12.359375 C 8.628906 -11.785156 8.984375 -10.992188 8.984375 -9.984375 Z M 8.984375 -9.984375 "/></g></g><g style="fill:#000000;fill-opacity:1;"><g transform="translate(112.61635, 133.485454)"><path style="stroke:none" d="M 10.09375 -3 L 8.15625 -3 L 8.15625 0 L 6.734375 0 L 6.734375 -3 L 0.390625 -3 L 0.390625 -4.296875 L 6.578125 -13.125 L 8.15625 -13.125 L 8.15625 -4.34375 L 10.09375 -4.34375 Z M 6.734375 -4.34375 L 6.734375 -8.6875 C 6.734375 -9.539062 6.757812 -10.5 6.8125 -11.5625 L 6.75 -11.5625 C 6.457031 -11 6.1875 -10.53125 5.9375 -10.15625 L 1.859375 -4.34375 Z M 6.734375 -4.34375 "/></g></g><g style="fill:#000000;fill-opacity:1;"><g transform="translate(113.417919, 30.909994)"><path style="stroke:none" d="M 4.96875 -7.96875 C 6.34375 -7.96875 7.425781 -7.625 8.21875 -6.9375 C 9.007812 -6.257812 9.40625 -5.332031 9.40625 -4.15625 C 9.40625 -2.800781 8.972656 -1.738281 8.109375 -0.96875 C 7.242188 -0.207031 6.054688 0.171875 4.546875 0.171875 C 3.078125 0.171875 1.957031 -0.0625 1.1875 -0.53125 L 1.1875 -1.953125 C 1.601562 -1.679688 2.117188 -1.46875 2.734375 -1.3125 C 3.359375 -1.164062 3.972656 -1.09375 4.578125 -1.09375 C 5.617188 -1.09375 6.425781 -1.335938 7 -1.828125 C 7.582031 -2.328125 7.875 -3.046875 7.875 -3.984375 C 7.875 -5.804688 6.757812 -6.71875 4.53125 -6.71875 C 3.96875 -6.71875 3.210938 -6.628906 2.265625 -6.453125 L 1.5 -6.9375 L 1.984375 -13.046875 L 8.484375 -13.046875 L 8.484375 -11.6875 L 3.265625 -11.6875 L 2.921875 -7.765625 C 3.609375 -7.898438 4.289062 -7.96875 4.96875 -7.96875 Z M 4.96875 -7.96875 "/></g></g><g clip-rule="nonzero" clip-path="url(#bb4d1b7482)"><path style=" stroke:none;fill-rule:nonzero;fill:#fec24c;fill-opacity:1;" d="M 149.652344 229.246094 L 283.355469 229.246094 C 284.191406 229.246094 285.019531 229.328125 285.839844 229.492188 C 286.660156 229.65625 287.457031 229.898438 288.226562 230.21875 C 289 230.535156 289.734375 230.929688 290.429688 231.394531 C 291.125 231.859375 291.769531 232.386719 292.359375 232.976562 C 292.949219 233.566406 293.476562 234.210938 293.941406 234.90625 C 294.40625 235.601562 294.800781 236.335938 295.121094 237.109375 C 295.441406 237.878906 295.679688 238.675781 295.84375 239.496094 C 296.007812 240.316406 296.089844 241.144531 296.089844 241.980469 L 296.089844 536.972656 C 296.089844 537.808594 296.007812 538.636719 295.84375 539.457031 C 295.679688 540.277344 295.441406 541.074219 295.121094 541.847656 C 294.800781 542.621094 294.40625 543.351562 293.941406 544.046875 C 293.476562 544.742188 292.949219 545.386719 292.359375 545.976562 C 291.769531 546.570312 291.125 547.097656 290.429688 547.5625 C 289.734375 548.027344 289 548.417969 288.226562 548.738281 C 287.457031 549.058594 286.660156 549.300781 285.839844 549.460938 C 285.019531 549.625 284.191406 549.707031 283.355469 549.707031 L 149.652344 549.707031 C 148.816406 549.707031 147.988281 549.625 147.167969 549.460938 C 146.347656 549.300781 145.554688 549.058594 144.78125 548.738281 C 144.007812 548.417969 143.273438 548.027344 142.578125 547.5625 C 141.882812 547.097656 141.242188 546.570312 140.648438 545.976562 C 140.058594 545.386719 139.53125 544.742188 139.066406 544.046875 C 138.601562 543.351562 138.210938 542.621094 137.890625 541.847656 C 137.570312 541.074219 137.328125 540.277344 137.164062 539.457031 C 137 538.636719 136.921875 537.808594 136.921875 536.972656 L 136.921875 241.980469 C 136.921875 241.144531 137 240.316406 137.164062 239.496094 C 137.328125 238.675781 137.570312 237.878906 137.890625 237.109375 C 138.210938 236.335938 138.601562 235.601562 139.066406 234.90625 C 139.53125 234.210938 140.058594 233.566406 140.648438 232.976562 C 141.242188 232.386719 141.882812 231.859375 142.578125 231.394531 C 143.273438 230.929688 144.007812 230.535156 144.78125 230.21875 C 145.554688 229.898438 146.347656 229.65625 147.167969 229.492188 C 147.988281 229.328125 148.816406 229.246094 149.652344 229.246094 Z M 149.652344 229.246094 "/></g><g clip-rule="nonzero" clip-path="url(#b226485cc9)"><path style=" stroke:none;fill-rule:nonzero;fill:#fec24c;fill-opacity:1;" d="M 326.507812 434.398438 L 460.210938 434.398438 C 461.046875 434.398438 461.875 434.480469 462.695312 434.644531 C 463.515625 434.804688 464.308594 435.046875 465.082031 435.367188 C 465.855469 435.6875 466.589844 436.078125 467.285156 436.542969 C 467.980469 437.007812 468.621094 437.535156 469.214844 438.128906 C 469.804688 438.71875 470.332031 439.363281 470.796875 440.058594 C 471.261719 440.753906 471.652344 441.488281 471.972656 442.257812 C 472.292969 443.03125 472.535156 443.828125 472.699219 444.648438 C 472.863281 445.46875 472.941406 446.296875 472.941406 447.132812 L 472.941406 536.972656 C 472.941406 537.808594 472.863281 538.636719 472.699219 539.457031 C 472.535156 540.277344 472.292969 541.074219 471.972656 541.847656 C 471.652344 542.621094 471.261719 543.351562 470.796875 544.046875 C 470.332031 544.742188 469.804688 545.386719 469.214844 545.976562 C 468.621094 546.570312 467.980469 547.097656 467.285156 547.5625 C 466.589844 548.027344 465.855469 548.417969 465.082031 548.738281 C 464.308594 549.058594 463.515625 549.300781 462.695312 549.460938 C 461.875 549.625 461.046875 549.707031 460.210938 549.707031 L 326.507812 549.707031 C 325.671875 549.707031 324.84375 549.625 324.023438 549.460938 C 323.203125 549.300781 322.40625 549.058594 321.636719 548.738281 C 320.863281 548.417969 320.128906 548.027344 319.433594 547.5625 C 318.738281 547.097656 318.09375 546.570312 317.503906 545.976562 C 316.914062 545.386719 316.386719 544.742188 315.921875 544.046875 C 315.457031 543.351562 315.0625 542.621094 314.742188 541.847656 C 314.421875 541.074219 314.183594 540.277344 314.019531 539.457031 C 313.855469 538.636719 313.773438 537.808594 313.773438 536.972656 L 313.773438 447.132812 C 313.773438 446.296875 313.855469 445.46875 314.019531 444.648438 C 314.183594 443.828125 314.421875 443.03125 314.742188 442.257812 C 315.0625 441.488281 315.457031 440.753906 315.921875 440.058594 C 316.386719 439.363281 316.914062 438.71875 317.503906 438.128906 C 318.09375 437.535156 318.738281 437.007812 319.433594 436.542969 C 320.128906 436.078125 320.863281 435.6875 321.636719 435.367188 C 322.40625 435.046875 323.203125 434.804688 324.023438 434.644531 C 324.84375 434.480469 325.671875 434.398438 326.507812 434.398438 Z M 326.507812 434.398438 "/></g><g clip-rule="nonzero" clip-path="url(#e456f09b06)"><path style=" stroke:none;fill-rule:nonzero;fill:#fec24c;fill-opacity:1;" d="M 503.363281 24.097656 L 637.0625 24.097656 C 637.898438 24.097656 638.726562 24.179688 639.546875 24.339844 C 640.367188 24.503906 641.164062 24.746094 641.9375 25.066406 C 642.710938 25.386719 643.441406 25.777344 644.136719 26.242188 C 644.832031 26.707031 645.476562 27.234375 646.066406 27.828125 C 646.660156 28.417969 647.1875 29.0625 647.652344 29.753906 C 648.117188 30.449219 648.507812 31.183594 648.828125 31.957031 C 649.148438 32.730469 649.390625 33.527344 649.550781 34.347656 C 649.714844 35.164062 649.796875 35.992188 649.796875 36.832031 L 649.796875 536.972656 C 649.796875 537.808594 649.714844 538.636719 649.550781 539.457031 C 649.390625 540.277344 649.148438 541.074219 648.828125 541.847656 C 648.507812 542.621094 648.117188 543.351562 647.652344 544.046875 C 647.1875 544.742188 646.660156 545.386719 646.066406 545.976562 C 645.476562 546.570312 644.832031 547.097656 644.136719 547.5625 C 643.441406 548.027344 642.710938 548.417969 641.9375 548.738281 C 641.164062 549.058594 640.367188 549.300781 639.546875 549.460938 C 638.726562 549.625 637.898438 549.707031 637.0625 549.707031 L 503.363281 549.707031 C 502.527344 549.707031 501.699219 549.625 500.878906 549.460938 C 500.058594 549.300781 499.261719 549.058594 498.488281 548.738281 C 497.714844 548.417969 496.984375 548.027344 496.289062 547.5625 C 495.59375 547.097656 494.949219 546.570312 494.359375 545.976562 C 493.765625 545.386719 493.238281 544.742188 492.773438 544.046875 C 492.308594 543.351562 491.917969 542.621094 491.597656 541.847656 C 491.277344 541.074219 491.035156 540.277344 490.875 539.457031 C 490.710938 538.636719 490.628906 537.808594 490.628906 536.972656 L 490.628906 36.832031 C 490.628906 35.992188 490.710938 35.164062 490.875 34.347656 C 491.035156 33.527344 491.277344 32.730469 491.597656 31.957031 C 491.917969 31.183594 492.308594 30.449219 492.773438 29.753906 C 493.238281 29.0625 493.765625 28.417969 494.359375 27.828125 C 494.949219 27.234375 495.59375 26.707031 496.289062 26.242188 C 496.984375 25.777344 497.714844 25.386719 498.488281 25.066406 C 499.261719 24.746094 500.058594 24.503906 500.878906 24.339844 C 501.699219 24.179688 502.527344 24.097656 503.363281 24.097656 Z M 503.363281 24.097656 "/></g></g></svg>