<svg xmlns="http://www.w3.org/2000/svg" xmlns:xlink="http://www.w3.org/1999/xlink" width="1024" zoomAndPan="magnify" viewBox="0 0 768 576" height="768" preserveAspectRatio="xMidYMid meet" version="1.2"><defs/><g id="9ab4861fa6"><path style="fill:none;stroke-width:2;stroke-linecap:butt;stroke-linejoin:miter;stroke:#000000;stroke-opacity:0.25;stroke-miterlimit:4;" d="M 319.918601 319.919884 L 319.918601 -0.00184411 " transform="matrix(0.767815,0,0,0.767815,135.029745,44.798291)"/><path style="fill:none;stroke-width:2;stroke-linecap:butt;stroke-linejoin:miter;stroke:#000000;stroke-opacity:0.25;stroke-miterlimit:4;" d="M 319.918601 319.919884 L 596.978225 159.95902 " transform="matrix(0.767815,0,0,0.767815,135.029745,44.798291)"/><path style="fill:none;stroke-width:2;stroke-linecap:butt;stroke-linejoin:miter;stroke:#000000;stroke-opacity:0.25;stroke-miterlimit:4;" d="M 319.918601 319.919884 L 596.978225 479.880748 " transform="matrix(0.767815,0,0,0.767815,135.029745,44.798291)"/><path style="fill:none;stroke-width:2;stroke-linecap:butt;stroke-linejoin:miter;stroke:#000000;stroke-opacity:0.25;stroke-miterlimit:4;" d="M 319.918601 319.919884 L 319.918601 639.841612 " transform="matrix(0.767815,0,0,0.767815,135.029745,44.798291)"/><path style="fill:none;stroke-width:2;stroke-linecap:butt;stroke-linejoin:miter;stroke:#000000;stroke-opacity:0.25;stroke-miterlimit:4;" d="M 319.918601 319.919884 L 42.858977 479.880748 " transform="matrix(0.767815,0,0,0.767815,135.029745,44.798291)"/><path style="fill:none;stroke-width:2;stroke-linecap:butt;stroke-linejoin:miter;stroke:#000000;stroke-opacity:0.25;stroke-miterlimit:4;" d="M 319.918601 319.919884 L 42.858977 159.95902 " transform="matrix(0.767815,0,0,0.767815,135.029745,44.798291)"/><path style=" stroke:none;fill-rule:nonzero;fill:#000000;fill-opacity:0.25;" d="M 381.054688 219.589844 L 385.042969 221.894531 L 385.707031 222.277344 L 384.941406 223.605469 L 384.273438 223.222656 L 379.621094 220.535156 L 380.386719 219.207031 Z M 389.03125 224.195312 L 393.023438 226.5 L 393.6875 226.882812 L 392.917969 228.214844 L 392.253906 227.832031 L 387.597656 225.144531 L 388.367188 223.8125 Z M 397.011719 228.804688 L 401 231.105469 L 401.667969 231.492188 L 400.898438 232.820312 L 400.234375 232.4375 L 395.578125 229.75 L 396.347656 228.417969 Z M 404.992188 233.410156 L 408.980469 235.714844 L 409.644531 236.097656 L 408.878906 237.429688 L 408.214844 237.042969 L 403.558594 234.355469 L 404.324219 233.027344 Z M 412.96875 238.015625 L 416.960938 240.320312 L 417.625 240.703125 L 416.855469 242.035156 L 416.191406 241.652344 L 411.539062 238.964844 L 412.304688 237.632812 Z M 420.949219 242.625 L 424.941406 244.929688 L 425.605469 245.3125 L 424.835938 246.640625 L 424.171875 246.257812 L 419.515625 243.570312 L 420.285156 242.242188 Z M 428.929688 247.230469 L 432.917969 249.535156 L 433.582031 249.917969 L 432.816406 251.25 L 432.152344 250.863281 L 427.496094 248.175781 L 428.265625 246.847656 Z M 436.910156 251.839844 L 441.5625 254.527344 L 440.796875 255.855469 L 435.476562 252.785156 L 436.242188 251.453125 Z M 436.910156 251.839844 "/><path style=" stroke:none;fill-rule:nonzero;fill:#000000;fill-opacity:0.25;" d="M 442.21875 255.347656 L 442.21875 260.722656 L 440.679688 260.722656 L 440.679688 254.578125 L 442.21875 254.578125 Z M 442.21875 264.558594 L 442.21875 269.933594 L 440.679688 269.933594 L 440.679688 263.792969 L 442.21875 263.792969 Z M 442.21875 273.773438 L 442.21875 279.148438 L 440.679688 279.148438 L 440.679688 273.007812 L 442.21875 273.007812 Z M 442.21875 282.988281 L 442.21875 288.363281 L 440.679688 288.363281 L 440.679688 282.21875 L 442.21875 282.21875 Z M 442.21875 292.203125 L 442.21875 297.574219 L 440.679688 297.574219 L 440.679688 291.433594 L 442.21875 291.433594 Z M 442.21875 301.414062 L 442.21875 306.789062 L 440.679688 306.789062 L 440.679688 300.648438 L 442.21875 300.648438 Z M 442.21875 310.628906 L 442.21875 316.003906 L 440.679688 316.003906 L 440.679688 309.859375 L 442.21875 309.859375 Z M 442.21875 319.84375 L 442.21875 325.21875 L 440.679688 325.21875 L 440.679688 319.074219 L 442.21875 319.074219 Z M 442.21875 319.84375 "/><path style=" stroke:none;fill-rule:nonzero;fill:#000000;fill-opacity:0.25;" d="M 441.832031 326.195312 L 437.84375 328.496094 L 437.179688 328.882812 L 436.410156 327.550781 L 437.074219 327.167969 L 441.730469 324.480469 L 442.496094 325.808594 Z M 433.855469 330.800781 L 429.863281 333.105469 L 429.199219 333.488281 L 428.429688 332.160156 L 429.097656 331.773438 L 433.75 329.085938 L 434.519531 330.417969 Z M 425.875 335.40625 L 421.882812 337.710938 L 421.21875 338.09375 L 420.453125 336.765625 L 421.117188 336.382812 L 425.769531 333.695312 L 426.539062 335.023438 Z M 417.894531 340.015625 L 413.90625 342.316406 L 413.238281 342.703125 L 412.472656 341.371094 L 413.136719 340.988281 L 417.792969 338.300781 L 418.558594 339.628906 Z M 409.914062 344.621094 L 405.925781 346.925781 L 405.261719 347.308594 L 404.492188 345.980469 L 405.15625 345.59375 L 409.8125 342.90625 L 410.582031 344.238281 Z M 401.9375 349.226562 L 397.945312 351.53125 L 397.28125 351.914062 L 396.511719 350.585938 L 397.179688 350.203125 L 401.832031 347.515625 L 402.601562 348.84375 Z M 393.957031 353.835938 L 389.96875 356.136719 L 389.300781 356.523438 L 388.535156 355.191406 L 389.199219 354.808594 L 393.855469 352.121094 L 394.621094 353.453125 Z M 385.976562 358.441406 L 381.324219 361.128906 L 380.554688 359.800781 L 385.875 356.726562 L 386.640625 358.058594 Z M 385.976562 358.441406 "/><path style=" stroke:none;fill-rule:nonzero;fill:#000000;fill-opacity:0.25;" d="M 380.285156 361.285156 L 376.296875 358.980469 L 375.628906 358.597656 L 376.398438 357.269531 L 377.0625 357.652344 L 381.71875 360.339844 L 380.949219 361.667969 Z M 372.304688 356.679688 L 368.316406 354.375 L 367.652344 353.992188 L 368.417969 352.660156 L 369.082031 353.046875 L 373.738281 355.730469 L 372.972656 357.0625 Z M 364.328125 352.070312 L 360.335938 349.769531 L 359.671875 349.382812 L 360.441406 348.054688 L 361.105469 348.4375 L 365.757812 351.125 L 364.992188 352.457031 Z M 356.347656 347.464844 L 352.355469 345.160156 L 351.691406 344.777344 L 352.460938 343.449219 L 353.125 343.832031 L 357.78125 346.519531 L 357.011719 347.847656 Z M 348.367188 342.859375 L 344.378906 340.554688 L 343.714844 340.171875 L 344.480469 338.839844 L 345.144531 339.222656 L 349.800781 341.910156 L 349.03125 343.242188 Z M 340.386719 338.25 L 336.398438 335.949219 L 335.734375 335.5625 L 336.5 334.234375 L 337.167969 334.617188 L 341.820312 337.304688 L 341.054688 338.632812 Z M 332.410156 333.644531 L 328.417969 331.339844 L 327.753906 330.957031 L 328.523438 329.625 L 329.1875 330.011719 L 333.839844 332.699219 L 333.074219 334.027344 Z M 324.429688 329.035156 L 319.773438 326.351562 L 320.542969 325.019531 L 325.863281 328.089844 L 325.09375 329.421875 Z M 324.429688 329.035156 "/><path style=" stroke:none;fill-rule:nonzero;fill:#000000;fill-opacity:0.25;" d="M 319.121094 325.527344 L 319.121094 320.152344 L 320.65625 320.152344 L 320.65625 326.296875 L 319.121094 326.296875 Z M 319.121094 316.316406 L 319.121094 310.941406 L 320.65625 310.941406 L 320.65625 317.082031 L 319.121094 317.082031 Z M 319.121094 307.101562 L 319.121094 301.726562 L 320.65625 301.726562 L 320.65625 307.871094 L 319.121094 307.871094 Z M 319.121094 297.886719 L 319.121094 292.511719 L 320.65625 292.511719 L 320.65625 298.65625 L 319.121094 298.65625 Z M 319.121094 288.671875 L 319.121094 283.300781 L 320.65625 283.300781 L 320.65625 289.441406 L 319.121094 289.441406 Z M 319.121094 279.460938 L 319.121094 274.085938 L 320.65625 274.085938 L 320.65625 280.226562 L 319.121094 280.226562 Z M 319.121094 270.246094 L 319.121094 264.871094 L 320.65625 264.871094 L 320.65625 271.015625 L 319.121094 271.015625 Z M 319.121094 261.03125 L 319.121094 255.65625 L 320.65625 255.65625 L 320.65625 261.800781 L 319.121094 261.800781 Z M 319.121094 261.03125 "/><path style=" stroke:none;fill-rule:nonzero;fill:#000000;fill-opacity:0.25;" d="M 319.503906 254.679688 L 323.496094 252.378906 L 324.160156 251.992188 L 324.925781 253.324219 L 324.261719 253.707031 L 319.609375 256.394531 L 318.839844 255.066406 Z M 327.484375 250.074219 L 331.472656 247.769531 L 332.140625 247.386719 L 332.90625 248.71875 L 332.242188 249.101562 L 327.585938 251.789062 L 326.820312 250.457031 Z M 335.464844 245.46875 L 339.453125 243.164062 L 340.117188 242.78125 L 340.886719 244.109375 L 340.222656 244.492188 L 335.566406 247.179688 L 334.800781 245.851562 Z M 343.441406 240.859375 L 347.433594 238.558594 L 348.097656 238.171875 L 348.867188 239.503906 L 348.199219 239.886719 L 343.546875 242.574219 L 342.777344 241.246094 Z M 351.421875 236.253906 L 355.414062 233.949219 L 356.078125 233.566406 L 356.84375 234.894531 L 356.179688 235.28125 L 351.527344 237.96875 L 350.757812 236.636719 Z M 359.402344 231.648438 L 363.390625 229.34375 L 364.054688 228.960938 L 364.824219 230.289062 L 364.160156 230.671875 L 359.503906 233.359375 L 358.738281 232.03125 Z M 367.382812 227.039062 L 371.371094 224.738281 L 372.035156 224.351562 L 372.804688 225.683594 L 372.140625 226.066406 L 367.484375 228.753906 L 366.714844 227.425781 Z M 375.359375 222.433594 L 380.015625 219.746094 L 380.78125 221.074219 L 375.464844 224.148438 L 374.695312 222.816406 Z M 375.359375 222.433594 "/><path style=" stroke:none;fill-rule:nonzero;fill:#000000;fill-opacity:0.25;" d="M 381.054688 149.40625 L 385.042969 151.710938 L 385.707031 152.09375 L 384.941406 153.425781 L 384.273438 153.039062 L 379.621094 150.351562 L 380.386719 149.023438 Z M 389.03125 154.015625 L 393.023438 156.316406 L 393.6875 156.703125 L 392.917969 158.03125 L 392.253906 157.648438 L 387.597656 154.960938 L 388.367188 153.628906 Z M 397.011719 158.621094 L 401 160.925781 L 401.667969 161.308594 L 400.898438 162.636719 L 400.234375 162.253906 L 395.578125 159.566406 L 396.347656 158.238281 Z M 404.992188 163.226562 L 408.980469 165.53125 L 409.644531 165.914062 L 408.878906 167.246094 L 408.214844 166.863281 L 403.558594 164.175781 L 404.324219 162.84375 Z M 412.96875 167.835938 L 416.960938 170.136719 L 417.625 170.523438 L 416.855469 171.851562 L 416.191406 171.46875 L 411.539062 168.78125 L 412.304688 167.449219 Z M 420.949219 172.441406 L 424.941406 174.746094 L 425.605469 175.128906 L 424.835938 176.460938 L 424.171875 176.074219 L 419.515625 173.386719 L 420.285156 172.058594 Z M 428.929688 177.046875 L 432.917969 179.351562 L 433.582031 179.734375 L 432.816406 181.066406 L 432.152344 180.683594 L 427.496094 177.996094 L 428.265625 176.664062 Z M 436.910156 181.65625 L 440.898438 183.960938 L 441.5625 184.34375 L 440.796875 185.671875 L 440.128906 185.289062 L 435.476562 182.601562 L 436.242188 181.273438 Z M 444.886719 186.261719 L 448.878906 188.566406 L 449.542969 188.949219 L 448.773438 190.28125 L 448.109375 189.894531 L 443.457031 187.207031 L 444.222656 185.878906 Z M 452.867188 190.871094 L 456.855469 193.171875 L 457.523438 193.558594 L 456.753906 194.886719 L 456.089844 194.503906 L 451.433594 191.816406 L 452.203125 190.484375 Z M 460.847656 195.476562 L 464.835938 197.78125 L 465.5 198.164062 L 464.734375 199.492188 L 464.070312 199.109375 L 459.414062 196.421875 L 460.183594 195.09375 Z M 468.824219 200.082031 L 472.816406 202.386719 L 473.480469 202.769531 L 472.710938 204.101562 L 472.046875 203.714844 L 467.394531 201.027344 L 468.160156 199.699219 Z M 476.804688 204.691406 L 480.796875 206.992188 L 481.460938 207.378906 L 480.691406 208.707031 L 480.027344 208.324219 L 475.371094 205.636719 L 476.140625 204.304688 Z M 484.785156 209.296875 L 488.773438 211.601562 L 489.4375 211.984375 L 488.671875 213.3125 L 488.007812 212.929688 L 483.351562 210.242188 L 484.121094 208.914062 Z M 492.765625 213.902344 L 496.753906 216.207031 L 497.417969 216.589844 L 496.652344 217.921875 L 495.984375 217.539062 L 491.332031 214.851562 L 492.097656 213.519531 Z M 500.742188 218.511719 L 503.277344 219.972656 L 502.511719 221.304688 L 499.3125 219.457031 L 500.078125 218.125 Z M 500.742188 218.511719 "/><path style=" stroke:none;fill-rule:nonzero;fill:#000000;fill-opacity:0.25;" d="M 502.996094 220.253906 L 502.996094 225.628906 L 501.460938 225.628906 L 501.460938 219.488281 L 502.996094 219.488281 Z M 502.996094 229.46875 L 502.996094 234.84375 L 501.460938 234.84375 L 501.460938 228.699219 L 502.996094 228.699219 Z M 502.996094 238.683594 L 502.996094 244.058594 L 501.460938 244.058594 L 501.460938 237.914062 L 502.996094 237.914062 Z M 502.996094 247.894531 L 502.996094 253.269531 L 501.460938 253.269531 L 501.460938 247.128906 L 502.996094 247.128906 Z M 502.996094 257.109375 L 502.996094 262.484375 L 501.460938 262.484375 L 501.460938 256.34375 L 502.996094 256.34375 Z M 502.996094 266.324219 L 502.996094 271.699219 L 501.460938 271.699219 L 501.460938 265.554688 L 502.996094 265.554688 Z M 502.996094 275.539062 L 502.996094 280.914062 L 501.460938 280.914062 L 501.460938 274.769531 L 502.996094 274.769531 Z M 502.996094 284.75 L 502.996094 290.125 L 501.460938 290.125 L 501.460938 283.984375 L 502.996094 283.984375 Z M 502.996094 293.964844 L 502.996094 299.339844 L 501.460938 299.339844 L 501.460938 293.199219 L 502.996094 293.199219 Z M 502.996094 303.179688 L 502.996094 308.554688 L 501.460938 308.554688 L 501.460938 302.410156 L 502.996094 302.410156 Z M 502.996094 312.394531 L 502.996094 317.765625 L 501.460938 317.765625 L 501.460938 311.625 L 502.996094 311.625 Z M 502.996094 321.605469 L 502.996094 326.980469 L 501.460938 326.980469 L 501.460938 320.839844 L 502.996094 320.839844 Z M 502.996094 330.820312 L 502.996094 336.195312 L 501.460938 336.195312 L 501.460938 330.050781 L 502.996094 330.050781 Z M 502.996094 340.035156 L 502.996094 345.410156 L 501.460938 345.410156 L 501.460938 339.265625 L 502.996094 339.265625 Z M 502.996094 349.246094 L 502.996094 354.621094 L 501.460938 354.621094 L 501.460938 348.480469 L 502.996094 348.480469 Z M 502.996094 358.460938 L 502.996094 361.386719 L 501.460938 361.386719 L 501.460938 357.695312 L 502.996094 357.695312 Z M 502.996094 358.460938 "/><path style=" stroke:none;fill-rule:nonzero;fill:#000000;fill-opacity:0.25;" d="M 502.613281 361.285156 L 498.625 363.589844 L 497.957031 363.972656 L 497.191406 362.644531 L 497.855469 362.257812 L 502.511719 359.570312 L 503.277344 360.902344 Z M 494.632812 365.890625 L 490.644531 368.195312 L 489.980469 368.578125 L 489.210938 367.25 L 489.875 366.867188 L 494.53125 364.179688 L 495.296875 365.507812 Z M 486.652344 370.5 L 482.664062 372.800781 L 482 373.1875 L 481.230469 371.855469 L 481.898438 371.472656 L 486.550781 368.785156 L 487.320312 370.113281 Z M 478.675781 375.105469 L 474.683594 377.410156 L 474.019531 377.792969 L 473.253906 376.464844 L 473.917969 376.078125 L 478.570312 373.390625 L 479.339844 374.722656 Z M 470.695312 379.710938 L 466.707031 382.015625 L 466.039062 382.398438 L 465.273438 381.070312 L 465.9375 380.6875 L 470.59375 378 L 471.359375 379.328125 Z M 462.714844 384.320312 L 458.726562 386.625 L 458.0625 387.007812 L 457.292969 385.675781 L 457.957031 385.292969 L 462.613281 382.605469 L 463.382812 383.9375 Z M 454.738281 388.925781 L 450.746094 391.230469 L 450.082031 391.613281 L 449.3125 390.285156 L 449.980469 389.898438 L 454.632812 387.210938 L 455.402344 388.542969 Z M 446.757812 393.535156 L 442.769531 395.835938 L 442.101562 396.222656 L 441.335938 394.890625 L 442 394.507812 L 446.65625 391.820312 L 447.421875 393.148438 Z M 438.777344 398.140625 L 434.789062 400.445312 L 434.125 400.828125 L 433.355469 399.496094 L 434.019531 399.113281 L 438.675781 396.425781 L 439.441406 397.757812 Z M 430.796875 402.746094 L 426.808594 405.050781 L 426.144531 405.433594 L 425.375 404.105469 L 426.042969 403.722656 L 430.695312 401.035156 L 431.464844 402.363281 Z M 422.820312 407.355469 L 418.828125 409.65625 L 418.164062 410.042969 L 417.398438 408.710938 L 418.0625 408.328125 L 422.714844 405.640625 L 423.484375 406.96875 Z M 414.839844 411.960938 L 410.851562 414.265625 L 410.183594 414.648438 L 409.417969 413.320312 L 410.082031 412.933594 L 414.738281 410.246094 L 415.503906 411.578125 Z M 406.859375 416.566406 L 402.871094 418.871094 L 402.207031 419.253906 L 401.4375 417.925781 L 402.101562 417.542969 L 406.757812 414.855469 L 407.527344 416.183594 Z M 398.882812 421.175781 L 394.890625 423.476562 L 394.226562 423.863281 L 393.457031 422.53125 L 394.125 422.148438 L 398.777344 419.460938 L 399.546875 420.789062 Z M 390.902344 425.78125 L 386.910156 428.085938 L 386.246094 428.46875 L 385.480469 427.140625 L 386.144531 426.753906 L 390.800781 424.066406 L 391.566406 425.398438 Z M 382.921875 430.386719 L 380.386719 431.851562 L 379.621094 430.523438 L 382.820312 428.675781 L 383.585938 430.003906 Z M 382.921875 430.386719 "/><path style=" stroke:none;fill-rule:nonzero;fill:#000000;fill-opacity:0.25;" d="M 380.285156 431.46875 L 376.296875 429.164062 L 375.628906 428.78125 L 376.398438 427.449219 L 377.0625 427.835938 L 381.71875 430.523438 L 380.949219 431.851562 Z M 372.304688 426.859375 L 368.316406 424.558594 L 367.652344 424.171875 L 368.417969 422.84375 L 369.082031 423.226562 L 373.738281 425.914062 L 372.972656 427.246094 Z M 364.328125 422.253906 L 360.335938 419.949219 L 359.671875 419.566406 L 360.441406 418.238281 L 361.105469 418.621094 L 365.757812 421.308594 L 364.992188 422.636719 Z M 356.347656 417.648438 L 352.355469 415.34375 L 351.691406 414.960938 L 352.460938 413.628906 L 353.125 414.015625 L 357.78125 416.703125 L 357.011719 418.03125 Z M 348.367188 413.039062 L 344.378906 410.738281 L 343.714844 410.351562 L 344.480469 409.023438 L 345.144531 409.40625 L 349.800781 412.09375 L 349.03125 413.425781 Z M 340.386719 408.433594 L 336.398438 406.128906 L 335.734375 405.746094 L 336.5 404.417969 L 337.167969 404.800781 L 341.820312 407.488281 L 341.054688 408.816406 Z M 332.410156 403.828125 L 328.417969 401.523438 L 327.753906 401.140625 L 328.523438 399.808594 L 329.1875 400.191406 L 333.839844 402.878906 L 333.074219 404.210938 Z M 324.429688 399.21875 L 320.441406 396.917969 L 319.773438 396.53125 L 320.542969 395.203125 L 321.207031 395.585938 L 325.863281 398.273438 L 325.09375 399.605469 Z M 316.449219 394.613281 L 312.460938 392.308594 L 311.796875 391.925781 L 312.5625 390.59375 L 313.226562 390.980469 L 317.882812 393.667969 L 317.113281 394.996094 Z M 308.472656 390.003906 L 304.480469 387.703125 L 303.816406 387.320312 L 304.585938 385.988281 L 305.25 386.371094 L 309.902344 389.058594 L 309.136719 390.390625 Z M 300.492188 385.398438 L 296.5 383.09375 L 295.835938 382.710938 L 296.605469 381.382812 L 297.269531 381.765625 L 301.925781 384.453125 L 301.15625 385.78125 Z M 292.511719 380.792969 L 288.523438 378.488281 L 287.859375 378.105469 L 288.625 376.773438 L 289.289062 377.160156 L 293.945312 379.847656 L 293.175781 381.175781 Z M 284.53125 376.183594 L 280.542969 373.882812 L 279.878906 373.496094 L 280.644531 372.167969 L 281.3125 372.550781 L 285.964844 375.238281 L 285.199219 376.570312 Z M 276.554688 371.578125 L 272.5625 369.273438 L 271.898438 368.890625 L 272.667969 367.5625 L 273.332031 367.945312 L 277.984375 370.632812 L 277.21875 371.960938 Z M 268.574219 366.972656 L 264.585938 364.667969 L 263.917969 364.285156 L 264.6875 362.953125 L 265.351562 363.339844 L 270.007812 366.027344 L 269.238281 367.355469 Z M 260.59375 362.363281 L 258.058594 360.902344 L 258.828125 359.570312 L 262.027344 361.417969 L 261.257812 362.75 Z M 260.59375 362.363281 "/><path style=" stroke:none;fill-rule:nonzero;fill:#000000;fill-opacity:0.25;" d="M 258.339844 360.621094 L 258.339844 355.246094 L 259.875 355.246094 L 259.875 361.386719 L 258.339844 361.386719 Z M 258.339844 351.40625 L 258.339844 346.03125 L 259.875 346.03125 L 259.875 352.175781 L 258.339844 352.175781 Z M 258.339844 342.191406 L 258.339844 336.816406 L 259.875 336.816406 L 259.875 342.960938 L 258.339844 342.960938 Z M 258.339844 332.980469 L 258.339844 327.605469 L 259.875 327.605469 L 259.875 333.746094 L 258.339844 333.746094 Z M 258.339844 323.765625 L 258.339844 318.390625 L 259.875 318.390625 L 259.875 324.53125 L 258.339844 324.53125 Z M 258.339844 314.550781 L 258.339844 309.175781 L 259.875 309.175781 L 259.875 315.320312 L 258.339844 315.320312 Z M 258.339844 305.335938 L 258.339844 299.960938 L 259.875 299.960938 L 259.875 306.105469 L 258.339844 306.105469 Z M 258.339844 296.125 L 258.339844 290.75 L 259.875 290.75 L 259.875 296.890625 L 258.339844 296.890625 Z M 258.339844 286.910156 L 258.339844 281.535156 L 259.875 281.535156 L 259.875 287.679688 L 258.339844 287.679688 Z M 258.339844 277.695312 L 258.339844 272.320312 L 259.875 272.320312 L 259.875 278.464844 L 258.339844 278.464844 Z M 258.339844 268.484375 L 258.339844 263.109375 L 259.875 263.109375 L 259.875 269.25 L 258.339844 269.25 Z M 258.339844 259.269531 L 258.339844 253.894531 L 259.875 253.894531 L 259.875 260.035156 L 258.339844 260.035156 Z M 258.339844 250.054688 L 258.339844 244.679688 L 259.875 244.679688 L 259.875 250.824219 L 258.339844 250.824219 Z M 258.339844 240.839844 L 258.339844 235.464844 L 259.875 235.464844 L 259.875 241.609375 L 258.339844 241.609375 Z M 258.339844 231.628906 L 258.339844 226.253906 L 259.875 226.253906 L 259.875 232.394531 L 258.339844 232.394531 Z M 258.339844 222.414062 L 258.339844 219.488281 L 259.875 219.488281 L 259.875 223.179688 L 258.339844 223.179688 Z M 258.339844 222.414062 "/><path style=" stroke:none;fill-rule:nonzero;fill:#000000;fill-opacity:0.25;" d="M 258.726562 219.589844 L 262.714844 217.285156 L 263.378906 216.902344 L 264.148438 218.234375 L 263.484375 218.617188 L 258.828125 221.304688 L 258.058594 219.972656 Z M 266.703125 214.984375 L 270.695312 212.679688 L 271.359375 212.296875 L 272.128906 213.625 L 271.460938 214.007812 L 266.808594 216.695312 L 266.039062 215.367188 Z M 274.683594 210.375 L 278.671875 208.074219 L 279.339844 207.6875 L 280.105469 209.019531 L 279.441406 209.402344 L 274.785156 212.089844 L 274.019531 210.761719 Z M 282.664062 205.769531 L 286.652344 203.464844 L 287.316406 203.082031 L 288.085938 204.410156 L 287.421875 204.796875 L 282.765625 207.484375 L 282 206.152344 Z M 290.644531 201.164062 L 294.632812 198.859375 L 295.296875 198.476562 L 296.066406 199.804688 L 295.398438 200.1875 L 290.746094 202.875 L 289.976562 201.546875 Z M 298.621094 196.554688 L 302.613281 194.253906 L 303.277344 193.867188 L 304.042969 195.199219 L 303.378906 195.582031 L 298.726562 198.269531 L 297.957031 196.9375 Z M 306.601562 191.949219 L 310.589844 189.644531 L 311.257812 189.261719 L 312.023438 190.589844 L 311.359375 190.976562 L 306.703125 193.664062 L 305.9375 192.332031 Z M 314.582031 187.339844 L 318.570312 185.039062 L 319.234375 184.65625 L 320.003906 185.984375 L 319.339844 186.367188 L 314.683594 189.054688 L 313.914062 187.726562 Z M 322.558594 182.734375 L 326.550781 180.429688 L 327.214844 180.046875 L 327.984375 181.378906 L 327.316406 181.761719 L 322.664062 184.449219 L 321.894531 183.117188 Z M 330.539062 178.128906 L 334.527344 175.824219 L 335.195312 175.441406 L 335.960938 176.769531 L 335.296875 177.15625 L 330.640625 179.839844 L 329.875 178.511719 Z M 338.519531 173.519531 L 342.507812 171.21875 L 343.171875 170.832031 L 343.941406 172.164062 L 343.277344 172.546875 L 338.621094 175.234375 L 337.855469 173.90625 Z M 346.5 168.914062 L 350.488281 166.609375 L 351.152344 166.226562 L 351.921875 167.558594 L 351.253906 167.941406 L 346.601562 170.628906 L 345.832031 169.296875 Z M 354.476562 164.308594 L 358.46875 162.003906 L 359.132812 161.621094 L 359.898438 162.949219 L 359.234375 163.332031 L 354.582031 166.019531 L 353.8125 164.691406 Z M 362.457031 159.699219 L 366.445312 157.398438 L 367.113281 157.011719 L 367.878906 158.34375 L 367.214844 158.726562 L 362.558594 161.414062 L 361.792969 160.085938 Z M 370.4375 155.09375 L 374.425781 152.789062 L 375.089844 152.40625 L 375.859375 153.734375 L 375.195312 154.121094 L 370.539062 156.808594 L 369.769531 155.476562 Z M 378.414062 150.488281 L 380.949219 149.023438 L 381.71875 150.351562 L 378.519531 152.199219 L 377.75 150.871094 Z M 378.414062 150.488281 "/><path style=" stroke:none;fill-rule:nonzero;fill:#000000;fill-opacity:0.25;" d="M 381.054688 79.226562 L 385.042969 81.527344 L 385.707031 81.910156 L 384.941406 83.242188 L 384.273438 82.859375 L 379.621094 80.171875 L 380.386719 78.839844 Z M 389.03125 83.832031 L 393.023438 86.136719 L 393.6875 86.519531 L 392.917969 87.847656 L 392.253906 87.464844 L 387.597656 84.777344 L 388.367188 83.449219 Z M 397.011719 88.4375 L 401 90.742188 L 401.667969 91.125 L 400.898438 92.457031 L 400.234375 92.070312 L 395.578125 89.382812 L 396.347656 88.054688 Z M 404.992188 93.046875 L 408.980469 95.347656 L 409.644531 95.734375 L 408.878906 97.0625 L 408.214844 96.679688 L 403.558594 93.992188 L 404.324219 92.660156 Z M 412.96875 97.652344 L 416.960938 99.957031 L 417.625 100.339844 L 416.855469 101.667969 L 416.191406 101.285156 L 411.539062 98.597656 L 412.304688 97.269531 Z M 420.949219 102.257812 L 424.941406 104.5625 L 425.605469 104.945312 L 424.835938 106.277344 L 424.171875 105.890625 L 419.515625 103.207031 L 420.285156 101.875 Z M 428.929688 106.867188 L 432.917969 109.167969 L 433.582031 109.554688 L 432.816406 110.882812 L 432.152344 110.5 L 427.496094 107.8125 L 428.265625 106.480469 Z M 436.910156 111.472656 L 440.898438 113.777344 L 441.5625 114.160156 L 440.796875 115.488281 L 440.128906 115.105469 L 435.476562 112.417969 L 436.242188 111.089844 Z M 444.886719 116.078125 L 448.878906 118.382812 L 449.542969 118.765625 L 448.773438 120.097656 L 448.109375 119.714844 L 443.457031 117.027344 L 444.222656 115.695312 Z M 452.867188 120.6875 L 456.855469 122.988281 L 457.523438 123.375 L 456.753906 124.703125 L 456.089844 124.320312 L 451.433594 121.632812 L 452.203125 120.304688 Z M 460.847656 125.292969 L 464.835938 127.597656 L 465.5 127.980469 L 464.734375 129.3125 L 464.070312 128.925781 L 459.414062 126.238281 L 460.183594 124.910156 Z M 468.824219 129.902344 L 472.816406 132.203125 L 473.480469 132.585938 L 472.710938 133.917969 L 472.046875 133.535156 L 467.394531 130.847656 L 468.160156 129.515625 Z M 476.804688 134.507812 L 480.796875 136.8125 L 481.460938 137.195312 L 480.691406 138.523438 L 480.027344 138.140625 L 475.371094 135.453125 L 476.140625 134.125 Z M 484.785156 139.113281 L 488.773438 141.417969 L 489.4375 141.800781 L 488.671875 143.132812 L 488.007812 142.746094 L 483.351562 140.058594 L 484.121094 138.730469 Z M 492.765625 143.722656 L 496.753906 146.023438 L 497.417969 146.410156 L 496.652344 147.738281 L 495.984375 147.355469 L 491.332031 144.667969 L 492.097656 143.335938 Z M 500.742188 148.328125 L 504.734375 150.632812 L 505.398438 151.015625 L 504.628906 152.34375 L 503.964844 151.960938 L 499.3125 149.273438 L 500.078125 147.945312 Z M 508.722656 152.933594 L 512.710938 155.238281 L 513.378906 155.621094 L 512.609375 156.953125 L 511.945312 156.566406 L 507.289062 153.882812 L 508.058594 152.550781 Z M 516.703125 157.542969 L 520.691406 159.84375 L 521.355469 160.230469 L 520.589844 161.558594 L 519.925781 161.175781 L 515.269531 158.488281 L 516.039062 157.15625 Z M 524.679688 162.148438 L 528.671875 164.453125 L 529.335938 164.835938 L 528.570312 166.164062 L 527.902344 165.78125 L 523.25 163.09375 L 524.015625 161.765625 Z M 532.660156 166.753906 L 536.652344 169.058594 L 537.316406 169.441406 L 536.546875 170.773438 L 535.882812 170.390625 L 531.226562 167.703125 L 531.996094 166.371094 Z M 540.640625 171.363281 L 544.628906 173.664062 L 545.292969 174.050781 L 544.527344 175.378906 L 543.863281 174.996094 L 539.207031 172.308594 L 539.976562 170.980469 Z M 548.621094 175.96875 L 552.609375 178.273438 L 553.273438 178.65625 L 552.507812 179.988281 L 551.839844 179.601562 L 547.1875 176.914062 L 547.953125 175.585938 Z M 556.597656 180.578125 L 561.253906 183.261719 L 560.484375 184.59375 L 555.167969 181.523438 L 555.933594 180.191406 Z M 556.597656 180.578125 "/><path style=" stroke:none;fill-rule:nonzero;fill:#000000;fill-opacity:0.25;" d="M 563.777344 185.164062 L 563.777344 190.539062 L 562.242188 190.539062 L 562.242188 184.394531 L 563.777344 184.394531 Z M 563.777344 194.378906 L 563.777344 199.753906 L 562.242188 199.753906 L 562.242188 193.609375 L 563.777344 193.609375 Z M 563.777344 203.589844 L 563.777344 208.964844 L 562.242188 208.964844 L 562.242188 202.824219 L 563.777344 202.824219 Z M 563.777344 212.804688 L 563.777344 218.179688 L 562.242188 218.179688 L 562.242188 212.039062 L 563.777344 212.039062 Z M 563.777344 222.019531 L 563.777344 227.394531 L 562.242188 227.394531 L 562.242188 221.25 L 563.777344 221.25 Z M 563.777344 231.234375 L 563.777344 236.605469 L 562.242188 236.605469 L 562.242188 230.464844 L 563.777344 230.464844 Z M 563.777344 240.445312 L 563.777344 245.820312 L 562.242188 245.820312 L 562.242188 239.679688 L 563.777344 239.679688 Z M 563.777344 249.660156 L 563.777344 255.035156 L 562.242188 255.035156 L 562.242188 248.890625 L 563.777344 248.890625 Z M 563.777344 258.875 L 563.777344 264.25 L 562.242188 264.25 L 562.242188 258.105469 L 563.777344 258.105469 Z M 563.777344 268.085938 L 563.777344 273.460938 L 562.242188 273.460938 L 562.242188 267.320312 L 563.777344 267.320312 Z M 563.777344 277.300781 L 563.777344 282.675781 L 562.242188 282.675781 L 562.242188 276.535156 L 563.777344 276.535156 Z M 563.777344 286.515625 L 563.777344 291.890625 L 562.242188 291.890625 L 562.242188 285.746094 L 563.777344 285.746094 Z M 563.777344 295.730469 L 563.777344 301.105469 L 562.242188 301.105469 L 562.242188 294.960938 L 563.777344 294.960938 Z M 563.777344 304.941406 L 563.777344 310.316406 L 562.242188 310.316406 L 562.242188 304.175781 L 563.777344 304.175781 Z M 563.777344 314.15625 L 563.777344 319.53125 L 562.242188 319.53125 L 562.242188 313.386719 L 563.777344 313.386719 Z M 563.777344 323.371094 L 563.777344 328.746094 L 562.242188 328.746094 L 562.242188 322.601562 L 563.777344 322.601562 Z M 563.777344 332.585938 L 563.777344 337.957031 L 562.242188 337.957031 L 562.242188 331.816406 L 563.777344 331.816406 Z M 563.777344 341.796875 L 563.777344 347.171875 L 562.242188 347.171875 L 562.242188 341.03125 L 563.777344 341.03125 Z M 563.777344 351.011719 L 563.777344 356.386719 L 562.242188 356.386719 L 562.242188 350.242188 L 563.777344 350.242188 Z M 563.777344 360.226562 L 563.777344 365.601562 L 562.242188 365.601562 L 562.242188 359.457031 L 563.777344 359.457031 Z M 563.777344 369.4375 L 563.777344 374.8125 L 562.242188 374.8125 L 562.242188 368.671875 L 563.777344 368.671875 Z M 563.777344 378.652344 L 563.777344 384.027344 L 562.242188 384.027344 L 562.242188 377.886719 L 563.777344 377.886719 Z M 563.777344 387.867188 L 563.777344 393.242188 L 562.242188 393.242188 L 562.242188 387.097656 L 563.777344 387.097656 Z M 563.777344 387.867188 "/><path style=" stroke:none;fill-rule:nonzero;fill:#000000;fill-opacity:0.25;" d="M 563.394531 396.375 L 559.402344 398.679688 L 558.738281 399.0625 L 557.96875 397.734375 L 558.636719 397.351562 L 563.289062 394.664062 L 564.058594 395.992188 Z M 555.414062 400.984375 L 551.421875 403.285156 L 550.757812 403.671875 L 549.992188 402.339844 L 550.65625 401.957031 L 555.3125 399.269531 L 556.078125 400.597656 Z M 547.433594 405.589844 L 543.445312 407.894531 L 542.78125 408.277344 L 542.011719 406.949219 L 542.675781 406.5625 L 547.332031 403.875 L 548.097656 405.207031 Z M 539.453125 410.195312 L 535.464844 412.5 L 534.800781 412.882812 L 534.03125 411.554688 L 534.695312 411.171875 L 539.351562 408.484375 L 540.121094 409.8125 Z M 531.476562 414.804688 L 527.484375 417.109375 L 526.820312 417.492188 L 526.054688 416.160156 L 526.71875 415.777344 L 531.371094 413.089844 L 532.140625 414.421875 Z M 523.496094 419.410156 L 519.507812 421.714844 L 518.839844 422.097656 L 518.074219 420.769531 L 518.738281 420.382812 L 523.394531 417.695312 L 524.160156 419.027344 Z M 515.515625 424.019531 L 511.527344 426.320312 L 510.863281 426.707031 L 510.09375 425.375 L 510.757812 424.992188 L 515.414062 422.304688 L 516.179688 423.632812 Z M 507.539062 428.625 L 503.546875 430.929688 L 502.882812 431.3125 L 502.113281 429.980469 L 502.78125 429.597656 L 507.433594 426.910156 L 508.203125 428.242188 Z M 499.558594 433.230469 L 495.566406 435.535156 L 494.902344 435.917969 L 494.136719 434.589844 L 494.800781 434.207031 L 499.453125 431.519531 L 500.222656 432.847656 Z M 491.578125 437.839844 L 487.589844 440.140625 L 486.925781 440.527344 L 486.15625 439.195312 L 486.820312 438.8125 L 491.476562 436.125 L 492.242188 437.453125 Z M 483.597656 442.445312 L 479.609375 444.75 L 478.945312 445.132812 L 478.175781 443.804688 L 478.839844 443.417969 L 483.496094 440.730469 L 484.265625 442.0625 Z M 475.621094 447.050781 L 471.628906 449.355469 L 470.964844 449.738281 L 470.199219 448.410156 L 470.863281 448.027344 L 475.515625 445.339844 L 476.285156 446.667969 Z M 467.640625 451.660156 L 463.652344 453.960938 L 462.984375 454.347656 L 462.21875 453.015625 L 462.882812 452.632812 L 467.539062 449.945312 L 468.304688 451.273438 Z M 459.660156 456.265625 L 455.671875 458.570312 L 455.007812 458.953125 L 454.238281 457.625 L 454.902344 457.238281 L 459.558594 454.550781 L 460.324219 455.882812 Z M 451.683594 460.871094 L 447.691406 463.175781 L 447.027344 463.558594 L 446.257812 462.230469 L 446.925781 461.847656 L 451.578125 459.160156 L 452.347656 460.488281 Z M 443.703125 465.480469 L 439.710938 467.785156 L 439.046875 468.167969 L 438.28125 466.835938 L 438.945312 466.453125 L 443.597656 463.765625 L 444.367188 465.097656 Z M 435.722656 470.085938 L 431.734375 472.390625 L 431.066406 472.773438 L 430.300781 471.445312 L 430.964844 471.058594 L 435.621094 468.371094 L 436.386719 469.703125 Z M 427.742188 474.695312 L 423.753906 476.996094 L 423.089844 477.382812 L 422.320312 476.050781 L 422.984375 475.667969 L 427.640625 472.980469 L 428.410156 474.308594 Z M 419.765625 479.300781 L 415.773438 481.605469 L 415.109375 481.988281 L 414.34375 480.65625 L 415.007812 480.273438 L 419.660156 477.585938 L 420.429688 478.917969 Z M 411.785156 483.90625 L 407.796875 486.210938 L 407.128906 486.59375 L 406.363281 485.265625 L 407.027344 484.882812 L 411.683594 482.195312 L 412.449219 483.523438 Z M 403.804688 488.515625 L 399.816406 490.816406 L 399.152344 491.203125 L 398.382812 489.871094 L 399.046875 489.488281 L 403.703125 486.800781 L 404.46875 488.128906 Z M 395.824219 493.121094 L 391.835938 495.425781 L 391.171875 495.808594 L 390.402344 494.480469 L 391.070312 494.09375 L 395.722656 491.40625 L 396.492188 492.738281 Z M 387.847656 497.726562 L 383.191406 500.414062 L 382.425781 499.085938 L 387.742188 496.015625 L 388.511719 497.34375 Z M 387.847656 497.726562 "/><path style=" stroke:none;fill-rule:nonzero;fill:#000000;fill-opacity:0.25;" d="M 380.285156 501.652344 L 376.296875 499.347656 L 375.628906 498.964844 L 376.398438 497.632812 L 377.0625 498.015625 L 381.71875 500.703125 L 380.949219 502.035156 Z M 372.304688 497.042969 L 368.316406 494.738281 L 367.652344 494.355469 L 368.417969 493.027344 L 369.082031 493.410156 L 373.738281 496.097656 L 372.972656 497.425781 Z M 364.328125 492.4375 L 360.335938 490.132812 L 359.671875 489.75 L 360.441406 488.417969 L 361.105469 488.804688 L 365.757812 491.492188 L 364.992188 492.820312 Z M 356.347656 487.828125 L 352.355469 485.527344 L 351.691406 485.140625 L 352.460938 483.8125 L 353.125 484.195312 L 357.78125 486.882812 L 357.011719 488.214844 Z M 348.367188 483.222656 L 344.378906 480.917969 L 343.714844 480.535156 L 344.480469 479.207031 L 345.144531 479.589844 L 349.800781 482.277344 L 349.03125 483.605469 Z M 340.386719 478.617188 L 336.398438 476.3125 L 335.734375 475.929688 L 336.5 474.597656 L 337.167969 474.984375 L 341.820312 477.671875 L 341.054688 479 Z M 332.410156 474.007812 L 328.417969 471.707031 L 327.753906 471.320312 L 328.523438 469.992188 L 329.1875 470.375 L 333.839844 473.0625 L 333.074219 474.394531 Z M 324.429688 469.402344 L 320.441406 467.097656 L 319.773438 466.714844 L 320.542969 465.386719 L 321.207031 465.769531 L 325.863281 468.457031 L 325.09375 469.785156 Z M 316.449219 464.796875 L 312.460938 462.492188 L 311.796875 462.109375 L 312.5625 460.777344 L 313.226562 461.160156 L 317.882812 463.847656 L 317.113281 465.179688 Z M 308.472656 460.1875 L 304.480469 457.886719 L 303.816406 457.5 L 304.585938 456.171875 L 305.25 456.554688 L 309.902344 459.242188 L 309.136719 460.574219 Z M 300.492188 455.582031 L 296.5 453.277344 L 295.835938 452.894531 L 296.605469 451.5625 L 297.269531 451.949219 L 301.925781 454.636719 L 301.15625 455.964844 Z M 292.511719 450.976562 L 288.523438 448.671875 L 287.859375 448.289062 L 288.625 446.957031 L 289.289062 447.339844 L 293.945312 450.027344 L 293.175781 451.359375 Z M 284.53125 446.367188 L 280.542969 444.0625 L 279.878906 443.679688 L 280.644531 442.351562 L 281.3125 442.734375 L 285.964844 445.421875 L 285.199219 446.75 Z M 276.554688 441.761719 L 272.5625 439.457031 L 271.898438 439.074219 L 272.667969 437.742188 L 273.332031 438.128906 L 277.984375 440.816406 L 277.21875 442.144531 Z M 268.574219 437.152344 L 264.585938 434.851562 L 263.917969 434.464844 L 264.6875 433.136719 L 265.351562 433.519531 L 270.007812 436.207031 L 269.238281 437.539062 Z M 260.59375 432.546875 L 256.605469 430.242188 L 255.941406 429.859375 L 256.707031 428.53125 L 257.371094 428.914062 L 262.027344 431.601562 L 261.257812 432.929688 Z M 252.617188 427.941406 L 248.625 425.636719 L 247.960938 425.253906 L 248.726562 423.921875 L 249.394531 424.308594 L 254.046875 426.996094 L 253.28125 428.324219 Z M 244.636719 423.332031 L 240.644531 421.03125 L 239.980469 420.644531 L 240.75 419.316406 L 241.414062 419.699219 L 246.070312 422.386719 L 245.300781 423.71875 Z M 236.65625 418.726562 L 232.667969 416.421875 L 232 416.039062 L 232.769531 414.710938 L 233.433594 415.09375 L 238.089844 417.78125 L 237.320312 419.109375 Z M 228.675781 414.121094 L 224.6875 411.816406 L 224.023438 411.433594 L 224.789062 410.101562 L 225.457031 410.484375 L 230.109375 413.171875 L 229.34375 414.503906 Z M 220.699219 409.511719 L 216.707031 407.210938 L 216.042969 406.824219 L 216.8125 405.496094 L 217.476562 405.878906 L 222.128906 408.566406 L 221.363281 409.898438 Z M 212.71875 404.90625 L 208.730469 402.601562 L 208.0625 402.21875 L 208.832031 400.886719 L 209.496094 401.273438 L 214.152344 403.960938 L 213.382812 405.289062 Z M 204.738281 400.300781 L 200.085938 397.613281 L 200.851562 396.28125 L 206.171875 399.351562 L 205.402344 400.683594 Z M 204.738281 400.300781 "/><path style=" stroke:none;fill-rule:nonzero;fill:#000000;fill-opacity:0.25;" d="M 197.5625 395.710938 L 197.5625 390.335938 L 199.097656 390.335938 L 199.097656 396.480469 L 197.5625 396.480469 Z M 197.5625 386.496094 L 197.5625 381.125 L 199.097656 381.125 L 199.097656 387.265625 L 197.5625 387.265625 Z M 197.5625 377.285156 L 197.5625 371.910156 L 199.097656 371.910156 L 199.097656 378.050781 L 197.5625 378.050781 Z M 197.5625 368.070312 L 197.5625 362.695312 L 199.097656 362.695312 L 199.097656 368.839844 L 197.5625 368.839844 Z M 197.5625 358.855469 L 197.5625 353.480469 L 199.097656 353.480469 L 199.097656 359.625 L 197.5625 359.625 Z M 197.5625 349.644531 L 197.5625 344.269531 L 199.097656 344.269531 L 199.097656 350.410156 L 197.5625 350.410156 Z M 197.5625 340.429688 L 197.5625 335.054688 L 199.097656 335.054688 L 199.097656 341.195312 L 197.5625 341.195312 Z M 197.5625 331.214844 L 197.5625 325.839844 L 199.097656 325.839844 L 199.097656 331.984375 L 197.5625 331.984375 Z M 197.5625 322 L 197.5625 316.625 L 199.097656 316.625 L 199.097656 322.769531 L 197.5625 322.769531 Z M 197.5625 312.789062 L 197.5625 307.414062 L 199.097656 307.414062 L 199.097656 313.554688 L 197.5625 313.554688 Z M 197.5625 303.574219 L 197.5625 298.199219 L 199.097656 298.199219 L 199.097656 304.339844 L 197.5625 304.339844 Z M 197.5625 294.359375 L 197.5625 288.984375 L 199.097656 288.984375 L 199.097656 295.128906 L 197.5625 295.128906 Z M 197.5625 285.144531 L 197.5625 279.773438 L 199.097656 279.773438 L 199.097656 285.914062 L 197.5625 285.914062 Z M 197.5625 275.933594 L 197.5625 270.558594 L 199.097656 270.558594 L 199.097656 276.699219 L 197.5625 276.699219 Z M 197.5625 266.71875 L 197.5625 261.34375 L 199.097656 261.34375 L 199.097656 267.488281 L 197.5625 267.488281 Z M 197.5625 257.503906 L 197.5625 252.128906 L 199.097656 252.128906 L 199.097656 258.273438 L 197.5625 258.273438 Z M 197.5625 248.292969 L 197.5625 242.917969 L 199.097656 242.917969 L 199.097656 249.058594 L 197.5625 249.058594 Z M 197.5625 239.078125 L 197.5625 233.703125 L 199.097656 233.703125 L 199.097656 239.84375 L 197.5625 239.84375 Z M 197.5625 229.863281 L 197.5625 224.488281 L 199.097656 224.488281 L 199.097656 230.632812 L 197.5625 230.632812 Z M 197.5625 220.648438 L 197.5625 215.273438 L 199.097656 215.273438 L 199.097656 221.417969 L 197.5625 221.417969 Z M 197.5625 211.4375 L 197.5625 206.0625 L 199.097656 206.0625 L 199.097656 212.203125 L 197.5625 212.203125 Z M 197.5625 202.222656 L 197.5625 196.847656 L 199.097656 196.847656 L 199.097656 202.988281 L 197.5625 202.988281 Z M 197.5625 193.007812 L 197.5625 187.632812 L 199.097656 187.632812 L 199.097656 193.777344 L 197.5625 193.777344 Z M 197.5625 193.007812 "/><path style=" stroke:none;fill-rule:nonzero;fill:#000000;fill-opacity:0.25;" d="M 197.945312 184.5 L 201.933594 182.195312 L 202.601562 181.8125 L 203.367188 183.140625 L 202.703125 183.523438 L 198.046875 186.210938 L 197.28125 184.882812 Z M 205.925781 179.890625 L 209.914062 177.589844 L 210.578125 177.203125 L 211.347656 178.535156 L 210.683594 178.917969 L 206.027344 181.605469 L 205.257812 180.277344 Z M 213.902344 175.285156 L 217.894531 172.980469 L 218.558594 172.597656 L 219.328125 173.925781 L 218.660156 174.3125 L 214.007812 177 L 213.238281 175.667969 Z M 221.882812 170.679688 L 225.871094 168.375 L 226.539062 167.992188 L 227.304688 169.320312 L 226.640625 169.703125 L 221.984375 172.390625 L 221.21875 171.0625 Z M 229.863281 166.070312 L 233.851562 163.769531 L 234.515625 163.382812 L 235.285156 164.714844 L 234.621094 165.097656 L 229.964844 167.785156 L 229.199219 166.453125 Z M 237.84375 161.464844 L 241.832031 159.160156 L 242.496094 158.777344 L 243.265625 160.105469 L 242.597656 160.492188 L 237.945312 163.179688 L 237.175781 161.847656 Z M 245.820312 156.855469 L 249.8125 154.554688 L 250.476562 154.171875 L 251.242188 155.5 L 250.578125 155.882812 L 245.925781 158.570312 L 245.15625 157.242188 Z M 253.800781 152.25 L 257.789062 149.945312 L 258.457031 149.5625 L 259.222656 150.894531 L 258.558594 151.277344 L 253.902344 153.964844 L 253.136719 152.632812 Z M 261.78125 147.644531 L 265.769531 145.339844 L 266.433594 144.957031 L 267.203125 146.285156 L 266.539062 146.671875 L 261.882812 149.355469 L 261.113281 148.027344 Z M 269.757812 143.035156 L 273.75 140.734375 L 274.414062 140.347656 L 275.183594 141.679688 L 274.515625 142.0625 L 269.863281 144.75 L 269.09375 143.421875 Z M 277.738281 138.429688 L 281.730469 136.125 L 282.394531 135.742188 L 283.160156 137.074219 L 282.496094 137.457031 L 277.839844 140.144531 L 277.074219 138.8125 Z M 285.71875 133.824219 L 289.707031 131.519531 L 290.371094 131.136719 L 291.140625 132.464844 L 290.476562 132.847656 L 285.820312 135.535156 L 285.054688 134.207031 Z M 293.699219 129.214844 L 297.6875 126.914062 L 298.351562 126.527344 L 299.121094 127.859375 L 298.457031 128.242188 L 293.800781 130.929688 L 293.03125 129.601562 Z M 301.675781 124.609375 L 305.667969 122.304688 L 306.332031 121.921875 L 307.097656 123.25 L 306.433594 123.636719 L 301.78125 126.324219 L 301.011719 124.992188 Z M 309.65625 120.003906 L 313.644531 117.699219 L 314.3125 117.316406 L 315.078125 118.644531 L 314.414062 119.027344 L 309.757812 121.714844 L 308.992188 120.386719 Z M 317.636719 115.394531 L 321.625 113.09375 L 322.289062 112.707031 L 323.058594 114.039062 L 322.394531 114.421875 L 317.738281 117.109375 L 316.972656 115.777344 Z M 325.613281 110.789062 L 329.605469 108.484375 L 330.269531 108.101562 L 331.039062 109.429688 L 330.371094 109.816406 L 325.71875 112.503906 L 324.949219 111.171875 Z M 333.59375 106.179688 L 337.585938 103.878906 L 338.25 103.496094 L 339.015625 104.824219 L 338.351562 105.207031 L 333.699219 107.894531 L 332.929688 106.566406 Z M 341.574219 101.574219 L 345.5625 99.269531 L 346.226562 98.886719 L 346.996094 100.21875 L 346.332031 100.601562 L 341.675781 103.289062 L 340.910156 101.957031 Z M 349.554688 96.96875 L 353.542969 94.664062 L 354.207031 94.28125 L 354.976562 95.609375 L 354.3125 95.996094 L 349.65625 98.679688 L 348.886719 97.351562 Z M 357.53125 92.359375 L 361.523438 90.058594 L 362.1875 89.671875 L 362.953125 91.003906 L 362.289062 91.386719 L 357.636719 94.074219 L 356.867188 92.746094 Z M 365.511719 87.753906 L 369.5 85.449219 L 370.167969 85.066406 L 370.933594 86.398438 L 370.269531 86.78125 L 365.613281 89.46875 L 364.847656 88.136719 Z M 373.492188 83.148438 L 378.144531 80.460938 L 378.914062 81.789062 L 373.59375 84.859375 L 372.828125 83.53125 Z M 373.492188 83.148438 "/><path style=" stroke:none;fill-rule:nonzero;fill:#5ce1e6;fill-opacity:0.4;" d="M 380.667969 290.4375 L 380.667969 100.945312 L 490.074219 227.273438 Z M 380.667969 290.4375 "/><path style="fill-rule:nonzero;fill:#000000;fill-opacity:0.4;stroke-width:3;stroke-linecap:butt;stroke-linejoin:round;stroke:#5ce1e6;stroke-opacity:1;stroke-miterlimit:4;" d="M -0.00140267 -246.794271 L 142.48902 -82.264841 Z M -0.00140267 -246.794271 " transform="matrix(0.767815,0,0,0.767815,380.669046,290.437597)"/><path style=" stroke:none;fill-rule:nonzero;fill:#5ce1e6;fill-opacity:0.4;" d="M 380.667969 290.4375 L 490.074219 227.273438 L 411.058594 307.984375 Z M 380.667969 290.4375 "/><path style="fill-rule:nonzero;fill:#000000;fill-opacity:0.4;stroke-width:3;stroke-linecap:butt;stroke-linejoin:round;stroke:#5ce1e6;stroke-opacity:1;stroke-miterlimit:4;" d="M 142.48902 -82.264841 L 39.57927 22.85288 Z M 142.48902 -82.264841 " transform="matrix(0.767815,0,0,0.767815,380.669046,290.437597)"/><path style=" stroke:none;fill-rule:nonzero;fill:#5ce1e6;fill-opacity:0.4;" d="M 380.667969 290.4375 L 411.058594 307.984375 L 380.667969 493.96875 Z M 380.667969 290.4375 "/><path style="fill-rule:nonzero;fill:#000000;fill-opacity:0.4;stroke-width:3;stroke-linecap:butt;stroke-linejoin:round;stroke:#5ce1e6;stroke-opacity:1;stroke-miterlimit:4;" d="M 39.57927 22.85288 L -0.00140267 265.078459 Z M 39.57927 22.85288 " transform="matrix(0.767815,0,0,0.767815,380.669046,290.437597)"/><path style=" stroke:none;fill-rule:nonzero;fill:#5ce1e6;fill-opacity:0.4;" d="M 380.667969 290.4375 L 380.667969 493.96875 L 259.109375 360.621094 Z M 380.667969 290.4375 "/><path style="fill-rule:nonzero;fill:#000000;fill-opacity:0.4;stroke-width:3;stroke-linecap:butt;stroke-linejoin:round;stroke:#5ce1e6;stroke-opacity:1;stroke-miterlimit:4;" d="M -0.00140267 265.078459 L -158.319007 91.406809 Z M -0.00140267 265.078459 " transform="matrix(0.767815,0,0,0.767815,380.669046,290.437597)"/><path style=" stroke:none;fill-rule:nonzero;fill:#5ce1e6;fill-opacity:0.4;" d="M 380.667969 290.4375 L 259.109375 360.621094 L 180.09375 174.636719 Z M 380.667969 290.4375 "/><path style="fill-rule:nonzero;fill:#000000;fill-opacity:0.4;stroke-width:3;stroke-linecap:butt;stroke-linejoin:round;stroke:#5ce1e6;stroke-opacity:1;stroke-miterlimit:4;" d="M -158.319007 91.406809 L -261.228757 -150.81877 Z M -158.319007 91.406809 " transform="matrix(0.767815,0,0,0.767815,380.669046,290.437597)"/><path style=" stroke:none;fill-rule:nonzero;fill:#5ce1e6;fill-opacity:0.4;" d="M 380.667969 290.4375 L 180.09375 174.636719 L 380.667969 100.945312 Z M 380.667969 290.4375 "/><path style="fill-rule:nonzero;fill:#000000;fill-opacity:0.4;stroke-width:3;stroke-linecap:butt;stroke-linejoin:round;stroke:#5ce1e6;stroke-opacity:1;stroke-miterlimit:4;" d="M -261.228757 -150.81877 L -0.00140267 -246.794271 Z M -261.228757 -150.81877 " transform="matrix(0.767815,0,0,0.767815,380.669046,290.437597)"/><g style="fill:#000000;fill-opacity:1;"><g transform="translate(375.667689, 296.953457)"><path style="stroke:none" d="M 9.140625 -6.265625 C 9.140625 -4.109375 8.796875 -2.492188 8.109375 -1.421875 C 7.429688 -0.359375 6.390625 0.171875 4.984375 0.171875 C 3.640625 0.171875 2.617188 -0.375 1.921875 -1.46875 C 1.222656 -2.5625 0.875 -4.160156 0.875 -6.265625 C 0.875 -8.441406 1.210938 -10.054688 1.890625 -11.109375 C 2.566406 -12.160156 3.597656 -12.6875 4.984375 -12.6875 C 6.347656 -12.6875 7.378906 -12.132812 8.078125 -11.03125 C 8.785156 -9.9375 9.140625 -8.347656 9.140625 -6.265625 Z M 2.3125 -6.265625 C 2.3125 -4.441406 2.523438 -3.113281 2.953125 -2.28125 C 3.378906 -1.457031 4.054688 -1.046875 4.984375 -1.046875 C 5.929688 -1.046875 6.617188 -1.46875 7.046875 -2.3125 C 7.472656 -3.15625 7.6875 -4.472656 7.6875 -6.265625 C 7.6875 -8.054688 7.472656 -9.367188 7.046875 -10.203125 C 6.617188 -11.035156 5.929688 -11.453125 4.984375 -11.453125 C 4.054688 -11.453125 3.378906 -11.039062 2.953125 -10.21875 C 2.523438 -9.394531 2.3125 -8.078125 2.3125 -6.265625 Z M 2.3125 -6.265625 "/></g></g><g style="fill:#000000;fill-opacity:1;"><g transform="translate(370.280993, 226.770389)"><path style="stroke:none" d="M 6.109375 0 L 4.71875 0 L 4.71875 -8.90625 C 4.71875 -9.644531 4.742188 -10.34375 4.796875 -11 C 4.671875 -10.882812 4.535156 -10.757812 4.390625 -10.625 C 4.242188 -10.5 3.566406 -9.945312 2.359375 -8.96875 L 1.609375 -9.9375 L 4.90625 -12.5 L 6.109375 -12.5 Z M 6.109375 0 "/></g></g><g style="fill:#000000;fill-opacity:1;"><g transform="translate(380.289262, 226.770389)"><path style="stroke:none" d="M 9.140625 -6.265625 C 9.140625 -4.109375 8.796875 -2.492188 8.109375 -1.421875 C 7.429688 -0.359375 6.390625 0.171875 4.984375 0.171875 C 3.640625 0.171875 2.617188 -0.375 1.921875 -1.46875 C 1.222656 -2.5625 0.875 -4.160156 0.875 -6.265625 C 0.875 -8.441406 1.210938 -10.054688 1.890625 -11.109375 C 2.566406 -12.160156 3.597656 -12.6875 4.984375 -12.6875 C 6.347656 -12.6875 7.378906 -12.132812 8.078125 -11.03125 C 8.785156 -9.9375 9.140625 -8.347656 9.140625 -6.265625 Z M 2.3125 -6.265625 C 2.3125 -4.441406 2.523438 -3.113281 2.953125 -2.28125 C 3.378906 -1.457031 4.054688 -1.046875 4.984375 -1.046875 C 5.929688 -1.046875 6.617188 -1.46875 7.046875 -2.3125 C 7.472656 -3.15625 7.6875 -4.472656 7.6875 -6.265625 C 7.6875 -8.054688 7.472656 -9.367188 7.046875 -10.203125 C 6.617188 -11.035156 5.929688 -11.453125 4.984375 -11.453125 C 4.054688 -11.453125 3.378906 -11.039062 2.953125 -10.21875 C 2.523438 -9.394531 2.3125 -8.078125 2.3125 -6.265625 Z M 2.3125 -6.265625 "/></g></g><g style="fill:#000000;fill-opacity:1;"><g transform="translate(370.6649, 156.587321)"><path style="stroke:none" d="M 9.0625 0 L 0.859375 0 L 0.859375 -1.21875 L 4.140625 -4.53125 C 5.140625 -5.539062 5.800781 -6.257812 6.125 -6.6875 C 6.445312 -7.125 6.6875 -7.546875 6.84375 -7.953125 C 7 -8.367188 7.078125 -8.8125 7.078125 -9.28125 C 7.078125 -9.945312 6.875 -10.472656 6.46875 -10.859375 C 6.070312 -11.253906 5.515625 -11.453125 4.796875 -11.453125 C 4.273438 -11.453125 3.78125 -11.367188 3.3125 -11.203125 C 2.851562 -11.035156 2.335938 -10.722656 1.765625 -10.265625 L 1.015625 -11.234375 C 2.171875 -12.191406 3.425781 -12.671875 4.78125 -12.671875 C 5.945312 -12.671875 6.863281 -12.367188 7.53125 -11.765625 C 8.195312 -11.171875 8.53125 -10.363281 8.53125 -9.34375 C 8.53125 -8.550781 8.304688 -7.769531 7.859375 -7 C 7.421875 -6.226562 6.59375 -5.25 5.375 -4.0625 L 2.640625 -1.390625 L 2.640625 -1.3125 L 9.0625 -1.3125 Z M 9.0625 0 "/></g></g><g style="fill:#000000;fill-opacity:1;"><g transform="translate(380.673169, 156.587321)"><path style="stroke:none" d="M 9.140625 -6.265625 C 9.140625 -4.109375 8.796875 -2.492188 8.109375 -1.421875 C 7.429688 -0.359375 6.390625 0.171875 4.984375 0.171875 C 3.640625 0.171875 2.617188 -0.375 1.921875 -1.46875 C 1.222656 -2.5625 0.875 -4.160156 0.875 -6.265625 C 0.875 -8.441406 1.210938 -10.054688 1.890625 -11.109375 C 2.566406 -12.160156 3.597656 -12.6875 4.984375 -12.6875 C 6.347656 -12.6875 7.378906 -12.132812 8.078125 -11.03125 C 8.785156 -9.9375 9.140625 -8.347656 9.140625 -6.265625 Z M 2.3125 -6.265625 C 2.3125 -4.441406 2.523438 -3.113281 2.953125 -2.28125 C 3.378906 -1.457031 4.054688 -1.046875 4.984375 -1.046875 C 5.929688 -1.046875 6.617188 -1.46875 7.046875 -2.3125 C 7.472656 -3.15625 7.6875 -4.472656 7.6875 -6.265625 C 7.6875 -8.054688 7.472656 -9.367188 7.046875 -10.203125 C 6.617188 -11.035156 5.929688 -11.453125 4.984375 -11.453125 C 4.054688 -11.453125 3.378906 -11.039062 2.953125 -10.21875 C 2.523438 -9.394531 2.3125 -8.078125 2.3125 -6.265625 Z M 2.3125 -6.265625 "/></g></g><g style="fill:#000000;fill-opacity:1;"><g transform="translate(370.6649, 86.404253)"><path style="stroke:none" d="M 8.59375 -9.546875 C 8.59375 -8.753906 8.367188 -8.101562 7.921875 -7.59375 C 7.472656 -7.09375 6.84375 -6.753906 6.03125 -6.578125 L 6.03125 -6.515625 C 7.03125 -6.390625 7.769531 -6.066406 8.25 -5.546875 C 8.738281 -5.035156 8.984375 -4.363281 8.984375 -3.53125 C 8.984375 -2.34375 8.566406 -1.425781 7.734375 -0.78125 C 6.910156 -0.144531 5.738281 0.171875 4.21875 0.171875 C 3.5625 0.171875 2.957031 0.117188 2.40625 0.015625 C 1.851562 -0.078125 1.316406 -0.25 0.796875 -0.5 L 0.796875 -1.859375 C 1.335938 -1.585938 1.914062 -1.378906 2.53125 -1.234375 C 3.144531 -1.097656 3.722656 -1.03125 4.265625 -1.03125 C 6.429688 -1.03125 7.515625 -1.878906 7.515625 -3.578125 C 7.515625 -5.085938 6.320312 -5.84375 3.9375 -5.84375 L 2.703125 -5.84375 L 2.703125 -7.0625 L 3.953125 -7.0625 C 4.929688 -7.0625 5.703125 -7.273438 6.265625 -7.703125 C 6.835938 -8.140625 7.125 -8.738281 7.125 -9.5 C 7.125 -10.113281 6.914062 -10.59375 6.5 -10.9375 C 6.082031 -11.28125 5.515625 -11.453125 4.796875 -11.453125 C 4.242188 -11.453125 3.722656 -11.378906 3.234375 -11.234375 C 2.753906 -11.085938 2.207031 -10.816406 1.59375 -10.421875 L 0.875 -11.375 C 1.382812 -11.78125 1.972656 -12.097656 2.640625 -12.328125 C 3.316406 -12.554688 4.023438 -12.671875 4.765625 -12.671875 C 5.972656 -12.671875 6.910156 -12.390625 7.578125 -11.828125 C 8.253906 -11.273438 8.59375 -10.515625 8.59375 -9.546875 Z M 8.59375 -9.546875 "/></g></g><g style="fill:#000000;fill-opacity:1;"><g transform="translate(380.673169, 86.404253)"><path style="stroke:none" d="M 9.140625 -6.265625 C 9.140625 -4.109375 8.796875 -2.492188 8.109375 -1.421875 C 7.429688 -0.359375 6.390625 0.171875 4.984375 0.171875 C 3.640625 0.171875 2.617188 -0.375 1.921875 -1.46875 C 1.222656 -2.5625 0.875 -4.160156 0.875 -6.265625 C 0.875 -8.441406 1.210938 -10.054688 1.890625 -11.109375 C 2.566406 -12.160156 3.597656 -12.6875 4.984375 -12.6875 C 6.347656 -12.6875 7.378906 -12.132812 8.078125 -11.03125 C 8.785156 -9.9375 9.140625 -8.347656 9.140625 -6.265625 Z M 2.3125 -6.265625 C 2.3125 -4.441406 2.523438 -3.113281 2.953125 -2.28125 C 3.378906 -1.457031 4.054688 -1.046875 4.984375 -1.046875 C 5.929688 -1.046875 6.617188 -1.46875 7.046875 -2.3125 C 7.472656 -3.15625 7.6875 -4.472656 7.6875 -6.265625 C 7.6875 -8.054688 7.472656 -9.367188 7.046875 -10.203125 C 6.617188 -11.035156 5.929688 -11.453125 4.984375 -11.453125 C 4.054688 -11.453125 3.378906 -11.039062 2.953125 -10.21875 C 2.523438 -9.394531 2.3125 -8.078125 2.3125 -6.265625 Z M 2.3125 -6.265625 "/></g></g><g style="fill:#000000;fill-opacity:1;"><g transform="translate(356.18439, 26.622676)"><path style="stroke:none" d="M 8.6875 0 L 1.71875 0 L 1.71875 -12.5 L 8.6875 -12.5 L 8.6875 -11.203125 L 3.171875 -11.203125 L 3.171875 -7.171875 L 8.34375 -7.171875 L 8.34375 -5.890625 L 3.171875 -5.890625 L 3.171875 -1.296875 L 8.6875 -1.296875 Z M 8.6875 0 "/></g></g><g style="fill:#000000;fill-opacity:1;"><g transform="translate(365.919162, 26.622676)"><path style="stroke:none" d="M 7.90625 0 L 7.90625 -6.0625 C 7.90625 -6.820312 7.734375 -7.390625 7.390625 -7.765625 C 7.046875 -8.140625 6.503906 -8.328125 5.765625 -8.328125 C 4.785156 -8.328125 4.066406 -8.0625 3.609375 -7.53125 C 3.148438 -7 2.921875 -6.125 2.921875 -4.90625 L 2.921875 0 L 1.5 0 L 1.5 -9.359375 L 2.65625 -9.359375 L 2.890625 -8.078125 L 2.953125 -8.078125 C 3.242188 -8.546875 3.648438 -8.90625 4.171875 -9.15625 C 4.703125 -9.40625 5.289062 -9.53125 5.9375 -9.53125 C 7.0625 -9.53125 7.90625 -9.257812 8.46875 -8.71875 C 9.039062 -8.175781 9.328125 -7.304688 9.328125 -6.109375 L 9.328125 0 Z M 7.90625 0 "/></g></g><g style="fill:#000000;fill-opacity:1;"><g transform="translate(376.662453, 26.622676)"><path style="stroke:none" d="M 5.453125 0.171875 C 4.078125 0.171875 2.988281 -0.25 2.1875 -1.09375 C 1.382812 -1.9375 0.984375 -3.109375 0.984375 -4.609375 C 0.984375 -6.117188 1.351562 -7.316406 2.09375 -8.203125 C 2.84375 -9.085938 3.84375 -9.53125 5.09375 -9.53125 C 6.269531 -9.53125 7.195312 -9.144531 7.875 -8.375 C 8.5625 -7.601562 8.90625 -6.585938 8.90625 -5.328125 L 8.90625 -4.421875 L 2.453125 -4.421875 C 2.484375 -3.328125 2.757812 -2.492188 3.28125 -1.921875 C 3.8125 -1.347656 4.554688 -1.0625 5.515625 -1.0625 C 6.523438 -1.0625 7.519531 -1.273438 8.5 -1.703125 L 8.5 -0.4375 C 8 -0.21875 7.523438 -0.0625 7.078125 0.03125 C 6.628906 0.125 6.085938 0.171875 5.453125 0.171875 Z M 5.078125 -8.34375 C 4.328125 -8.34375 3.726562 -8.097656 3.28125 -7.609375 C 2.832031 -7.117188 2.566406 -6.441406 2.484375 -5.578125 L 7.390625 -5.578125 C 7.390625 -6.472656 7.1875 -7.15625 6.78125 -7.625 C 6.382812 -8.101562 5.816406 -8.34375 5.078125 -8.34375 Z M 5.078125 -8.34375 "/></g></g><g style="fill:#000000;fill-opacity:1;"><g transform="translate(386.482694, 26.622676)"><path style="stroke:none" d="M 5.78125 -9.53125 C 6.195312 -9.53125 6.566406 -9.5 6.890625 -9.4375 L 6.703125 -8.125 C 6.316406 -8.207031 5.972656 -8.25 5.671875 -8.25 C 4.910156 -8.25 4.257812 -7.941406 3.71875 -7.328125 C 3.1875 -6.710938 2.921875 -5.945312 2.921875 -5.03125 L 2.921875 0 L 1.5 0 L 1.5 -9.359375 L 2.671875 -9.359375 L 2.84375 -7.625 L 2.90625 -7.625 C 3.25 -8.238281 3.664062 -8.707031 4.15625 -9.03125 C 4.644531 -9.363281 5.1875 -9.53125 5.78125 -9.53125 Z M 5.78125 -9.53125 "/></g></g><g style="fill:#000000;fill-opacity:1;"><g transform="translate(393.62779, 26.622676)"><path style="stroke:none" d="M 9.59375 -4.6875 C 9.59375 -3.164062 9.207031 -1.972656 8.4375 -1.109375 C 7.664062 -0.253906 6.601562 0.171875 5.25 0.171875 C 4.40625 0.171875 3.660156 -0.0234375 3.015625 -0.421875 C 2.367188 -0.816406 1.867188 -1.378906 1.515625 -2.109375 C 1.160156 -2.847656 0.984375 -3.707031 0.984375 -4.6875 C 0.984375 -6.21875 1.363281 -7.40625 2.125 -8.25 C 2.882812 -9.101562 3.945312 -9.53125 5.3125 -9.53125 C 6.613281 -9.53125 7.648438 -9.09375 8.421875 -8.21875 C 9.203125 -7.351562 9.59375 -6.175781 9.59375 -4.6875 Z M 2.453125 -4.6875 C 2.453125 -3.488281 2.691406 -2.578125 3.171875 -1.953125 C 3.648438 -1.328125 4.351562 -1.015625 5.28125 -1.015625 C 6.207031 -1.015625 6.910156 -1.328125 7.390625 -1.953125 C 7.878906 -2.578125 8.125 -3.488281 8.125 -4.6875 C 8.125 -5.882812 7.878906 -6.789062 7.390625 -7.40625 C 6.910156 -8.019531 6.203125 -8.328125 5.265625 -8.328125 C 4.335938 -8.328125 3.632812 -8.019531 3.15625 -7.40625 C 2.6875 -6.800781 2.453125 -5.894531 2.453125 -4.6875 Z M 2.453125 -4.6875 "/></g></g><g style="fill:#000000;fill-opacity:1;"><g transform="translate(607.607736, 165.429188)"><path style="stroke:none" d="M 3.171875 0 L 1.71875 0 L 1.71875 -12.5 L 8.6875 -12.5 L 8.6875 -11.203125 L 3.171875 -11.203125 L 3.171875 -6.625 L 8.34375 -6.625 L 8.34375 -5.34375 L 3.171875 -5.34375 Z M 3.171875 0 "/></g></g><g style="fill:#000000;fill-opacity:1;"><g transform="translate(616.641674, 165.429188)"><path style="stroke:none" d="M 5.453125 0.171875 C 4.078125 0.171875 2.988281 -0.25 2.1875 -1.09375 C 1.382812 -1.9375 0.984375 -3.109375 0.984375 -4.609375 C 0.984375 -6.117188 1.351562 -7.316406 2.09375 -8.203125 C 2.84375 -9.085938 3.84375 -9.53125 5.09375 -9.53125 C 6.269531 -9.53125 7.195312 -9.144531 7.875 -8.375 C 8.5625 -7.601562 8.90625 -6.585938 8.90625 -5.328125 L 8.90625 -4.421875 L 2.453125 -4.421875 C 2.484375 -3.328125 2.757812 -2.492188 3.28125 -1.921875 C 3.8125 -1.347656 4.554688 -1.0625 5.515625 -1.0625 C 6.523438 -1.0625 7.519531 -1.273438 8.5 -1.703125 L 8.5 -0.4375 C 8 -0.21875 7.523438 -0.0625 7.078125 0.03125 C 6.628906 0.125 6.085938 0.171875 5.453125 0.171875 Z M 5.078125 -8.34375 C 4.328125 -8.34375 3.726562 -8.097656 3.28125 -7.609375 C 2.832031 -7.117188 2.566406 -6.441406 2.484375 -5.578125 L 7.390625 -5.578125 C 7.390625 -6.472656 7.1875 -7.15625 6.78125 -7.625 C 6.382812 -8.101562 5.816406 -8.34375 5.078125 -8.34375 Z M 5.078125 -8.34375 "/></g></g><g style="fill:#000000;fill-opacity:1;"><g transform="translate(626.461914, 165.429188)"><path style="stroke:none" d="M 5.859375 -9.515625 C 7.085938 -9.515625 8.039062 -9.09375 8.71875 -8.25 C 9.40625 -7.414062 9.75 -6.226562 9.75 -4.6875 C 9.75 -3.15625 9.40625 -1.960938 8.71875 -1.109375 C 8.03125 -0.253906 7.078125 0.171875 5.859375 0.171875 C 5.253906 0.171875 4.695312 0.0625 4.1875 -0.15625 C 3.6875 -0.382812 3.265625 -0.734375 2.921875 -1.203125 L 2.8125 -1.203125 L 2.515625 0 L 1.5 0 L 1.5 -13.296875 L 2.921875 -13.296875 L 2.921875 -10.0625 C 2.921875 -9.34375 2.898438 -8.695312 2.859375 -8.125 L 2.921875 -8.125 C 3.578125 -9.050781 4.554688 -9.515625 5.859375 -9.515625 Z M 5.65625 -8.328125 C 4.6875 -8.328125 3.988281 -8.050781 3.5625 -7.5 C 3.132812 -6.945312 2.921875 -6.007812 2.921875 -4.6875 C 2.921875 -3.375 3.140625 -2.429688 3.578125 -1.859375 C 4.015625 -1.296875 4.71875 -1.015625 5.6875 -1.015625 C 6.5625 -1.015625 7.210938 -1.332031 7.640625 -1.96875 C 8.066406 -2.601562 8.28125 -3.515625 8.28125 -4.703125 C 8.28125 -5.921875 8.066406 -6.828125 7.640625 -7.421875 C 7.210938 -8.023438 6.550781 -8.328125 5.65625 -8.328125 Z M 5.65625 -8.328125 "/></g></g><g style="fill:#000000;fill-opacity:1;"><g transform="translate(637.188112, 165.429188)"><path style="stroke:none" d="M 5.78125 -9.53125 C 6.195312 -9.53125 6.566406 -9.5 6.890625 -9.4375 L 6.703125 -8.125 C 6.316406 -8.207031 5.972656 -8.25 5.671875 -8.25 C 4.910156 -8.25 4.257812 -7.941406 3.71875 -7.328125 C 3.1875 -6.710938 2.921875 -5.945312 2.921875 -5.03125 L 2.921875 0 L 1.5 0 L 1.5 -9.359375 L 2.671875 -9.359375 L 2.84375 -7.625 L 2.90625 -7.625 C 3.25 -8.238281 3.664062 -8.707031 4.15625 -9.03125 C 4.644531 -9.363281 5.1875 -9.53125 5.78125 -9.53125 Z M 5.78125 -9.53125 "/></g></g><g style="fill:#000000;fill-opacity:1;"><g transform="translate(644.333208, 165.429188)"><path style="stroke:none" d="M 5.453125 0.171875 C 4.078125 0.171875 2.988281 -0.25 2.1875 -1.09375 C 1.382812 -1.9375 0.984375 -3.109375 0.984375 -4.609375 C 0.984375 -6.117188 1.351562 -7.316406 2.09375 -8.203125 C 2.84375 -9.085938 3.84375 -9.53125 5.09375 -9.53125 C 6.269531 -9.53125 7.195312 -9.144531 7.875 -8.375 C 8.5625 -7.601562 8.90625 -6.585938 8.90625 -5.328125 L 8.90625 -4.421875 L 2.453125 -4.421875 C 2.484375 -3.328125 2.757812 -2.492188 3.28125 -1.921875 C 3.8125 -1.347656 4.554688 -1.0625 5.515625 -1.0625 C 6.523438 -1.0625 7.519531 -1.273438 8.5 -1.703125 L 8.5 -0.4375 C 8 -0.21875 7.523438 -0.0625 7.078125 0.03125 C 6.628906 0.125 6.085938 0.171875 5.453125 0.171875 Z M 5.078125 -8.34375 C 4.328125 -8.34375 3.726562 -8.097656 3.28125 -7.609375 C 2.832031 -7.117188 2.566406 -6.441406 2.484375 -5.578125 L 7.390625 -5.578125 C 7.390625 -6.472656 7.1875 -7.15625 6.78125 -7.625 C 6.382812 -8.101562 5.816406 -8.34375 5.078125 -8.34375 Z M 5.078125 -8.34375 "/></g></g><g style="fill:#000000;fill-opacity:1;"><g transform="translate(654.153448, 165.429188)"><path style="stroke:none" d="M 5.78125 -9.53125 C 6.195312 -9.53125 6.566406 -9.5 6.890625 -9.4375 L 6.703125 -8.125 C 6.316406 -8.207031 5.972656 -8.25 5.671875 -8.25 C 4.910156 -8.25 4.257812 -7.941406 3.71875 -7.328125 C 3.1875 -6.710938 2.921875 -5.945312 2.921875 -5.03125 L 2.921875 0 L 1.5 0 L 1.5 -9.359375 L 2.671875 -9.359375 L 2.84375 -7.625 L 2.90625 -7.625 C 3.25 -8.238281 3.664062 -8.707031 4.15625 -9.03125 C 4.644531 -9.363281 5.1875 -9.53125 5.78125 -9.53125 Z M 5.78125 -9.53125 "/></g></g><g style="fill:#000000;fill-opacity:1;"><g transform="translate(661.298545, 165.429188)"><path style="stroke:none" d="M 9.59375 -4.6875 C 9.59375 -3.164062 9.207031 -1.972656 8.4375 -1.109375 C 7.664062 -0.253906 6.601562 0.171875 5.25 0.171875 C 4.40625 0.171875 3.660156 -0.0234375 3.015625 -0.421875 C 2.367188 -0.816406 1.867188 -1.378906 1.515625 -2.109375 C 1.160156 -2.847656 0.984375 -3.707031 0.984375 -4.6875 C 0.984375 -6.21875 1.363281 -7.40625 2.125 -8.25 C 2.882812 -9.101562 3.945312 -9.53125 5.3125 -9.53125 C 6.613281 -9.53125 7.648438 -9.09375 8.421875 -8.21875 C 9.203125 -7.351562 9.59375 -6.175781 9.59375 -4.6875 Z M 2.453125 -4.6875 C 2.453125 -3.488281 2.691406 -2.578125 3.171875 -1.953125 C 3.648438 -1.328125 4.351562 -1.015625 5.28125 -1.015625 C 6.207031 -1.015625 6.910156 -1.328125 7.390625 -1.953125 C 7.878906 -2.578125 8.125 -3.488281 8.125 -4.6875 C 8.125 -5.882812 7.878906 -6.789062 7.390625 -7.40625 C 6.910156 -8.019531 6.203125 -8.328125 5.265625 -8.328125 C 4.335938 -8.328125 3.632812 -8.019531 3.15625 -7.40625 C 2.6875 -6.800781 2.453125 -5.894531 2.453125 -4.6875 Z M 2.453125 -4.6875 "/></g></g><g style="fill:#000000;fill-opacity:1;"><g transform="translate(607.607736, 428.87363)"><path style="stroke:none" d="M 7.25 0 L 3.015625 -11.078125 L 2.9375 -11.078125 C 3.019531 -10.203125 3.0625 -9.160156 3.0625 -7.953125 L 3.0625 0 L 1.71875 0 L 1.71875 -12.5 L 3.90625 -12.5 L 7.859375 -2.1875 L 7.9375 -2.1875 L 11.921875 -12.5 L 14.09375 -12.5 L 14.09375 0 L 12.640625 0 L 12.640625 -8.046875 C 12.640625 -8.972656 12.675781 -9.976562 12.75 -11.0625 L 12.6875 -11.0625 L 8.421875 0 Z M 7.25 0 "/></g></g><g style="fill:#000000;fill-opacity:1;"><g transform="translate(623.410713, 428.87363)"><path style="stroke:none" d="M 7.265625 0 L 6.984375 -1.328125 L 6.90625 -1.328125 C 6.445312 -0.742188 5.984375 -0.347656 5.515625 -0.140625 C 5.046875 0.0664062 4.46875 0.171875 3.78125 0.171875 C 2.851562 0.171875 2.125 -0.0664062 1.59375 -0.546875 C 1.0625 -1.023438 0.796875 -1.707031 0.796875 -2.59375 C 0.796875 -4.476562 2.3125 -5.46875 5.34375 -5.5625 L 6.9375 -5.609375 L 6.9375 -6.1875 C 6.9375 -6.925781 6.773438 -7.46875 6.453125 -7.8125 C 6.140625 -8.164062 5.632812 -8.34375 4.9375 -8.34375 C 4.15625 -8.34375 3.273438 -8.101562 2.296875 -7.625 L 1.859375 -8.71875 C 2.316406 -8.96875 2.820312 -9.160156 3.375 -9.296875 C 3.925781 -9.441406 4.476562 -9.515625 5.03125 -9.515625 C 6.144531 -9.515625 6.96875 -9.265625 7.5 -8.765625 C 8.039062 -8.273438 8.3125 -7.484375 8.3125 -6.390625 L 8.3125 0 Z M 4.0625 -1 C 4.945312 -1 5.640625 -1.238281 6.140625 -1.71875 C 6.640625 -2.207031 6.890625 -2.890625 6.890625 -3.765625 L 6.890625 -4.609375 L 5.484375 -4.546875 C 4.347656 -4.503906 3.53125 -4.328125 3.03125 -4.015625 C 2.539062 -3.710938 2.296875 -3.234375 2.296875 -2.578125 C 2.296875 -2.054688 2.445312 -1.660156 2.75 -1.390625 C 3.0625 -1.128906 3.5 -1 4.0625 -1 Z M 4.0625 -1 "/></g></g><g style="fill:#000000;fill-opacity:1;"><g transform="translate(633.145486, 428.87363)"><path style="stroke:none" d="M 5.78125 -9.53125 C 6.195312 -9.53125 6.566406 -9.5 6.890625 -9.4375 L 6.703125 -8.125 C 6.316406 -8.207031 5.972656 -8.25 5.671875 -8.25 C 4.910156 -8.25 4.257812 -7.941406 3.71875 -7.328125 C 3.1875 -6.710938 2.921875 -5.945312 2.921875 -5.03125 L 2.921875 0 L 1.5 0 L 1.5 -9.359375 L 2.671875 -9.359375 L 2.84375 -7.625 L 2.90625 -7.625 C 3.25 -8.238281 3.664062 -8.707031 4.15625 -9.03125 C 4.644531 -9.363281 5.1875 -9.53125 5.78125 -9.53125 Z M 5.78125 -9.53125 "/></g></g><g style="fill:#000000;fill-opacity:1;"><g transform="translate(640.290582, 428.87363)"><path style="stroke:none" d="M 7.5 0 L 0.703125 0 L 0.703125 -0.96875 L 5.8125 -8.265625 L 1.015625 -8.265625 L 1.015625 -9.359375 L 7.359375 -9.359375 L 7.359375 -8.265625 L 2.328125 -1.109375 L 7.5 -1.109375 Z M 7.5 0 "/></g></g><g style="fill:#000000;fill-opacity:1;"><g transform="translate(648.478384, 428.87363)"><path style="stroke:none" d="M 9.59375 -4.6875 C 9.59375 -3.164062 9.207031 -1.972656 8.4375 -1.109375 C 7.664062 -0.253906 6.601562 0.171875 5.25 0.171875 C 4.40625 0.171875 3.660156 -0.0234375 3.015625 -0.421875 C 2.367188 -0.816406 1.867188 -1.378906 1.515625 -2.109375 C 1.160156 -2.847656 0.984375 -3.707031 0.984375 -4.6875 C 0.984375 -6.21875 1.363281 -7.40625 2.125 -8.25 C 2.882812 -9.101562 3.945312 -9.53125 5.3125 -9.53125 C 6.613281 -9.53125 7.648438 -9.09375 8.421875 -8.21875 C 9.203125 -7.351562 9.59375 -6.175781 9.59375 -4.6875 Z M 2.453125 -4.6875 C 2.453125 -3.488281 2.691406 -2.578125 3.171875 -1.953125 C 3.648438 -1.328125 4.351562 -1.015625 5.28125 -1.015625 C 6.207031 -1.015625 6.910156 -1.328125 7.390625 -1.953125 C 7.878906 -2.578125 8.125 -3.488281 8.125 -4.6875 C 8.125 -5.882812 7.878906 -6.789062 7.390625 -7.40625 C 6.910156 -8.019531 6.203125 -8.328125 5.265625 -8.328125 C 4.335938 -8.328125 3.632812 -8.019531 3.15625 -7.40625 C 2.6875 -6.800781 2.453125 -5.894531 2.453125 -4.6875 Z M 2.453125 -4.6875 "/></g></g><g style="fill:#000000;fill-opacity:1;"><g transform="translate(362.434886, 568.076051)"><path style="stroke:none" d="M 9.578125 0 L 8.015625 -3.96875 L 3.015625 -3.96875 L 1.46875 0 L 0 0 L 4.9375 -12.546875 L 6.15625 -12.546875 L 11.078125 0 Z M 7.5625 -5.28125 L 6.109375 -9.15625 C 5.921875 -9.644531 5.726562 -10.242188 5.53125 -10.953125 C 5.40625 -10.410156 5.222656 -9.8125 4.984375 -9.15625 L 3.515625 -5.28125 Z M 7.5625 -5.28125 "/></g></g><g style="fill:#000000;fill-opacity:1;"><g transform="translate(373.511495, 568.076051)"><path style="stroke:none" d="M 5.859375 -9.515625 C 7.085938 -9.515625 8.039062 -9.09375 8.71875 -8.25 C 9.40625 -7.414062 9.75 -6.226562 9.75 -4.6875 C 9.75 -3.15625 9.40625 -1.960938 8.71875 -1.109375 C 8.03125 -0.253906 7.078125 0.171875 5.859375 0.171875 C 5.253906 0.171875 4.695312 0.0625 4.1875 -0.15625 C 3.6875 -0.382812 3.265625 -0.734375 2.921875 -1.203125 L 2.8125 -1.203125 L 2.515625 0 L 1.5 0 L 1.5 -13.296875 L 2.921875 -13.296875 L 2.921875 -10.0625 C 2.921875 -9.34375 2.898438 -8.695312 2.859375 -8.125 L 2.921875 -8.125 C 3.578125 -9.050781 4.554688 -9.515625 5.859375 -9.515625 Z M 5.65625 -8.328125 C 4.6875 -8.328125 3.988281 -8.050781 3.5625 -7.5 C 3.132812 -6.945312 2.921875 -6.007812 2.921875 -4.6875 C 2.921875 -3.375 3.140625 -2.429688 3.578125 -1.859375 C 4.015625 -1.296875 4.71875 -1.015625 5.6875 -1.015625 C 6.5625 -1.015625 7.210938 -1.332031 7.640625 -1.96875 C 8.066406 -2.601562 8.28125 -3.515625 8.28125 -4.703125 C 8.28125 -5.921875 8.066406 -6.828125 7.640625 -7.421875 C 7.210938 -8.023438 6.550781 -8.328125 5.65625 -8.328125 Z M 5.65625 -8.328125 "/></g></g><g style="fill:#000000;fill-opacity:1;"><g transform="translate(384.237692, 568.076051)"><path style="stroke:none" d="M 5.78125 -9.53125 C 6.195312 -9.53125 6.566406 -9.5 6.890625 -9.4375 L 6.703125 -8.125 C 6.316406 -8.207031 5.972656 -8.25 5.671875 -8.25 C 4.910156 -8.25 4.257812 -7.941406 3.71875 -7.328125 C 3.1875 -6.710938 2.921875 -5.945312 2.921875 -5.03125 L 2.921875 0 L 1.5 0 L 1.5 -9.359375 L 2.671875 -9.359375 L 2.84375 -7.625 L 2.90625 -7.625 C 3.25 -8.238281 3.664062 -8.707031 4.15625 -9.03125 C 4.644531 -9.363281 5.1875 -9.53125 5.78125 -9.53125 Z M 5.78125 -9.53125 "/></g></g><g style="fill:#000000;fill-opacity:1;"><g transform="translate(391.382789, 568.076051)"><path style="stroke:none" d="M 2.921875 0 L 1.5 0 L 1.5 -9.359375 L 2.921875 -9.359375 Z M 1.390625 -11.90625 C 1.390625 -12.226562 1.46875 -12.460938 1.625 -12.609375 C 1.78125 -12.765625 1.976562 -12.84375 2.21875 -12.84375 C 2.445312 -12.84375 2.644531 -12.765625 2.8125 -12.609375 C 2.976562 -12.453125 3.0625 -12.21875 3.0625 -11.90625 C 3.0625 -11.582031 2.976562 -11.34375 2.8125 -11.1875 C 2.644531 -11.03125 2.445312 -10.953125 2.21875 -10.953125 C 1.976562 -10.953125 1.78125 -11.03125 1.625 -11.1875 C 1.46875 -11.34375 1.390625 -11.582031 1.390625 -11.90625 Z M 1.390625 -11.90625 "/></g></g><g style="fill:#000000;fill-opacity:1;"><g transform="translate(395.810013, 568.076051)"><path style="stroke:none" d="M 2.921875 0 L 1.5 0 L 1.5 -13.296875 L 2.921875 -13.296875 Z M 2.921875 0 "/></g></g><g style="fill:#000000;fill-opacity:1;"><g transform="translate(107.844303, 426.570186)"><path style="stroke:none" d="M 7.25 0 L 3.015625 -11.078125 L 2.9375 -11.078125 C 3.019531 -10.203125 3.0625 -9.160156 3.0625 -7.953125 L 3.0625 0 L 1.71875 0 L 1.71875 -12.5 L 3.90625 -12.5 L 7.859375 -2.1875 L 7.9375 -2.1875 L 11.921875 -12.5 L 14.09375 -12.5 L 14.09375 0 L 12.640625 0 L 12.640625 -8.046875 C 12.640625 -8.972656 12.675781 -9.976562 12.75 -11.0625 L 12.6875 -11.0625 L 8.421875 0 Z M 7.25 0 "/></g></g><g style="fill:#000000;fill-opacity:1;"><g transform="translate(123.64728, 426.570186)"><path style="stroke:none" d="M 7.265625 0 L 6.984375 -1.328125 L 6.90625 -1.328125 C 6.445312 -0.742188 5.984375 -0.347656 5.515625 -0.140625 C 5.046875 0.0664062 4.46875 0.171875 3.78125 0.171875 C 2.851562 0.171875 2.125 -0.0664062 1.59375 -0.546875 C 1.0625 -1.023438 0.796875 -1.707031 0.796875 -2.59375 C 0.796875 -4.476562 2.3125 -5.46875 5.34375 -5.5625 L 6.9375 -5.609375 L 6.9375 -6.1875 C 6.9375 -6.925781 6.773438 -7.46875 6.453125 -7.8125 C 6.140625 -8.164062 5.632812 -8.34375 4.9375 -8.34375 C 4.15625 -8.34375 3.273438 -8.101562 2.296875 -7.625 L 1.859375 -8.71875 C 2.316406 -8.96875 2.820312 -9.160156 3.375 -9.296875 C 3.925781 -9.441406 4.476562 -9.515625 5.03125 -9.515625 C 6.144531 -9.515625 6.96875 -9.265625 7.5 -8.765625 C 8.039062 -8.273438 8.3125 -7.484375 8.3125 -6.390625 L 8.3125 0 Z M 4.0625 -1 C 4.945312 -1 5.640625 -1.238281 6.140625 -1.71875 C 6.640625 -2.207031 6.890625 -2.890625 6.890625 -3.765625 L 6.890625 -4.609375 L 5.484375 -4.546875 C 4.347656 -4.503906 3.53125 -4.328125 3.03125 -4.015625 C 2.539062 -3.710938 2.296875 -3.234375 2.296875 -2.578125 C 2.296875 -2.054688 2.445312 -1.660156 2.75 -1.390625 C 3.0625 -1.128906 3.5 -1 4.0625 -1 Z M 4.0625 -1 "/></g></g><g style="fill:#000000;fill-opacity:1;"><g transform="translate(133.382053, 426.570186)"><path style="stroke:none" d="M 0.015625 -9.359375 L 1.53125 -9.359375 L 3.59375 -4.03125 C 4.039062 -2.8125 4.316406 -1.929688 4.421875 -1.390625 L 4.5 -1.390625 C 4.570312 -1.671875 4.722656 -2.164062 4.953125 -2.875 C 5.191406 -3.582031 5.96875 -5.742188 7.28125 -9.359375 L 8.796875 -9.359375 L 4.78125 1.296875 C 4.375 2.347656 3.90625 3.09375 3.375 3.53125 C 2.84375 3.976562 2.191406 4.203125 1.421875 4.203125 C 0.984375 4.203125 0.554688 4.15625 0.140625 4.0625 L 0.140625 2.921875 C 0.453125 2.992188 0.800781 3.03125 1.1875 3.03125 C 2.164062 3.03125 2.859375 2.484375 3.265625 1.390625 L 3.796875 0.046875 Z M 0.015625 -9.359375 "/></g></g><g style="fill:#000000;fill-opacity:1;"><g transform="translate(142.202315, 426.570186)"><path style="stroke:none" d="M 9.59375 -4.6875 C 9.59375 -3.164062 9.207031 -1.972656 8.4375 -1.109375 C 7.664062 -0.253906 6.601562 0.171875 5.25 0.171875 C 4.40625 0.171875 3.660156 -0.0234375 3.015625 -0.421875 C 2.367188 -0.816406 1.867188 -1.378906 1.515625 -2.109375 C 1.160156 -2.847656 0.984375 -3.707031 0.984375 -4.6875 C 0.984375 -6.21875 1.363281 -7.40625 2.125 -8.25 C 2.882812 -9.101562 3.945312 -9.53125 5.3125 -9.53125 C 6.613281 -9.53125 7.648438 -9.09375 8.421875 -8.21875 C 9.203125 -7.351562 9.59375 -6.175781 9.59375 -4.6875 Z M 2.453125 -4.6875 C 2.453125 -3.488281 2.691406 -2.578125 3.171875 -1.953125 C 3.648438 -1.328125 4.351562 -1.015625 5.28125 -1.015625 C 6.207031 -1.015625 6.910156 -1.328125 7.390625 -1.953125 C 7.878906 -2.578125 8.125 -3.488281 8.125 -4.6875 C 8.125 -5.882812 7.878906 -6.789062 7.390625 -7.40625 C 6.910156 -8.019531 6.203125 -8.328125 5.265625 -8.328125 C 4.335938 -8.328125 3.632812 -8.019531 3.15625 -7.40625 C 2.6875 -6.800781 2.453125 -5.894531 2.453125 -4.6875 Z M 2.453125 -4.6875 "/></g></g><g style="fill:#000000;fill-opacity:1;"><g transform="translate(111.623392, 163.125744)"><path style="stroke:none" d="M -0.109375 3.296875 C -0.640625 3.296875 -1.0625 3.21875 -1.375 3.0625 L -1.375 1.8125 C -0.96875 1.925781 -0.546875 1.984375 -0.109375 1.984375 C 0.460938 1.984375 0.894531 1.8125 1.1875 1.46875 C 1.476562 1.132812 1.625 0.644531 1.625 0 L 1.625 -12.5 L 3.078125 -12.5 L 3.078125 -0.125 C 3.078125 0.957031 2.800781 1.796875 2.25 2.390625 C 1.707031 2.992188 0.921875 3.296875 -0.109375 3.296875 Z M -0.109375 3.296875 "/></g></g><g style="fill:#000000;fill-opacity:1;"><g transform="translate(116.298479, 163.125744)"><path style="stroke:none" d="M 2.84375 -9.359375 L 2.84375 -3.296875 C 2.84375 -2.523438 3.015625 -1.953125 3.359375 -1.578125 C 3.703125 -1.203125 4.242188 -1.015625 4.984375 -1.015625 C 5.960938 -1.015625 6.675781 -1.28125 7.125 -1.8125 C 7.582031 -2.351562 7.8125 -3.226562 7.8125 -4.4375 L 7.8125 -9.359375 L 9.234375 -9.359375 L 9.234375 0 L 8.0625 0 L 7.859375 -1.25 L 7.78125 -1.25 C 7.488281 -0.789062 7.082031 -0.4375 6.5625 -0.1875 C 6.050781 0.0507812 5.46875 0.171875 4.8125 0.171875 C 3.675781 0.171875 2.820312 -0.0976562 2.25 -0.640625 C 1.6875 -1.179688 1.40625 -2.046875 1.40625 -3.234375 L 1.40625 -9.359375 Z M 2.84375 -9.359375 "/></g></g><g style="fill:#000000;fill-opacity:1;"><g transform="translate(127.04177, 163.125744)"><path style="stroke:none" d="M 7.90625 0 L 7.90625 -6.0625 C 7.90625 -6.820312 7.734375 -7.390625 7.390625 -7.765625 C 7.046875 -8.140625 6.503906 -8.328125 5.765625 -8.328125 C 4.785156 -8.328125 4.066406 -8.0625 3.609375 -7.53125 C 3.148438 -7 2.921875 -6.125 2.921875 -4.90625 L 2.921875 0 L 1.5 0 L 1.5 -9.359375 L 2.65625 -9.359375 L 2.890625 -8.078125 L 2.953125 -8.078125 C 3.242188 -8.546875 3.648438 -8.90625 4.171875 -9.15625 C 4.703125 -9.40625 5.289062 -9.53125 5.9375 -9.53125 C 7.0625 -9.53125 7.90625 -9.257812 8.46875 -8.71875 C 9.039062 -8.175781 9.328125 -7.304688 9.328125 -6.109375 L 9.328125 0 Z M 7.90625 0 "/></g></g><g style="fill:#000000;fill-opacity:1;"><g transform="translate(137.78506, 163.125744)"><path style="stroke:none" d="M 2.921875 0 L 1.5 0 L 1.5 -9.359375 L 2.921875 -9.359375 Z M 1.390625 -11.90625 C 1.390625 -12.226562 1.46875 -12.460938 1.625 -12.609375 C 1.78125 -12.765625 1.976562 -12.84375 2.21875 -12.84375 C 2.445312 -12.84375 2.644531 -12.765625 2.8125 -12.609375 C 2.976562 -12.453125 3.0625 -12.21875 3.0625 -11.90625 C 3.0625 -11.582031 2.976562 -11.34375 2.8125 -11.1875 C 2.644531 -11.03125 2.445312 -10.953125 2.21875 -10.953125 C 1.976562 -10.953125 1.78125 -11.03125 1.625 -11.1875 C 1.46875 -11.34375 1.390625 -11.582031 1.390625 -11.90625 Z M 1.390625 -11.90625 "/></g></g><g style="fill:#000000;fill-opacity:1;"><g transform="translate(142.212285, 163.125744)"><path style="stroke:none" d="M 9.59375 -4.6875 C 9.59375 -3.164062 9.207031 -1.972656 8.4375 -1.109375 C 7.664062 -0.253906 6.601562 0.171875 5.25 0.171875 C 4.40625 0.171875 3.660156 -0.0234375 3.015625 -0.421875 C 2.367188 -0.816406 1.867188 -1.378906 1.515625 -2.109375 C 1.160156 -2.847656 0.984375 -3.707031 0.984375 -4.6875 C 0.984375 -6.21875 1.363281 -7.40625 2.125 -8.25 C 2.882812 -9.101562 3.945312 -9.53125 5.3125 -9.53125 C 6.613281 -9.53125 7.648438 -9.09375 8.421875 -8.21875 C 9.203125 -7.351562 9.59375 -6.175781 9.59375 -4.6875 Z M 2.453125 -4.6875 C 2.453125 -3.488281 2.691406 -2.578125 3.171875 -1.953125 C 3.648438 -1.328125 4.351562 -1.015625 5.28125 -1.015625 C 6.207031 -1.015625 6.910156 -1.328125 7.390625 -1.953125 C 7.878906 -2.578125 8.125 -3.488281 8.125 -4.6875 C 8.125 -5.882812 7.878906 -6.789062 7.390625 -7.40625 C 6.910156 -8.019531 6.203125 -8.328125 5.265625 -8.328125 C 4.335938 -8.328125 3.632812 -8.019531 3.15625 -7.40625 C 2.6875 -6.800781 2.453125 -5.894531 2.453125 -4.6875 Z M 2.453125 -4.6875 "/></g></g></g></svg>