<svg xmlns="http://www.w3.org/2000/svg" xmlns:xlink="http://www.w3.org/1999/xlink" width="1024" zoomAndPan="magnify" viewBox="0 0 768 576" height="768" preserveAspectRatio="xMidYMid meet" version="1.2"><defs/><g id="22a68c358f"><path style=" stroke:none;fill-rule:nonzero;fill:#a9e8f9;fill-opacity:1;" d="M 357.210938 55.292969 C 366.695312 55.292969 376.144531 55.863281 385.558594 57.007812 C 394.972656 58.148438 404.285156 59.855469 413.496094 62.125 C 422.703125 64.394531 431.742188 67.210938 440.609375 70.574219 C 449.476562 73.9375 458.113281 77.824219 466.507812 82.230469 L 357.210938 290.484375 Z M 357.210938 55.292969 "/><path style=" stroke:none;fill-rule:nonzero;fill:#384ea2;fill-opacity:1;" d="M 466.507812 82.230469 C 469.132812 83.605469 471.726562 85.03125 474.292969 86.507812 C 476.859375 87.980469 479.398438 89.5 481.910156 91.070312 C 484.421875 92.640625 486.898438 94.257812 489.347656 95.921875 C 491.796875 97.585938 494.214844 99.292969 496.601562 101.046875 C 498.984375 102.800781 501.335938 104.601562 503.652344 106.445312 C 505.96875 108.289062 508.25 110.175781 510.496094 112.105469 C 512.742188 114.035156 514.949219 116.003906 517.121094 118.019531 C 519.289062 120.03125 521.421875 122.085938 523.515625 124.179688 C 525.609375 126.269531 527.664062 128.402344 529.675781 130.574219 C 531.6875 132.746094 533.660156 134.953125 535.589844 137.199219 C 537.519531 139.445312 539.40625 141.726562 541.25 144.042969 C 543.09375 146.359375 544.890625 148.710938 546.644531 151.09375 C 548.402344 153.480469 550.109375 155.894531 551.773438 158.34375 C 553.4375 160.792969 555.054688 163.273438 556.621094 165.785156 C 558.191406 168.292969 559.714844 170.832031 561.1875 173.402344 C 562.664062 175.96875 564.085938 178.5625 565.460938 181.183594 C 566.839844 183.804688 568.164062 186.453125 569.441406 189.125 C 570.714844 191.796875 571.941406 194.492188 573.117188 197.207031 C 574.289062 199.925781 575.414062 202.664062 576.484375 205.425781 C 577.554688 208.1875 578.570312 210.964844 579.539062 213.765625 C 580.503906 216.5625 581.417969 219.378906 582.277344 222.210938 C 583.136719 225.042969 583.941406 227.894531 584.691406 230.757812 C 585.445312 233.621094 586.140625 236.496094 586.785156 239.386719 C 587.429688 242.277344 588.015625 245.175781 588.550781 248.089844 C 589.082031 251 589.5625 253.921875 589.984375 256.851562 C 590.410156 259.785156 590.777344 262.71875 591.089844 265.664062 C 591.402344 268.609375 591.660156 271.558594 591.859375 274.511719 C 592.0625 277.464844 592.207031 280.421875 592.296875 283.378906 C 592.386719 286.339844 592.417969 289.300781 592.394531 292.261719 C 592.375 295.222656 592.296875 298.179688 592.160156 301.136719 C 592.027344 304.09375 591.835938 307.050781 591.589844 310 C 591.347656 312.949219 591.042969 315.894531 590.6875 318.832031 C 590.332031 321.773438 589.917969 324.703125 589.453125 327.628906 C 588.984375 330.550781 588.460938 333.464844 587.882812 336.367188 C 587.304688 339.273438 586.671875 342.164062 585.988281 345.042969 C 585.300781 347.921875 584.558594 350.789062 583.765625 353.640625 C 582.96875 356.492188 582.121094 359.328125 581.21875 362.148438 C 580.316406 364.96875 579.363281 367.769531 578.355469 370.554688 C 577.34375 373.335938 576.285156 376.101562 575.171875 378.84375 C 574.0625 381.589844 572.898438 384.3125 571.683594 387.011719 C 570.46875 389.710938 569.203125 392.386719 567.886719 395.039062 C 566.570312 397.691406 565.203125 400.316406 563.789062 402.917969 C 562.371094 405.515625 560.910156 408.089844 559.398438 410.636719 C 557.882812 413.179688 556.324219 415.695312 554.71875 418.183594 C 553.109375 420.667969 551.457031 423.125 549.753906 425.546875 C 548.054688 427.972656 546.308594 430.363281 544.519531 432.71875 C 542.730469 435.078125 540.894531 437.402344 539.015625 439.6875 C 537.136719 441.976562 535.21875 444.230469 533.253906 446.445312 C 531.292969 448.664062 529.285156 450.839844 527.242188 452.980469 C 525.195312 455.121094 523.109375 457.222656 520.984375 459.285156 C 518.859375 461.34375 516.699219 463.367188 514.496094 465.347656 C 512.296875 467.324219 510.058594 469.261719 507.785156 471.160156 C 505.507812 473.054688 503.199219 474.90625 500.855469 476.714844 C 498.511719 478.523438 496.132812 480.285156 493.722656 482.003906 C 491.3125 483.722656 488.871094 485.394531 486.394531 487.019531 C 483.921875 488.648438 481.417969 490.226562 478.882812 491.757812 C 476.351562 493.289062 473.789062 494.773438 471.199219 496.207031 C 468.609375 497.644531 465.992188 499.027344 463.351562 500.363281 C 460.710938 501.699219 458.042969 502.984375 455.351562 504.222656 C 452.664062 505.457031 449.949219 506.640625 447.214844 507.773438 C 444.480469 508.90625 441.722656 509.988281 438.949219 511.015625 C 436.171875 512.046875 433.375 513.023438 430.5625 513.945312 C 427.75 514.867188 424.921875 515.738281 422.074219 516.554688 C 419.230469 517.371094 416.371094 518.132812 413.496094 518.84375 L 357.210938 290.484375 Z M 466.507812 82.230469 "/><path style=" stroke:none;fill-rule:nonzero;fill:#564d74;fill-opacity:1;" d="M 413.496094 518.84375 C 410.621094 519.550781 407.734375 520.207031 404.835938 520.804688 C 401.933594 521.40625 399.027344 521.949219 396.105469 522.4375 C 393.1875 522.929688 390.257812 523.363281 387.320312 523.742188 C 384.386719 524.121094 381.441406 524.445312 378.496094 524.710938 C 375.546875 524.980469 372.59375 525.191406 369.636719 525.347656 C 366.679688 525.503906 363.722656 525.605469 360.761719 525.652344 C 357.800781 525.695312 354.839844 525.683594 351.882812 525.617188 C 348.921875 525.550781 345.964844 525.425781 343.007812 525.25 C 340.054688 525.070312 337.101562 524.835938 334.15625 524.542969 C 331.210938 524.253906 328.269531 523.910156 325.335938 523.507812 C 322.402344 523.105469 319.480469 522.648438 316.5625 522.136719 C 313.648438 521.625 310.742188 521.058594 307.847656 520.4375 C 304.953125 519.816406 302.070312 519.140625 299.203125 518.410156 C 296.332031 517.679688 293.476562 516.898438 290.636719 516.058594 C 287.800781 515.222656 284.976562 514.328125 282.171875 513.386719 C 279.363281 512.441406 276.578125 511.445312 273.808594 510.394531 C 271.042969 509.34375 268.292969 508.242188 265.566406 507.089844 C 262.839844 505.933594 260.136719 504.730469 257.457031 503.472656 C 254.773438 502.21875 252.117188 500.914062 249.484375 499.558594 C 246.855469 498.199219 244.25 496.796875 241.671875 495.339844 C 239.089844 493.886719 236.542969 492.382812 234.019531 490.832031 C 231.496094 489.28125 229.003906 487.683594 226.542969 486.039062 C 224.082031 484.394531 221.652344 482.703125 219.253906 480.96875 C 216.855469 479.230469 214.492188 477.449219 212.160156 475.625 C 209.832031 473.796875 207.535156 471.929688 205.277344 470.015625 C 203.015625 468.105469 200.792969 466.148438 198.605469 464.152344 C 196.421875 462.15625 194.273438 460.121094 192.164062 458.042969 C 190.054688 455.964844 187.984375 453.847656 185.957031 451.691406 C 183.925781 449.535156 181.9375 447.34375 179.992188 445.113281 C 178.046875 442.882812 176.140625 440.613281 174.28125 438.3125 C 172.421875 436.007812 170.605469 433.671875 168.832031 431.300781 C 167.058594 428.929688 165.332031 426.527344 163.648438 424.089844 L 357.210938 290.484375 Z M 413.496094 518.84375 "/><path style=" stroke:none;fill-rule:nonzero;fill:#f49225;fill-opacity:1;" d="M 163.648438 424.089844 C 160.621094 419.703125 157.746094 415.21875 155.023438 410.636719 C 152.300781 406.054688 149.734375 401.382812 147.332031 396.628906 C 144.925781 391.871094 142.683594 387.039062 140.605469 382.128906 C 138.53125 377.21875 136.621094 372.246094 134.882812 367.207031 C 133.144531 362.167969 131.578125 357.078125 130.1875 351.933594 C 128.792969 346.785156 127.578125 341.601562 126.535156 336.371094 C 125.496094 331.144531 124.636719 325.886719 123.953125 320.601562 C 123.269531 315.316406 122.769531 310.011719 122.445312 304.691406 C 122.125 299.371094 121.984375 294.046875 122.023438 288.714844 C 122.0625 283.382812 122.285156 278.0625 122.6875 272.746094 C 123.089844 267.433594 123.671875 262.136719 124.433594 256.859375 C 125.195312 251.585938 126.136719 246.34375 127.253906 241.128906 C 128.371094 235.917969 129.667969 230.75 131.136719 225.628906 C 132.605469 220.503906 134.25 215.4375 136.0625 210.425781 C 137.878906 205.414062 139.859375 200.46875 142.011719 195.589844 C 144.160156 190.714844 146.472656 185.914062 148.953125 181.195312 C 151.429688 176.476562 154.0625 171.84375 156.855469 167.304688 C 159.644531 162.761719 162.589844 158.324219 165.683594 153.980469 C 168.777344 149.640625 172.011719 145.410156 175.394531 141.289062 C 178.777344 137.167969 182.292969 133.167969 185.945312 129.289062 C 189.597656 125.40625 193.378906 121.652344 197.289062 118.027344 C 201.195312 114.40625 205.222656 110.917969 209.371094 107.566406 C 213.515625 104.214844 217.769531 101.011719 222.132812 97.949219 C 226.496094 94.886719 230.960938 91.976562 235.519531 89.21875 C 240.082031 86.460938 244.730469 83.863281 249.46875 81.421875 C 254.207031 78.980469 259.023438 76.699219 263.917969 74.585938 C 268.808594 72.472656 273.769531 70.527344 278.792969 68.75 C 283.820312 66.972656 288.898438 65.367188 294.035156 63.933594 C 299.167969 62.503906 304.34375 61.246094 309.5625 60.167969 C 314.785156 59.089844 320.035156 58.1875 325.316406 57.464844 C 330.597656 56.742188 335.894531 56.199219 341.214844 55.835938 C 346.53125 55.472656 351.855469 55.292969 357.1875 55.292969 L 357.210938 290.484375 Z M 163.648438 424.089844 "/><g style="fill:#000000;fill-opacity:1;"><g transform="translate(599.79018, 320.488135)"><path style="stroke:none" d="M 6.765625 -10.890625 C 5.453125 -10.890625 4.414062 -10.453125 3.65625 -9.578125 C 2.894531 -8.703125 2.515625 -7.503906 2.515625 -5.984375 C 2.515625 -4.421875 2.878906 -3.210938 3.609375 -2.359375 C 4.347656 -1.503906 5.394531 -1.078125 6.75 -1.078125 C 7.582031 -1.078125 8.535156 -1.222656 9.609375 -1.515625 L 9.609375 -0.296875 C 8.773438 0.00390625 7.753906 0.15625 6.546875 0.15625 C 4.773438 0.15625 3.410156 -0.375 2.453125 -1.4375 C 1.492188 -2.507812 1.015625 -4.03125 1.015625 -6 C 1.015625 -7.226562 1.242188 -8.304688 1.703125 -9.234375 C 2.171875 -10.171875 2.835938 -10.890625 3.703125 -11.390625 C 4.578125 -11.890625 5.601562 -12.140625 6.78125 -12.140625 C 8.039062 -12.140625 9.140625 -11.910156 10.078125 -11.453125 L 9.484375 -10.25 C 8.578125 -10.675781 7.671875 -10.890625 6.765625 -10.890625 Z M 6.765625 -10.890625 "/></g></g><g style="fill:#000000;fill-opacity:1;"><g transform="translate(610.362996, 320.488135)"><path style="stroke:none" d="M 9.1875 -4.5 C 9.1875 -3.03125 8.816406 -1.882812 8.078125 -1.0625 C 7.335938 -0.25 6.320312 0.15625 5.03125 0.15625 C 4.226562 0.15625 3.515625 -0.03125 2.890625 -0.40625 C 2.265625 -0.78125 1.78125 -1.316406 1.4375 -2.015625 C 1.101562 -2.722656 0.9375 -3.550781 0.9375 -4.5 C 0.9375 -5.957031 1.300781 -7.09375 2.03125 -7.90625 C 2.769531 -8.726562 3.785156 -9.140625 5.078125 -9.140625 C 6.335938 -9.140625 7.335938 -8.71875 8.078125 -7.875 C 8.816406 -7.039062 9.1875 -5.914062 9.1875 -4.5 Z M 2.34375 -4.5 C 2.34375 -3.351562 2.570312 -2.476562 3.03125 -1.875 C 3.488281 -1.269531 4.164062 -0.96875 5.0625 -0.96875 C 5.945312 -0.96875 6.617188 -1.265625 7.078125 -1.859375 C 7.546875 -2.460938 7.78125 -3.34375 7.78125 -4.5 C 7.78125 -5.632812 7.546875 -6.5 7.078125 -7.09375 C 6.617188 -7.6875 5.941406 -7.984375 5.046875 -7.984375 C 4.148438 -7.984375 3.472656 -7.691406 3.015625 -7.109375 C 2.566406 -6.523438 2.34375 -5.65625 2.34375 -4.5 Z M 2.34375 -4.5 "/></g></g><g style="fill:#000000;fill-opacity:1;"><g transform="translate(620.485736, 320.488135)"><path style="stroke:none" d="M 12.875 0 L 12.875 -5.84375 C 12.875 -6.550781 12.71875 -7.082031 12.40625 -7.4375 C 12.101562 -7.800781 11.632812 -7.984375 11 -7.984375 C 10.144531 -7.984375 9.515625 -7.738281 9.109375 -7.25 C 8.710938 -6.769531 8.515625 -6.023438 8.515625 -5.015625 L 8.515625 0 L 7.15625 0 L 7.15625 -5.84375 C 7.15625 -6.550781 7 -7.082031 6.6875 -7.4375 C 6.382812 -7.800781 5.910156 -7.984375 5.265625 -7.984375 C 4.410156 -7.984375 3.785156 -7.726562 3.390625 -7.21875 C 2.992188 -6.707031 2.796875 -5.867188 2.796875 -4.703125 L 2.796875 0 L 1.4375 0 L 1.4375 -8.96875 L 2.546875 -8.96875 L 2.765625 -7.75 L 2.828125 -7.75 C 3.085938 -8.1875 3.445312 -8.523438 3.90625 -8.765625 C 4.375 -9.015625 4.898438 -9.140625 5.484375 -9.140625 C 6.890625 -9.140625 7.804688 -8.628906 8.234375 -7.609375 L 8.296875 -7.609375 C 8.566406 -8.078125 8.953125 -8.445312 9.453125 -8.71875 C 9.960938 -9 10.546875 -9.140625 11.203125 -9.140625 C 12.210938 -9.140625 12.96875 -8.878906 13.46875 -8.359375 C 13.976562 -7.835938 14.234375 -7.003906 14.234375 -5.859375 L 14.234375 0 Z M 12.875 0 "/></g></g><g style="fill:#000000;fill-opacity:1;"><g transform="translate(636.074917, 320.488135)"><path style="stroke:none" d="M 5.609375 0.15625 C 5.023438 0.15625 4.492188 0.0507812 4.015625 -0.15625 C 3.535156 -0.375 3.128906 -0.707031 2.796875 -1.15625 L 2.703125 -1.15625 C 2.765625 -0.632812 2.796875 -0.140625 2.796875 0.328125 L 2.796875 4.03125 L 1.4375 4.03125 L 1.4375 -8.96875 L 2.546875 -8.96875 L 2.734375 -7.75 L 2.796875 -7.75 C 3.148438 -8.238281 3.554688 -8.59375 4.015625 -8.8125 C 4.484375 -9.03125 5.015625 -9.140625 5.609375 -9.140625 C 6.804688 -9.140625 7.726562 -8.734375 8.375 -7.921875 C 9.019531 -7.109375 9.34375 -5.96875 9.34375 -4.5 C 9.34375 -3.019531 9.015625 -1.875 8.359375 -1.0625 C 7.703125 -0.25 6.785156 0.15625 5.609375 0.15625 Z M 5.421875 -7.984375 C 4.503906 -7.984375 3.835938 -7.726562 3.421875 -7.21875 C 3.015625 -6.707031 2.804688 -5.898438 2.796875 -4.796875 L 2.796875 -4.5 C 2.796875 -3.238281 3.003906 -2.332031 3.421875 -1.78125 C 3.847656 -1.238281 4.523438 -0.96875 5.453125 -0.96875 C 6.222656 -0.96875 6.828125 -1.28125 7.265625 -1.90625 C 7.710938 -2.539062 7.9375 -3.410156 7.9375 -4.515625 C 7.9375 -5.628906 7.710938 -6.484375 7.265625 -7.078125 C 6.828125 -7.679688 6.210938 -7.984375 5.421875 -7.984375 Z M 5.421875 -7.984375 "/></g></g><g style="fill:#000000;fill-opacity:1;"><g transform="translate(646.344957, 320.488135)"><path style="stroke:none" d="M 2.796875 0 L 1.4375 0 L 1.4375 -12.734375 L 2.796875 -12.734375 Z M 2.796875 0 "/></g></g><g style="fill:#000000;fill-opacity:1;"><g transform="translate(650.583903, 320.488135)"><path style="stroke:none" d="M 5.234375 0.15625 C 3.898438 0.15625 2.847656 -0.242188 2.078125 -1.046875 C 1.316406 -1.859375 0.9375 -2.976562 0.9375 -4.40625 C 0.9375 -5.851562 1.289062 -7.003906 2 -7.859375 C 2.71875 -8.710938 3.675781 -9.140625 4.875 -9.140625 C 6 -9.140625 6.890625 -8.769531 7.546875 -8.03125 C 8.203125 -7.289062 8.53125 -6.3125 8.53125 -5.09375 L 8.53125 -4.234375 L 2.34375 -4.234375 C 2.375 -3.179688 2.640625 -2.378906 3.140625 -1.828125 C 3.648438 -1.285156 4.363281 -1.015625 5.28125 -1.015625 C 6.25 -1.015625 7.203125 -1.21875 8.140625 -1.625 L 8.140625 -0.421875 C 7.660156 -0.210938 7.207031 -0.0664062 6.78125 0.015625 C 6.351562 0.109375 5.835938 0.15625 5.234375 0.15625 Z M 4.859375 -8 C 4.140625 -8 3.566406 -7.765625 3.140625 -7.296875 C 2.710938 -6.828125 2.457031 -6.175781 2.375 -5.34375 L 7.078125 -5.34375 C 7.078125 -6.195312 6.882812 -6.851562 6.5 -7.3125 C 6.113281 -7.769531 5.566406 -8 4.859375 -8 Z M 4.859375 -8 "/></g></g><g style="fill:#000000;fill-opacity:1;"><g transform="translate(659.986514, 320.488135)"><path style="stroke:none" d="M 4.34375 -0.953125 C 4.582031 -0.953125 4.8125 -0.96875 5.03125 -1 C 5.257812 -1.039062 5.4375 -1.082031 5.5625 -1.125 L 5.5625 -0.078125 C 5.414062 -0.00390625 5.195312 0.0507812 4.90625 0.09375 C 4.625 0.132812 4.367188 0.15625 4.140625 0.15625 C 2.398438 0.15625 1.53125 -0.753906 1.53125 -2.578125 L 1.53125 -7.921875 L 0.25 -7.921875 L 0.25 -8.578125 L 1.53125 -9.140625 L 2.109375 -11.046875 L 2.890625 -11.046875 L 2.890625 -8.96875 L 5.5 -8.96875 L 5.5 -7.921875 L 2.890625 -7.921875 L 2.890625 -2.640625 C 2.890625 -2.097656 3.019531 -1.679688 3.28125 -1.390625 C 3.539062 -1.097656 3.894531 -0.953125 4.34375 -0.953125 Z M 4.34375 -0.953125 "/></g></g><g style="fill:#000000;fill-opacity:1;"><g transform="translate(665.903041, 320.488135)"><path style="stroke:none" d="M 6.953125 0 L 6.6875 -1.28125 L 6.625 -1.28125 C 6.175781 -0.71875 5.726562 -0.335938 5.28125 -0.140625 C 4.832031 0.0546875 4.28125 0.15625 3.625 0.15625 C 2.726562 0.15625 2.023438 -0.0703125 1.515625 -0.53125 C 1.015625 -0.988281 0.765625 -1.640625 0.765625 -2.484375 C 0.765625 -4.296875 2.210938 -5.242188 5.109375 -5.328125 L 6.640625 -5.375 L 6.640625 -5.9375 C 6.640625 -6.632812 6.488281 -7.148438 6.1875 -7.484375 C 5.882812 -7.828125 5.398438 -8 4.734375 -8 C 3.984375 -8 3.132812 -7.769531 2.1875 -7.3125 L 1.78125 -8.34375 C 2.21875 -8.582031 2.695312 -8.769531 3.21875 -8.90625 C 3.75 -9.050781 4.28125 -9.125 4.8125 -9.125 C 5.882812 -9.125 6.675781 -8.882812 7.1875 -8.40625 C 7.707031 -7.925781 7.96875 -7.164062 7.96875 -6.125 L 7.96875 0 Z M 3.890625 -0.953125 C 4.734375 -0.953125 5.394531 -1.179688 5.875 -1.640625 C 6.363281 -2.109375 6.609375 -2.765625 6.609375 -3.609375 L 6.609375 -4.40625 L 5.25 -4.359375 C 4.164062 -4.316406 3.382812 -4.144531 2.90625 -3.84375 C 2.425781 -3.550781 2.1875 -3.09375 2.1875 -2.46875 C 2.1875 -1.976562 2.335938 -1.601562 2.640625 -1.34375 C 2.941406 -1.082031 3.359375 -0.953125 3.890625 -0.953125 Z M 3.890625 -0.953125 "/></g></g><g style="fill:#000000;fill-opacity:1;"><g transform="translate(675.223819, 320.488135)"><path style="stroke:none" d="M 7.546875 -1.203125 L 7.46875 -1.203125 C 6.84375 -0.296875 5.90625 0.15625 4.65625 0.15625 C 3.476562 0.15625 2.5625 -0.242188 1.90625 -1.046875 C 1.257812 -1.847656 0.9375 -2.988281 0.9375 -4.46875 C 0.9375 -5.945312 1.265625 -7.09375 1.921875 -7.90625 C 2.578125 -8.726562 3.488281 -9.140625 4.65625 -9.140625 C 5.875 -9.140625 6.804688 -8.695312 7.453125 -7.8125 L 7.5625 -7.8125 L 7.5 -8.453125 L 7.46875 -9.09375 L 7.46875 -12.734375 L 8.828125 -12.734375 L 8.828125 0 L 7.734375 0 Z M 4.828125 -0.96875 C 5.753906 -0.96875 6.425781 -1.21875 6.84375 -1.71875 C 7.257812 -2.226562 7.46875 -3.046875 7.46875 -4.171875 L 7.46875 -4.46875 C 7.46875 -5.738281 7.253906 -6.644531 6.828125 -7.1875 C 6.410156 -7.726562 5.738281 -8 4.8125 -8 C 4.019531 -8 3.410156 -7.6875 2.984375 -7.0625 C 2.554688 -6.445312 2.34375 -5.570312 2.34375 -4.4375 C 2.34375 -3.289062 2.550781 -2.425781 2.96875 -1.84375 C 3.394531 -1.257812 4.015625 -0.96875 4.828125 -0.96875 Z M 4.828125 -0.96875 "/></g></g><g style="fill:#000000;fill-opacity:1;"><g transform="translate(685.493858, 320.488135)"><path style="stroke:none" d="M 6.953125 0 L 6.6875 -1.28125 L 6.625 -1.28125 C 6.175781 -0.71875 5.726562 -0.335938 5.28125 -0.140625 C 4.832031 0.0546875 4.28125 0.15625 3.625 0.15625 C 2.726562 0.15625 2.023438 -0.0703125 1.515625 -0.53125 C 1.015625 -0.988281 0.765625 -1.640625 0.765625 -2.484375 C 0.765625 -4.296875 2.210938 -5.242188 5.109375 -5.328125 L 6.640625 -5.375 L 6.640625 -5.9375 C 6.640625 -6.632812 6.488281 -7.148438 6.1875 -7.484375 C 5.882812 -7.828125 5.398438 -8 4.734375 -8 C 3.984375 -8 3.132812 -7.769531 2.1875 -7.3125 L 1.78125 -8.34375 C 2.21875 -8.582031 2.695312 -8.769531 3.21875 -8.90625 C 3.75 -9.050781 4.28125 -9.125 4.8125 -9.125 C 5.882812 -9.125 6.675781 -8.882812 7.1875 -8.40625 C 7.707031 -7.925781 7.96875 -7.164062 7.96875 -6.125 L 7.96875 0 Z M 3.890625 -0.953125 C 4.734375 -0.953125 5.394531 -1.179688 5.875 -1.640625 C 6.363281 -2.109375 6.609375 -2.765625 6.609375 -3.609375 L 6.609375 -4.40625 L 5.25 -4.359375 C 4.164062 -4.316406 3.382812 -4.144531 2.90625 -3.84375 C 2.425781 -3.550781 2.1875 -3.09375 2.1875 -2.46875 C 2.1875 -1.976562 2.335938 -1.601562 2.640625 -1.34375 C 2.941406 -1.082031 3.359375 -0.953125 3.890625 -0.953125 Z M 3.890625 -0.953125 "/></g></g><g style="fill:#000000;fill-opacity:1;"><g transform="translate(623.464684, 344.093713)"><path style="stroke:none" d="M 8.234375 -9.15625 C 8.234375 -8.382812 8.019531 -7.753906 7.59375 -7.265625 C 7.164062 -6.785156 6.554688 -6.460938 5.765625 -6.296875 L 5.765625 -6.234375 C 6.734375 -6.117188 7.445312 -5.8125 7.90625 -5.3125 C 8.375 -4.820312 8.609375 -4.179688 8.609375 -3.390625 C 8.609375 -2.242188 8.210938 -1.363281 7.421875 -0.75 C 6.628906 -0.144531 5.503906 0.15625 4.046875 0.15625 C 3.410156 0.15625 2.828125 0.109375 2.296875 0.015625 C 1.773438 -0.078125 1.265625 -0.242188 0.765625 -0.484375 L 0.765625 -1.78125 C 1.285156 -1.519531 1.835938 -1.320312 2.421875 -1.1875 C 3.015625 -1.050781 3.570312 -0.984375 4.09375 -0.984375 C 6.164062 -0.984375 7.203125 -1.796875 7.203125 -3.421875 C 7.203125 -4.867188 6.0625 -5.59375 3.78125 -5.59375 L 2.59375 -5.59375 L 2.59375 -6.765625 L 3.796875 -6.765625 C 4.722656 -6.765625 5.457031 -6.96875 6 -7.375 C 6.550781 -7.789062 6.828125 -8.367188 6.828125 -9.109375 C 6.828125 -9.691406 6.625 -10.148438 6.21875 -10.484375 C 5.820312 -10.816406 5.28125 -10.984375 4.59375 -10.984375 C 4.070312 -10.984375 3.578125 -10.910156 3.109375 -10.765625 C 2.648438 -10.617188 2.117188 -10.359375 1.515625 -9.984375 L 0.828125 -10.890625 C 1.328125 -11.285156 1.894531 -11.59375 2.53125 -11.8125 C 3.175781 -12.03125 3.851562 -12.140625 4.5625 -12.140625 C 5.71875 -12.140625 6.617188 -11.875 7.265625 -11.34375 C 7.910156 -10.8125 8.234375 -10.082031 8.234375 -9.15625 Z M 8.234375 -9.15625 "/></g></g><g style="fill:#000000;fill-opacity:1;"><g transform="translate(633.047326, 344.093713)"><path style="stroke:none" d="M 4.78125 -12.140625 C 5.875 -12.140625 6.738281 -11.882812 7.375 -11.375 C 8.007812 -10.875 8.328125 -10.175781 8.328125 -9.28125 C 8.328125 -8.6875 8.144531 -8.144531 7.78125 -7.65625 C 7.414062 -7.175781 6.832031 -6.738281 6.03125 -6.34375 C 7 -5.875 7.6875 -5.382812 8.09375 -4.875 C 8.507812 -4.363281 8.71875 -3.773438 8.71875 -3.109375 C 8.71875 -2.109375 8.367188 -1.3125 7.671875 -0.71875 C 6.984375 -0.132812 6.035156 0.15625 4.828125 0.15625 C 3.554688 0.15625 2.570312 -0.117188 1.875 -0.671875 C 1.1875 -1.234375 0.84375 -2.023438 0.84375 -3.046875 C 0.84375 -4.421875 1.679688 -5.488281 3.359375 -6.25 C 2.609375 -6.675781 2.066406 -7.132812 1.734375 -7.625 C 1.410156 -8.125 1.25 -8.679688 1.25 -9.296875 C 1.25 -10.160156 1.566406 -10.847656 2.203125 -11.359375 C 2.847656 -11.878906 3.707031 -12.140625 4.78125 -12.140625 Z M 2.1875 -3.015625 C 2.1875 -2.359375 2.414062 -1.847656 2.875 -1.484375 C 3.332031 -1.117188 3.972656 -0.9375 4.796875 -0.9375 C 5.609375 -0.9375 6.238281 -1.128906 6.6875 -1.515625 C 7.144531 -1.898438 7.375 -2.425781 7.375 -3.09375 C 7.375 -3.613281 7.160156 -4.078125 6.734375 -4.484375 C 6.304688 -4.898438 5.566406 -5.304688 4.515625 -5.703125 C 3.703125 -5.347656 3.109375 -4.957031 2.734375 -4.53125 C 2.367188 -4.113281 2.1875 -3.609375 2.1875 -3.015625 Z M 4.765625 -11.03125 C 4.078125 -11.03125 3.539062 -10.863281 3.15625 -10.53125 C 2.769531 -10.207031 2.578125 -9.773438 2.578125 -9.234375 C 2.578125 -8.734375 2.738281 -8.300781 3.0625 -7.9375 C 3.382812 -7.582031 3.976562 -7.222656 4.84375 -6.859375 C 5.625 -7.179688 6.175781 -7.53125 6.5 -7.90625 C 6.820312 -8.289062 6.984375 -8.734375 6.984375 -9.234375 C 6.984375 -9.785156 6.785156 -10.222656 6.390625 -10.546875 C 5.992188 -10.867188 5.453125 -11.03125 4.765625 -11.03125 Z M 4.765625 -11.03125 "/></g></g><g style="fill:#000000;fill-opacity:1;"><g transform="translate(642.629969, 344.093713)"><path style="stroke:none" d="M 1.25 -0.875 C 1.25 -1.238281 1.332031 -1.515625 1.5 -1.703125 C 1.664062 -1.890625 1.898438 -1.984375 2.203125 -1.984375 C 2.523438 -1.984375 2.773438 -1.890625 2.953125 -1.703125 C 3.128906 -1.515625 3.21875 -1.238281 3.21875 -0.875 C 3.21875 -0.507812 3.125 -0.234375 2.9375 -0.046875 C 2.757812 0.140625 2.515625 0.234375 2.203125 0.234375 C 1.929688 0.234375 1.703125 0.148438 1.515625 -0.015625 C 1.335938 -0.191406 1.25 -0.476562 1.25 -0.875 Z M 1.25 -0.875 "/></g></g><g style="fill:#000000;fill-opacity:1;"><g transform="translate(647.08987, 344.093713)"><path style="stroke:none" d="M 4.5625 -7.3125 C 5.820312 -7.3125 6.8125 -7 7.53125 -6.375 C 8.257812 -5.75 8.625 -4.894531 8.625 -3.8125 C 8.625 -2.570312 8.226562 -1.597656 7.4375 -0.890625 C 6.644531 -0.191406 5.554688 0.15625 4.171875 0.15625 C 2.828125 0.15625 1.800781 -0.0546875 1.09375 -0.484375 L 1.09375 -1.796875 C 1.46875 -1.546875 1.9375 -1.347656 2.5 -1.203125 C 3.070312 -1.066406 3.632812 -1 4.1875 -1 C 5.144531 -1 5.890625 -1.222656 6.421875 -1.671875 C 6.960938 -2.128906 7.234375 -2.789062 7.234375 -3.65625 C 7.234375 -5.320312 6.207031 -6.15625 4.15625 -6.15625 C 3.632812 -6.15625 2.941406 -6.078125 2.078125 -5.921875 L 1.375 -6.375 L 1.828125 -11.96875 L 7.78125 -11.96875 L 7.78125 -10.71875 L 2.984375 -10.71875 L 2.6875 -7.125 C 3.3125 -7.25 3.9375 -7.3125 4.5625 -7.3125 Z M 4.5625 -7.3125 "/></g></g><g style="fill:#000000;fill-opacity:1;"><g transform="translate(656.672513, 344.093713)"><path style="stroke:none" d="M 1.984375 -8.40625 C 1.984375 -7.46875 2.082031 -6.765625 2.28125 -6.296875 C 2.488281 -5.835938 2.816406 -5.609375 3.265625 -5.609375 C 4.160156 -5.609375 4.609375 -6.539062 4.609375 -8.40625 C 4.609375 -10.25 4.160156 -11.171875 3.265625 -11.171875 C 2.816406 -11.171875 2.488281 -10.941406 2.28125 -10.484375 C 2.082031 -10.023438 1.984375 -9.332031 1.984375 -8.40625 Z M 5.734375 -8.40625 C 5.734375 -7.15625 5.523438 -6.210938 5.109375 -5.578125 C 4.691406 -4.941406 4.078125 -4.625 3.265625 -4.625 C 2.503906 -4.625 1.910156 -4.945312 1.484375 -5.59375 C 1.054688 -6.25 0.84375 -7.1875 0.84375 -8.40625 C 0.84375 -9.632812 1.046875 -10.5625 1.453125 -11.1875 C 1.867188 -11.820312 2.472656 -12.140625 3.265625 -12.140625 C 4.054688 -12.140625 4.664062 -11.8125 5.09375 -11.15625 C 5.519531 -10.507812 5.734375 -9.59375 5.734375 -8.40625 Z M 9.1875 -3.609375 C 9.1875 -2.671875 9.285156 -1.96875 9.484375 -1.5 C 9.691406 -1.039062 10.023438 -0.8125 10.484375 -0.8125 C 10.941406 -0.8125 11.28125 -1.039062 11.5 -1.5 C 11.71875 -1.957031 11.828125 -2.660156 11.828125 -3.609375 C 11.828125 -4.535156 11.71875 -5.222656 11.5 -5.671875 C 11.28125 -6.128906 10.941406 -6.359375 10.484375 -6.359375 C 10.023438 -6.359375 9.691406 -6.128906 9.484375 -5.671875 C 9.285156 -5.222656 9.1875 -4.535156 9.1875 -3.609375 Z M 12.9375 -3.609375 C 12.9375 -2.367188 12.726562 -1.429688 12.3125 -0.796875 C 11.894531 -0.160156 11.285156 0.15625 10.484375 0.15625 C 9.703125 0.15625 9.101562 -0.164062 8.6875 -0.8125 C 8.269531 -1.457031 8.0625 -2.390625 8.0625 -3.609375 C 8.0625 -4.835938 8.265625 -5.765625 8.671875 -6.390625 C 9.078125 -7.023438 9.679688 -7.34375 10.484375 -7.34375 C 11.253906 -7.34375 11.851562 -7.019531 12.28125 -6.375 C 12.71875 -5.738281 12.9375 -4.816406 12.9375 -3.609375 Z M 10.828125 -11.96875 L 4.1875 0 L 2.984375 0 L 9.625 -11.96875 Z M 10.828125 -11.96875 "/></g></g><g style="fill:#000000;fill-opacity:1;"><g transform="translate(48.29265, 151.12529)"><path style="stroke:none" d="M 11 0 L 9.40625 0 L 2.859375 -10.046875 L 2.796875 -10.046875 C 2.890625 -8.867188 2.9375 -7.785156 2.9375 -6.796875 L 2.9375 0 L 1.640625 0 L 1.640625 -11.96875 L 3.21875 -11.96875 L 9.734375 -1.96875 L 9.8125 -1.96875 C 9.800781 -2.113281 9.773438 -2.582031 9.734375 -3.375 C 9.691406 -4.175781 9.675781 -4.75 9.6875 -5.09375 L 9.6875 -11.96875 L 11 -11.96875 Z M 11 0 "/></g></g><g style="fill:#000000;fill-opacity:1;"><g transform="translate(60.927656, 151.12529)"><path style="stroke:none" d="M 9.1875 -4.5 C 9.1875 -3.03125 8.816406 -1.882812 8.078125 -1.0625 C 7.335938 -0.25 6.320312 0.15625 5.03125 0.15625 C 4.226562 0.15625 3.515625 -0.03125 2.890625 -0.40625 C 2.265625 -0.78125 1.78125 -1.316406 1.4375 -2.015625 C 1.101562 -2.722656 0.9375 -3.550781 0.9375 -4.5 C 0.9375 -5.957031 1.300781 -7.09375 2.03125 -7.90625 C 2.769531 -8.726562 3.785156 -9.140625 5.078125 -9.140625 C 6.335938 -9.140625 7.335938 -8.71875 8.078125 -7.875 C 8.816406 -7.039062 9.1875 -5.914062 9.1875 -4.5 Z M 2.34375 -4.5 C 2.34375 -3.351562 2.570312 -2.476562 3.03125 -1.875 C 3.488281 -1.269531 4.164062 -0.96875 5.0625 -0.96875 C 5.945312 -0.96875 6.617188 -1.265625 7.078125 -1.859375 C 7.546875 -2.460938 7.78125 -3.34375 7.78125 -4.5 C 7.78125 -5.632812 7.546875 -6.5 7.078125 -7.09375 C 6.617188 -7.6875 5.941406 -7.984375 5.046875 -7.984375 C 4.148438 -7.984375 3.472656 -7.691406 3.015625 -7.109375 C 2.566406 -6.523438 2.34375 -5.65625 2.34375 -4.5 Z M 2.34375 -4.5 "/></g></g><g style="fill:#000000;fill-opacity:1;"><g transform="translate(71.050396, 151.12529)"><path style="stroke:none" d=""/></g></g><g style="fill:#000000;fill-opacity:1;"><g transform="translate(75.403909, 151.12529)"><path style="stroke:none" d="M 5.53125 -9.140625 C 5.925781 -9.140625 6.285156 -9.101562 6.609375 -9.03125 L 6.421875 -7.78125 C 6.046875 -7.863281 5.71875 -7.90625 5.4375 -7.90625 C 4.707031 -7.90625 4.082031 -7.609375 3.5625 -7.015625 C 3.050781 -6.421875 2.796875 -5.6875 2.796875 -4.8125 L 2.796875 0 L 1.4375 0 L 1.4375 -8.96875 L 2.5625 -8.96875 L 2.71875 -7.3125 L 2.78125 -7.3125 C 3.113281 -7.894531 3.515625 -8.34375 3.984375 -8.65625 C 4.453125 -8.976562 4.96875 -9.140625 5.53125 -9.140625 Z M 5.53125 -9.140625 "/></g></g><g style="fill:#000000;fill-opacity:1;"><g transform="translate(82.245143, 151.12529)"><path style="stroke:none" d="M 5.234375 0.15625 C 3.898438 0.15625 2.847656 -0.242188 2.078125 -1.046875 C 1.316406 -1.859375 0.9375 -2.976562 0.9375 -4.40625 C 0.9375 -5.851562 1.289062 -7.003906 2 -7.859375 C 2.71875 -8.710938 3.675781 -9.140625 4.875 -9.140625 C 6 -9.140625 6.890625 -8.769531 7.546875 -8.03125 C 8.203125 -7.289062 8.53125 -6.3125 8.53125 -5.09375 L 8.53125 -4.234375 L 2.34375 -4.234375 C 2.375 -3.179688 2.640625 -2.378906 3.140625 -1.828125 C 3.648438 -1.285156 4.363281 -1.015625 5.28125 -1.015625 C 6.25 -1.015625 7.203125 -1.21875 8.140625 -1.625 L 8.140625 -0.421875 C 7.660156 -0.210938 7.207031 -0.0664062 6.78125 0.015625 C 6.351562 0.109375 5.835938 0.15625 5.234375 0.15625 Z M 4.859375 -8 C 4.140625 -8 3.566406 -7.765625 3.140625 -7.296875 C 2.710938 -6.828125 2.457031 -6.175781 2.375 -5.34375 L 7.078125 -5.34375 C 7.078125 -6.195312 6.882812 -6.851562 6.5 -7.3125 C 6.113281 -7.769531 5.566406 -8 4.859375 -8 Z M 4.859375 -8 "/></g></g><g style="fill:#000000;fill-opacity:1;"><g transform="translate(91.647753, 151.12529)"><path style="stroke:none" d="M 6.953125 0 L 6.6875 -1.28125 L 6.625 -1.28125 C 6.175781 -0.71875 5.726562 -0.335938 5.28125 -0.140625 C 4.832031 0.0546875 4.28125 0.15625 3.625 0.15625 C 2.726562 0.15625 2.023438 -0.0703125 1.515625 -0.53125 C 1.015625 -0.988281 0.765625 -1.640625 0.765625 -2.484375 C 0.765625 -4.296875 2.210938 -5.242188 5.109375 -5.328125 L 6.640625 -5.375 L 6.640625 -5.9375 C 6.640625 -6.632812 6.488281 -7.148438 6.1875 -7.484375 C 5.882812 -7.828125 5.398438 -8 4.734375 -8 C 3.984375 -8 3.132812 -7.769531 2.1875 -7.3125 L 1.78125 -8.34375 C 2.21875 -8.582031 2.695312 -8.769531 3.21875 -8.90625 C 3.75 -9.050781 4.28125 -9.125 4.8125 -9.125 C 5.882812 -9.125 6.675781 -8.882812 7.1875 -8.40625 C 7.707031 -7.925781 7.96875 -7.164062 7.96875 -6.125 L 7.96875 0 Z M 3.890625 -0.953125 C 4.734375 -0.953125 5.394531 -1.179688 5.875 -1.640625 C 6.363281 -2.109375 6.609375 -2.765625 6.609375 -3.609375 L 6.609375 -4.40625 L 5.25 -4.359375 C 4.164062 -4.316406 3.382812 -4.144531 2.90625 -3.84375 C 2.425781 -3.550781 2.1875 -3.09375 2.1875 -2.46875 C 2.1875 -1.976562 2.335938 -1.601562 2.640625 -1.34375 C 2.941406 -1.082031 3.359375 -0.953125 3.890625 -0.953125 Z M 3.890625 -0.953125 "/></g></g><g style="fill:#000000;fill-opacity:1;"><g transform="translate(100.968531, 151.12529)"><path style="stroke:none" d="M 2.796875 0 L 1.4375 0 L 1.4375 -12.734375 L 2.796875 -12.734375 Z M 2.796875 0 "/></g></g><g style="fill:#000000;fill-opacity:1;"><g transform="translate(105.207477, 151.12529)"><path style="stroke:none" d="M 2.796875 0 L 1.4375 0 L 1.4375 -8.96875 L 2.796875 -8.96875 Z M 1.328125 -11.40625 C 1.328125 -11.71875 1.398438 -11.941406 1.546875 -12.078125 C 1.703125 -12.222656 1.894531 -12.296875 2.125 -12.296875 C 2.34375 -12.296875 2.53125 -12.222656 2.6875 -12.078125 C 2.851562 -11.929688 2.9375 -11.707031 2.9375 -11.40625 C 2.9375 -11.09375 2.851562 -10.863281 2.6875 -10.71875 C 2.53125 -10.570312 2.34375 -10.5 2.125 -10.5 C 1.894531 -10.5 1.703125 -10.570312 1.546875 -10.71875 C 1.398438 -10.863281 1.328125 -11.09375 1.328125 -11.40625 Z M 1.328125 -11.40625 "/></g></g><g style="fill:#000000;fill-opacity:1;"><g transform="translate(109.446423, 151.12529)"><path style="stroke:none" d="M 7.171875 0 L 0.671875 0 L 0.671875 -0.921875 L 5.5625 -7.921875 L 0.96875 -7.921875 L 0.96875 -8.96875 L 7.0625 -8.96875 L 7.0625 -7.921875 L 2.234375 -1.0625 L 7.171875 -1.0625 Z M 7.171875 0 "/></g></g><g style="fill:#000000;fill-opacity:1;"><g transform="translate(117.286019, 151.12529)"><path style="stroke:none" d="M 6.953125 0 L 6.6875 -1.28125 L 6.625 -1.28125 C 6.175781 -0.71875 5.726562 -0.335938 5.28125 -0.140625 C 4.832031 0.0546875 4.28125 0.15625 3.625 0.15625 C 2.726562 0.15625 2.023438 -0.0703125 1.515625 -0.53125 C 1.015625 -0.988281 0.765625 -1.640625 0.765625 -2.484375 C 0.765625 -4.296875 2.210938 -5.242188 5.109375 -5.328125 L 6.640625 -5.375 L 6.640625 -5.9375 C 6.640625 -6.632812 6.488281 -7.148438 6.1875 -7.484375 C 5.882812 -7.828125 5.398438 -8 4.734375 -8 C 3.984375 -8 3.132812 -7.769531 2.1875 -7.3125 L 1.78125 -8.34375 C 2.21875 -8.582031 2.695312 -8.769531 3.21875 -8.90625 C 3.75 -9.050781 4.28125 -9.125 4.8125 -9.125 C 5.882812 -9.125 6.675781 -8.882812 7.1875 -8.40625 C 7.707031 -7.925781 7.96875 -7.164062 7.96875 -6.125 L 7.96875 0 Z M 3.890625 -0.953125 C 4.734375 -0.953125 5.394531 -1.179688 5.875 -1.640625 C 6.363281 -2.109375 6.609375 -2.765625 6.609375 -3.609375 L 6.609375 -4.40625 L 5.25 -4.359375 C 4.164062 -4.316406 3.382812 -4.144531 2.90625 -3.84375 C 2.425781 -3.550781 2.1875 -3.09375 2.1875 -2.46875 C 2.1875 -1.976562 2.335938 -1.601562 2.640625 -1.34375 C 2.941406 -1.082031 3.359375 -0.953125 3.890625 -0.953125 Z M 3.890625 -0.953125 "/></g></g><g style="fill:#000000;fill-opacity:1;"><g transform="translate(126.606797, 151.12529)"><path style="stroke:none" d="M 7.546875 -1.203125 L 7.46875 -1.203125 C 6.84375 -0.296875 5.90625 0.15625 4.65625 0.15625 C 3.476562 0.15625 2.5625 -0.242188 1.90625 -1.046875 C 1.257812 -1.847656 0.9375 -2.988281 0.9375 -4.46875 C 0.9375 -5.945312 1.265625 -7.09375 1.921875 -7.90625 C 2.578125 -8.726562 3.488281 -9.140625 4.65625 -9.140625 C 5.875 -9.140625 6.804688 -8.695312 7.453125 -7.8125 L 7.5625 -7.8125 L 7.5 -8.453125 L 7.46875 -9.09375 L 7.46875 -12.734375 L 8.828125 -12.734375 L 8.828125 0 L 7.734375 0 Z M 4.828125 -0.96875 C 5.753906 -0.96875 6.425781 -1.21875 6.84375 -1.71875 C 7.257812 -2.226562 7.46875 -3.046875 7.46875 -4.171875 L 7.46875 -4.46875 C 7.46875 -5.738281 7.253906 -6.644531 6.828125 -7.1875 C 6.410156 -7.726562 5.738281 -8 4.8125 -8 C 4.019531 -8 3.410156 -7.6875 2.984375 -7.0625 C 2.554688 -6.445312 2.34375 -5.570312 2.34375 -4.4375 C 2.34375 -3.289062 2.550781 -2.425781 2.96875 -1.84375 C 3.394531 -1.257812 4.015625 -0.96875 4.828125 -0.96875 Z M 4.828125 -0.96875 "/></g></g><g style="fill:#000000;fill-opacity:1;"><g transform="translate(136.876836, 151.12529)"><path style="stroke:none" d="M 6.953125 0 L 6.6875 -1.28125 L 6.625 -1.28125 C 6.175781 -0.71875 5.726562 -0.335938 5.28125 -0.140625 C 4.832031 0.0546875 4.28125 0.15625 3.625 0.15625 C 2.726562 0.15625 2.023438 -0.0703125 1.515625 -0.53125 C 1.015625 -0.988281 0.765625 -1.640625 0.765625 -2.484375 C 0.765625 -4.296875 2.210938 -5.242188 5.109375 -5.328125 L 6.640625 -5.375 L 6.640625 -5.9375 C 6.640625 -6.632812 6.488281 -7.148438 6.1875 -7.484375 C 5.882812 -7.828125 5.398438 -8 4.734375 -8 C 3.984375 -8 3.132812 -7.769531 2.1875 -7.3125 L 1.78125 -8.34375 C 2.21875 -8.582031 2.695312 -8.769531 3.21875 -8.90625 C 3.75 -9.050781 4.28125 -9.125 4.8125 -9.125 C 5.882812 -9.125 6.675781 -8.882812 7.1875 -8.40625 C 7.707031 -7.925781 7.96875 -7.164062 7.96875 -6.125 L 7.96875 0 Z M 3.890625 -0.953125 C 4.734375 -0.953125 5.394531 -1.179688 5.875 -1.640625 C 6.363281 -2.109375 6.609375 -2.765625 6.609375 -3.609375 L 6.609375 -4.40625 L 5.25 -4.359375 C 4.164062 -4.316406 3.382812 -4.144531 2.90625 -3.84375 C 2.425781 -3.550781 2.1875 -3.09375 2.1875 -2.46875 C 2.1875 -1.976562 2.335938 -1.601562 2.640625 -1.34375 C 2.941406 -1.082031 3.359375 -0.953125 3.890625 -0.953125 Z M 3.890625 -0.953125 "/></g></g><g style="fill:#000000;fill-opacity:1;"><g transform="translate(73.770592, 170.331386)"><path style="stroke:none" d="M 8.234375 -9.15625 C 8.234375 -8.382812 8.019531 -7.753906 7.59375 -7.265625 C 7.164062 -6.785156 6.554688 -6.460938 5.765625 -6.296875 L 5.765625 -6.234375 C 6.734375 -6.117188 7.445312 -5.8125 7.90625 -5.3125 C 8.375 -4.820312 8.609375 -4.179688 8.609375 -3.390625 C 8.609375 -2.242188 8.210938 -1.363281 7.421875 -0.75 C 6.628906 -0.144531 5.503906 0.15625 4.046875 0.15625 C 3.410156 0.15625 2.828125 0.109375 2.296875 0.015625 C 1.773438 -0.078125 1.265625 -0.242188 0.765625 -0.484375 L 0.765625 -1.78125 C 1.285156 -1.519531 1.835938 -1.320312 2.421875 -1.1875 C 3.015625 -1.050781 3.570312 -0.984375 4.09375 -0.984375 C 6.164062 -0.984375 7.203125 -1.796875 7.203125 -3.421875 C 7.203125 -4.867188 6.0625 -5.59375 3.78125 -5.59375 L 2.59375 -5.59375 L 2.59375 -6.765625 L 3.796875 -6.765625 C 4.722656 -6.765625 5.457031 -6.96875 6 -7.375 C 6.550781 -7.789062 6.828125 -8.367188 6.828125 -9.109375 C 6.828125 -9.691406 6.625 -10.148438 6.21875 -10.484375 C 5.820312 -10.816406 5.28125 -10.984375 4.59375 -10.984375 C 4.070312 -10.984375 3.578125 -10.910156 3.109375 -10.765625 C 2.648438 -10.617188 2.117188 -10.359375 1.515625 -9.984375 L 0.828125 -10.890625 C 1.328125 -11.285156 1.894531 -11.59375 2.53125 -11.8125 C 3.175781 -12.03125 3.851562 -12.140625 4.5625 -12.140625 C 5.71875 -12.140625 6.617188 -11.875 7.265625 -11.34375 C 7.910156 -10.8125 8.234375 -10.082031 8.234375 -9.15625 Z M 8.234375 -9.15625 "/></g></g><g style="fill:#000000;fill-opacity:1;"><g transform="translate(83.353235, 170.331386)"><path style="stroke:none" d="M 9.25 -2.75 L 7.46875 -2.75 L 7.46875 0 L 6.171875 0 L 6.171875 -2.75 L 0.359375 -2.75 L 0.359375 -3.9375 L 6.03125 -12.03125 L 7.46875 -12.03125 L 7.46875 -3.984375 L 9.25 -3.984375 Z M 6.171875 -3.984375 L 6.171875 -7.96875 C 6.171875 -8.75 6.195312 -9.628906 6.25 -10.609375 L 6.1875 -10.609375 C 5.925781 -10.085938 5.679688 -9.65625 5.453125 -9.3125 L 1.71875 -3.984375 Z M 6.171875 -3.984375 "/></g></g><g style="fill:#000000;fill-opacity:1;"><g transform="translate(92.935878, 170.331386)"><path style="stroke:none" d="M 1.25 -0.875 C 1.25 -1.238281 1.332031 -1.515625 1.5 -1.703125 C 1.664062 -1.890625 1.898438 -1.984375 2.203125 -1.984375 C 2.523438 -1.984375 2.773438 -1.890625 2.953125 -1.703125 C 3.128906 -1.515625 3.21875 -1.238281 3.21875 -0.875 C 3.21875 -0.507812 3.125 -0.234375 2.9375 -0.046875 C 2.757812 0.140625 2.515625 0.234375 2.203125 0.234375 C 1.929688 0.234375 1.703125 0.148438 1.515625 -0.015625 C 1.335938 -0.191406 1.25 -0.476562 1.25 -0.875 Z M 1.25 -0.875 "/></g></g><g style="fill:#000000;fill-opacity:1;"><g transform="translate(97.395779, 170.331386)"><path style="stroke:none" d="M 0.953125 -5.109375 C 0.953125 -7.460938 1.410156 -9.222656 2.328125 -10.390625 C 3.242188 -11.554688 4.597656 -12.140625 6.390625 -12.140625 C 7.003906 -12.140625 7.488281 -12.085938 7.84375 -11.984375 L 7.84375 -10.8125 C 7.425781 -10.945312 6.945312 -11.015625 6.40625 -11.015625 C 5.125 -11.015625 4.144531 -10.613281 3.46875 -9.8125 C 2.789062 -9.019531 2.414062 -7.765625 2.34375 -6.046875 L 2.453125 -6.046875 C 3.046875 -6.984375 3.992188 -7.453125 5.296875 -7.453125 C 6.367188 -7.453125 7.210938 -7.128906 7.828125 -6.484375 C 8.453125 -5.835938 8.765625 -4.957031 8.765625 -3.84375 C 8.765625 -2.59375 8.425781 -1.613281 7.75 -0.90625 C 7.070312 -0.195312 6.15625 0.15625 5 0.15625 C 3.757812 0.15625 2.773438 -0.304688 2.046875 -1.234375 C 1.316406 -2.160156 0.953125 -3.453125 0.953125 -5.109375 Z M 4.984375 -0.984375 C 5.753906 -0.984375 6.351562 -1.226562 6.78125 -1.71875 C 7.207031 -2.207031 7.421875 -2.914062 7.421875 -3.84375 C 7.421875 -4.632812 7.222656 -5.253906 6.828125 -5.703125 C 6.429688 -6.160156 5.835938 -6.390625 5.046875 -6.390625 C 4.554688 -6.390625 4.101562 -6.285156 3.6875 -6.078125 C 3.28125 -5.878906 2.953125 -5.601562 2.703125 -5.25 C 2.460938 -4.894531 2.34375 -4.523438 2.34375 -4.140625 C 2.34375 -3.578125 2.453125 -3.050781 2.671875 -2.5625 C 2.890625 -2.082031 3.195312 -1.695312 3.59375 -1.40625 C 4 -1.125 4.460938 -0.984375 4.984375 -0.984375 Z M 4.984375 -0.984375 "/></g></g><g style="fill:#000000;fill-opacity:1;"><g transform="translate(106.978422, 170.331386)"><path style="stroke:none" d="M 1.984375 -8.40625 C 1.984375 -7.46875 2.082031 -6.765625 2.28125 -6.296875 C 2.488281 -5.835938 2.816406 -5.609375 3.265625 -5.609375 C 4.160156 -5.609375 4.609375 -6.539062 4.609375 -8.40625 C 4.609375 -10.25 4.160156 -11.171875 3.265625 -11.171875 C 2.816406 -11.171875 2.488281 -10.941406 2.28125 -10.484375 C 2.082031 -10.023438 1.984375 -9.332031 1.984375 -8.40625 Z M 5.734375 -8.40625 C 5.734375 -7.15625 5.523438 -6.210938 5.109375 -5.578125 C 4.691406 -4.941406 4.078125 -4.625 3.265625 -4.625 C 2.503906 -4.625 1.910156 -4.945312 1.484375 -5.59375 C 1.054688 -6.25 0.84375 -7.1875 0.84375 -8.40625 C 0.84375 -9.632812 1.046875 -10.5625 1.453125 -11.1875 C 1.867188 -11.820312 2.472656 -12.140625 3.265625 -12.140625 C 4.054688 -12.140625 4.664062 -11.8125 5.09375 -11.15625 C 5.519531 -10.507812 5.734375 -9.59375 5.734375 -8.40625 Z M 9.1875 -3.609375 C 9.1875 -2.671875 9.285156 -1.96875 9.484375 -1.5 C 9.691406 -1.039062 10.023438 -0.8125 10.484375 -0.8125 C 10.941406 -0.8125 11.28125 -1.039062 11.5 -1.5 C 11.71875 -1.957031 11.828125 -2.660156 11.828125 -3.609375 C 11.828125 -4.535156 11.71875 -5.222656 11.5 -5.671875 C 11.28125 -6.128906 10.941406 -6.359375 10.484375 -6.359375 C 10.023438 -6.359375 9.691406 -6.128906 9.484375 -5.671875 C 9.285156 -5.222656 9.1875 -4.535156 9.1875 -3.609375 Z M 12.9375 -3.609375 C 12.9375 -2.367188 12.726562 -1.429688 12.3125 -0.796875 C 11.894531 -0.160156 11.285156 0.15625 10.484375 0.15625 C 9.703125 0.15625 9.101562 -0.164062 8.6875 -0.8125 C 8.269531 -1.457031 8.0625 -2.390625 8.0625 -3.609375 C 8.0625 -4.835938 8.265625 -5.765625 8.671875 -6.390625 C 9.078125 -7.023438 9.679688 -7.34375 10.484375 -7.34375 C 11.253906 -7.34375 11.851562 -7.019531 12.28125 -6.375 C 12.71875 -5.738281 12.9375 -4.816406 12.9375 -3.609375 Z M 10.828125 -11.96875 L 4.1875 0 L 2.984375 0 L 9.625 -11.96875 Z M 10.828125 -11.96875 "/></g></g><g style="fill:#000000;fill-opacity:1;"><g transform="translate(221.067107, 540.749434)"><path style="stroke:none" d="M 9.234375 -8.484375 C 9.234375 -7.265625 8.816406 -6.328125 7.984375 -5.671875 C 7.160156 -5.023438 5.976562 -4.703125 4.4375 -4.703125 L 3.03125 -4.703125 L 3.03125 0 L 1.640625 0 L 1.640625 -11.96875 L 4.75 -11.96875 C 7.738281 -11.96875 9.234375 -10.804688 9.234375 -8.484375 Z M 3.03125 -5.90625 L 4.296875 -5.90625 C 5.523438 -5.90625 6.414062 -6.101562 6.96875 -6.5 C 7.519531 -6.894531 7.796875 -7.535156 7.796875 -8.421875 C 7.796875 -9.210938 7.535156 -9.800781 7.015625 -10.1875 C 6.492188 -10.570312 5.6875 -10.765625 4.59375 -10.765625 L 3.03125 -10.765625 Z M 3.03125 -5.90625 "/></g></g><g style="fill:#000000;fill-opacity:1;"><g transform="translate(231.157114, 540.749434)"><path style="stroke:none" d="M 5.234375 0.15625 C 3.898438 0.15625 2.847656 -0.242188 2.078125 -1.046875 C 1.316406 -1.859375 0.9375 -2.976562 0.9375 -4.40625 C 0.9375 -5.851562 1.289062 -7.003906 2 -7.859375 C 2.71875 -8.710938 3.675781 -9.140625 4.875 -9.140625 C 6 -9.140625 6.890625 -8.769531 7.546875 -8.03125 C 8.203125 -7.289062 8.53125 -6.3125 8.53125 -5.09375 L 8.53125 -4.234375 L 2.34375 -4.234375 C 2.375 -3.179688 2.640625 -2.378906 3.140625 -1.828125 C 3.648438 -1.285156 4.363281 -1.015625 5.28125 -1.015625 C 6.25 -1.015625 7.203125 -1.21875 8.140625 -1.625 L 8.140625 -0.421875 C 7.660156 -0.210938 7.207031 -0.0664062 6.78125 0.015625 C 6.351562 0.109375 5.835938 0.15625 5.234375 0.15625 Z M 4.859375 -8 C 4.140625 -8 3.566406 -7.765625 3.140625 -7.296875 C 2.710938 -6.828125 2.457031 -6.175781 2.375 -5.34375 L 7.078125 -5.34375 C 7.078125 -6.195312 6.882812 -6.851562 6.5 -7.3125 C 6.113281 -7.769531 5.566406 -8 4.859375 -8 Z M 4.859375 -8 "/></g></g><g style="fill:#000000;fill-opacity:1;"><g transform="translate(240.559725, 540.749434)"><path style="stroke:none" d="M 7.578125 0 L 7.578125 -5.796875 C 7.578125 -6.535156 7.410156 -7.082031 7.078125 -7.4375 C 6.742188 -7.800781 6.222656 -7.984375 5.515625 -7.984375 C 4.578125 -7.984375 3.890625 -7.726562 3.453125 -7.21875 C 3.015625 -6.707031 2.796875 -5.867188 2.796875 -4.703125 L 2.796875 0 L 1.4375 0 L 1.4375 -8.96875 L 2.546875 -8.96875 L 2.765625 -7.75 L 2.828125 -7.75 C 3.109375 -8.1875 3.5 -8.523438 4 -8.765625 C 4.5 -9.015625 5.0625 -9.140625 5.6875 -9.140625 C 6.757812 -9.140625 7.566406 -8.878906 8.109375 -8.359375 C 8.660156 -7.835938 8.9375 -7.003906 8.9375 -5.859375 L 8.9375 0 Z M 7.578125 0 "/></g></g><g style="fill:#000000;fill-opacity:1;"><g transform="translate(250.846131, 540.749434)"><path style="stroke:none" d="M 7.546875 -1.203125 L 7.46875 -1.203125 C 6.84375 -0.296875 5.90625 0.15625 4.65625 0.15625 C 3.476562 0.15625 2.5625 -0.242188 1.90625 -1.046875 C 1.257812 -1.847656 0.9375 -2.988281 0.9375 -4.46875 C 0.9375 -5.945312 1.265625 -7.09375 1.921875 -7.90625 C 2.578125 -8.726562 3.488281 -9.140625 4.65625 -9.140625 C 5.875 -9.140625 6.804688 -8.695312 7.453125 -7.8125 L 7.5625 -7.8125 L 7.5 -8.453125 L 7.46875 -9.09375 L 7.46875 -12.734375 L 8.828125 -12.734375 L 8.828125 0 L 7.734375 0 Z M 4.828125 -0.96875 C 5.753906 -0.96875 6.425781 -1.21875 6.84375 -1.71875 C 7.257812 -2.226562 7.46875 -3.046875 7.46875 -4.171875 L 7.46875 -4.46875 C 7.46875 -5.738281 7.253906 -6.644531 6.828125 -7.1875 C 6.410156 -7.726562 5.738281 -8 4.8125 -8 C 4.019531 -8 3.410156 -7.6875 2.984375 -7.0625 C 2.554688 -6.445312 2.34375 -5.570312 2.34375 -4.4375 C 2.34375 -3.289062 2.550781 -2.425781 2.96875 -1.84375 C 3.394531 -1.257812 4.015625 -0.96875 4.828125 -0.96875 Z M 4.828125 -0.96875 "/></g></g><g style="fill:#000000;fill-opacity:1;"><g transform="translate(261.116171, 540.749434)"><path style="stroke:none" d="M 2.796875 0 L 1.4375 0 L 1.4375 -8.96875 L 2.796875 -8.96875 Z M 1.328125 -11.40625 C 1.328125 -11.71875 1.398438 -11.941406 1.546875 -12.078125 C 1.703125 -12.222656 1.894531 -12.296875 2.125 -12.296875 C 2.34375 -12.296875 2.53125 -12.222656 2.6875 -12.078125 C 2.851562 -11.929688 2.9375 -11.707031 2.9375 -11.40625 C 2.9375 -11.09375 2.851562 -10.863281 2.6875 -10.71875 C 2.53125 -10.570312 2.34375 -10.5 2.125 -10.5 C 1.894531 -10.5 1.703125 -10.570312 1.546875 -10.71875 C 1.398438 -10.863281 1.328125 -11.09375 1.328125 -11.40625 Z M 1.328125 -11.40625 "/></g></g><g style="fill:#000000;fill-opacity:1;"><g transform="translate(265.355117, 540.749434)"><path style="stroke:none" d="M 5.234375 0.15625 C 3.898438 0.15625 2.847656 -0.242188 2.078125 -1.046875 C 1.316406 -1.859375 0.9375 -2.976562 0.9375 -4.40625 C 0.9375 -5.851562 1.289062 -7.003906 2 -7.859375 C 2.71875 -8.710938 3.675781 -9.140625 4.875 -9.140625 C 6 -9.140625 6.890625 -8.769531 7.546875 -8.03125 C 8.203125 -7.289062 8.53125 -6.3125 8.53125 -5.09375 L 8.53125 -4.234375 L 2.34375 -4.234375 C 2.375 -3.179688 2.640625 -2.378906 3.140625 -1.828125 C 3.648438 -1.285156 4.363281 -1.015625 5.28125 -1.015625 C 6.25 -1.015625 7.203125 -1.21875 8.140625 -1.625 L 8.140625 -0.421875 C 7.660156 -0.210938 7.207031 -0.0664062 6.78125 0.015625 C 6.351562 0.109375 5.835938 0.15625 5.234375 0.15625 Z M 4.859375 -8 C 4.140625 -8 3.566406 -7.765625 3.140625 -7.296875 C 2.710938 -6.828125 2.457031 -6.175781 2.375 -5.34375 L 7.078125 -5.34375 C 7.078125 -6.195312 6.882812 -6.851562 6.5 -7.3125 C 6.113281 -7.769531 5.566406 -8 4.859375 -8 Z M 4.859375 -8 "/></g></g><g style="fill:#000000;fill-opacity:1;"><g transform="translate(274.757727, 540.749434)"><path style="stroke:none" d="M 7.578125 0 L 7.578125 -5.796875 C 7.578125 -6.535156 7.410156 -7.082031 7.078125 -7.4375 C 6.742188 -7.800781 6.222656 -7.984375 5.515625 -7.984375 C 4.578125 -7.984375 3.890625 -7.726562 3.453125 -7.21875 C 3.015625 -6.707031 2.796875 -5.867188 2.796875 -4.703125 L 2.796875 0 L 1.4375 0 L 1.4375 -8.96875 L 2.546875 -8.96875 L 2.765625 -7.75 L 2.828125 -7.75 C 3.109375 -8.1875 3.5 -8.523438 4 -8.765625 C 4.5 -9.015625 5.0625 -9.140625 5.6875 -9.140625 C 6.757812 -9.140625 7.566406 -8.878906 8.109375 -8.359375 C 8.660156 -7.835938 8.9375 -7.003906 8.9375 -5.859375 L 8.9375 0 Z M 7.578125 0 "/></g></g><g style="fill:#000000;fill-opacity:1;"><g transform="translate(285.044134, 540.749434)"><path style="stroke:none" d="M 4.34375 -0.953125 C 4.582031 -0.953125 4.8125 -0.96875 5.03125 -1 C 5.257812 -1.039062 5.4375 -1.082031 5.5625 -1.125 L 5.5625 -0.078125 C 5.414062 -0.00390625 5.195312 0.0507812 4.90625 0.09375 C 4.625 0.132812 4.367188 0.15625 4.140625 0.15625 C 2.398438 0.15625 1.53125 -0.753906 1.53125 -2.578125 L 1.53125 -7.921875 L 0.25 -7.921875 L 0.25 -8.578125 L 1.53125 -9.140625 L 2.109375 -11.046875 L 2.890625 -11.046875 L 2.890625 -8.96875 L 5.5 -8.96875 L 5.5 -7.921875 L 2.890625 -7.921875 L 2.890625 -2.640625 C 2.890625 -2.097656 3.019531 -1.679688 3.28125 -1.390625 C 3.539062 -1.097656 3.894531 -0.953125 4.34375 -0.953125 Z M 4.34375 -0.953125 "/></g></g><g style="fill:#000000;fill-opacity:1;"><g transform="translate(290.960661, 540.749434)"><path style="stroke:none" d="M 5.234375 0.15625 C 3.898438 0.15625 2.847656 -0.242188 2.078125 -1.046875 C 1.316406 -1.859375 0.9375 -2.976562 0.9375 -4.40625 C 0.9375 -5.851562 1.289062 -7.003906 2 -7.859375 C 2.71875 -8.710938 3.675781 -9.140625 4.875 -9.140625 C 6 -9.140625 6.890625 -8.769531 7.546875 -8.03125 C 8.203125 -7.289062 8.53125 -6.3125 8.53125 -5.09375 L 8.53125 -4.234375 L 2.34375 -4.234375 C 2.375 -3.179688 2.640625 -2.378906 3.140625 -1.828125 C 3.648438 -1.285156 4.363281 -1.015625 5.28125 -1.015625 C 6.25 -1.015625 7.203125 -1.21875 8.140625 -1.625 L 8.140625 -0.421875 C 7.660156 -0.210938 7.207031 -0.0664062 6.78125 0.015625 C 6.351562 0.109375 5.835938 0.15625 5.234375 0.15625 Z M 4.859375 -8 C 4.140625 -8 3.566406 -7.765625 3.140625 -7.296875 C 2.710938 -6.828125 2.457031 -6.175781 2.375 -5.34375 L 7.078125 -5.34375 C 7.078125 -6.195312 6.882812 -6.851562 6.5 -7.3125 C 6.113281 -7.769531 5.566406 -8 4.859375 -8 Z M 4.859375 -8 "/></g></g><g style="fill:#000000;fill-opacity:1;"><g transform="translate(237.206201, 559.95553)"><path style="stroke:none" d="M 5.859375 0 L 4.53125 0 L 4.53125 -8.53125 C 4.53125 -9.238281 4.550781 -9.910156 4.59375 -10.546875 C 4.476562 -10.429688 4.347656 -10.3125 4.203125 -10.1875 C 4.066406 -10.0625 3.421875 -9.53125 2.265625 -8.59375 L 1.53125 -9.515625 L 4.703125 -11.96875 L 5.859375 -11.96875 Z M 5.859375 0 "/></g></g><g style="fill:#000000;fill-opacity:1;"><g transform="translate(246.788844, 559.95553)"><path style="stroke:none" d="M 8.6875 -6.859375 C 8.6875 -2.179688 6.875 0.15625 3.25 0.15625 C 2.613281 0.15625 2.113281 0.101562 1.75 0 L 1.75 -1.171875 C 2.1875 -1.023438 2.679688 -0.953125 3.234375 -0.953125 C 4.546875 -0.953125 5.535156 -1.359375 6.203125 -2.171875 C 6.867188 -2.984375 7.234375 -4.226562 7.296875 -5.90625 L 7.203125 -5.90625 C 6.898438 -5.445312 6.5 -5.097656 6 -4.859375 C 5.5 -4.628906 4.941406 -4.515625 4.328125 -4.515625 C 3.265625 -4.515625 2.421875 -4.828125 1.796875 -5.453125 C 1.179688 -6.085938 0.875 -6.972656 0.875 -8.109375 C 0.875 -9.359375 1.21875 -10.34375 1.90625 -11.0625 C 2.601562 -11.78125 3.519531 -12.140625 4.65625 -12.140625 C 5.46875 -12.140625 6.175781 -11.929688 6.78125 -11.515625 C 7.394531 -11.097656 7.863281 -10.488281 8.1875 -9.6875 C 8.519531 -8.882812 8.6875 -7.941406 8.6875 -6.859375 Z M 4.65625 -10.984375 C 3.875 -10.984375 3.269531 -10.726562 2.84375 -10.21875 C 2.414062 -9.71875 2.203125 -9.019531 2.203125 -8.125 C 2.203125 -7.34375 2.398438 -6.722656 2.796875 -6.265625 C 3.191406 -5.816406 3.789062 -5.59375 4.59375 -5.59375 C 5.09375 -5.59375 5.550781 -5.691406 5.96875 -5.890625 C 6.382812 -6.097656 6.710938 -6.375 6.953125 -6.71875 C 7.191406 -7.070312 7.3125 -7.441406 7.3125 -7.828125 C 7.3125 -8.398438 7.195312 -8.925781 6.96875 -9.40625 C 6.75 -9.894531 6.4375 -10.28125 6.03125 -10.5625 C 5.632812 -10.84375 5.175781 -10.984375 4.65625 -10.984375 Z M 4.65625 -10.984375 "/></g></g><g style="fill:#000000;fill-opacity:1;"><g transform="translate(256.371487, 559.95553)"><path style="stroke:none" d="M 1.25 -0.875 C 1.25 -1.238281 1.332031 -1.515625 1.5 -1.703125 C 1.664062 -1.890625 1.898438 -1.984375 2.203125 -1.984375 C 2.523438 -1.984375 2.773438 -1.890625 2.953125 -1.703125 C 3.128906 -1.515625 3.21875 -1.238281 3.21875 -0.875 C 3.21875 -0.507812 3.125 -0.234375 2.9375 -0.046875 C 2.757812 0.140625 2.515625 0.234375 2.203125 0.234375 C 1.929688 0.234375 1.703125 0.148438 1.515625 -0.015625 C 1.335938 -0.191406 1.25 -0.476562 1.25 -0.875 Z M 1.25 -0.875 "/></g></g><g style="fill:#000000;fill-opacity:1;"><g transform="translate(260.831388, 559.95553)"><path style="stroke:none" d="M 8.6875 0 L 0.8125 0 L 0.8125 -1.171875 L 3.96875 -4.34375 C 4.925781 -5.3125 5.554688 -6.003906 5.859375 -6.421875 C 6.171875 -6.835938 6.398438 -7.238281 6.546875 -7.625 C 6.703125 -8.019531 6.78125 -8.445312 6.78125 -8.90625 C 6.78125 -9.539062 6.585938 -10.046875 6.203125 -10.421875 C 5.816406 -10.796875 5.28125 -10.984375 4.59375 -10.984375 C 4.09375 -10.984375 3.617188 -10.898438 3.171875 -10.734375 C 2.734375 -10.566406 2.238281 -10.269531 1.6875 -9.84375 L 0.96875 -10.765625 C 2.070312 -11.679688 3.273438 -12.140625 4.578125 -12.140625 C 5.703125 -12.140625 6.582031 -11.847656 7.21875 -11.265625 C 7.851562 -10.691406 8.171875 -9.921875 8.171875 -8.953125 C 8.171875 -8.191406 7.957031 -7.441406 7.53125 -6.703125 C 7.113281 -5.960938 6.320312 -5.023438 5.15625 -3.890625 L 2.53125 -1.328125 L 2.53125 -1.265625 L 8.6875 -1.265625 Z M 8.6875 0 "/></g></g><g style="fill:#000000;fill-opacity:1;"><g transform="translate(270.41403, 559.95553)"><path style="stroke:none" d="M 1.984375 -8.40625 C 1.984375 -7.46875 2.082031 -6.765625 2.28125 -6.296875 C 2.488281 -5.835938 2.816406 -5.609375 3.265625 -5.609375 C 4.160156 -5.609375 4.609375 -6.539062 4.609375 -8.40625 C 4.609375 -10.25 4.160156 -11.171875 3.265625 -11.171875 C 2.816406 -11.171875 2.488281 -10.941406 2.28125 -10.484375 C 2.082031 -10.023438 1.984375 -9.332031 1.984375 -8.40625 Z M 5.734375 -8.40625 C 5.734375 -7.15625 5.523438 -6.210938 5.109375 -5.578125 C 4.691406 -4.941406 4.078125 -4.625 3.265625 -4.625 C 2.503906 -4.625 1.910156 -4.945312 1.484375 -5.59375 C 1.054688 -6.25 0.84375 -7.1875 0.84375 -8.40625 C 0.84375 -9.632812 1.046875 -10.5625 1.453125 -11.1875 C 1.867188 -11.820312 2.472656 -12.140625 3.265625 -12.140625 C 4.054688 -12.140625 4.664062 -11.8125 5.09375 -11.15625 C 5.519531 -10.507812 5.734375 -9.59375 5.734375 -8.40625 Z M 9.1875 -3.609375 C 9.1875 -2.671875 9.285156 -1.96875 9.484375 -1.5 C 9.691406 -1.039062 10.023438 -0.8125 10.484375 -0.8125 C 10.941406 -0.8125 11.28125 -1.039062 11.5 -1.5 C 11.71875 -1.957031 11.828125 -2.660156 11.828125 -3.609375 C 11.828125 -4.535156 11.71875 -5.222656 11.5 -5.671875 C 11.28125 -6.128906 10.941406 -6.359375 10.484375 -6.359375 C 10.023438 -6.359375 9.691406 -6.128906 9.484375 -5.671875 C 9.285156 -5.222656 9.1875 -4.535156 9.1875 -3.609375 Z M 12.9375 -3.609375 C 12.9375 -2.367188 12.726562 -1.429688 12.3125 -0.796875 C 11.894531 -0.160156 11.285156 0.15625 10.484375 0.15625 C 9.703125 0.15625 9.101562 -0.164062 8.6875 -0.8125 C 8.269531 -1.457031 8.0625 -2.390625 8.0625 -3.609375 C 8.0625 -4.835938 8.265625 -5.765625 8.671875 -6.390625 C 9.078125 -7.023438 9.679688 -7.34375 10.484375 -7.34375 C 11.253906 -7.34375 11.851562 -7.019531 12.28125 -6.375 C 12.71875 -5.738281 12.9375 -4.816406 12.9375 -3.609375 Z M 10.828125 -11.96875 L 4.1875 0 L 2.984375 0 L 9.625 -11.96875 Z M 10.828125 -11.96875 "/></g></g><g style="fill:#000000;fill-opacity:1;"><g transform="translate(386.696709, 29.180366)"><path style="stroke:none" d="M 9.171875 0 L 7.671875 -3.8125 L 2.875 -3.8125 L 1.40625 0 L 0 0 L 4.734375 -12.015625 L 5.90625 -12.015625 L 10.609375 0 Z M 7.25 -5.0625 L 5.859375 -8.765625 C 5.671875 -9.234375 5.484375 -9.8125 5.296875 -10.5 C 5.171875 -9.96875 5 -9.390625 4.78125 -8.765625 L 3.375 -5.0625 Z M 7.25 -5.0625 "/></g></g><g style="fill:#000000;fill-opacity:1;"><g transform="translate(397.302259, 29.180366)"><path style="stroke:none" d="M 4.34375 -0.953125 C 4.582031 -0.953125 4.8125 -0.96875 5.03125 -1 C 5.257812 -1.039062 5.4375 -1.082031 5.5625 -1.125 L 5.5625 -0.078125 C 5.414062 -0.00390625 5.195312 0.0507812 4.90625 0.09375 C 4.625 0.132812 4.367188 0.15625 4.140625 0.15625 C 2.398438 0.15625 1.53125 -0.753906 1.53125 -2.578125 L 1.53125 -7.921875 L 0.25 -7.921875 L 0.25 -8.578125 L 1.53125 -9.140625 L 2.109375 -11.046875 L 2.890625 -11.046875 L 2.890625 -8.96875 L 5.5 -8.96875 L 5.5 -7.921875 L 2.890625 -7.921875 L 2.890625 -2.640625 C 2.890625 -2.097656 3.019531 -1.679688 3.28125 -1.390625 C 3.539062 -1.097656 3.894531 -0.953125 4.34375 -0.953125 Z M 4.34375 -0.953125 "/></g></g><g style="fill:#000000;fill-opacity:1;"><g transform="translate(403.218786, 29.180366)"><path style="stroke:none" d="M 5.53125 -9.140625 C 5.925781 -9.140625 6.285156 -9.101562 6.609375 -9.03125 L 6.421875 -7.78125 C 6.046875 -7.863281 5.71875 -7.90625 5.4375 -7.90625 C 4.707031 -7.90625 4.082031 -7.609375 3.5625 -7.015625 C 3.050781 -6.421875 2.796875 -5.6875 2.796875 -4.8125 L 2.796875 0 L 1.4375 0 L 1.4375 -8.96875 L 2.5625 -8.96875 L 2.71875 -7.3125 L 2.78125 -7.3125 C 3.113281 -7.894531 3.515625 -8.34375 3.984375 -8.65625 C 4.453125 -8.976562 4.96875 -9.140625 5.53125 -9.140625 Z M 5.53125 -9.140625 "/></g></g><g style="fill:#000000;fill-opacity:1;"><g transform="translate(410.06002, 29.180366)"><path style="stroke:none" d="M 6.953125 0 L 6.6875 -1.28125 L 6.625 -1.28125 C 6.175781 -0.71875 5.726562 -0.335938 5.28125 -0.140625 C 4.832031 0.0546875 4.28125 0.15625 3.625 0.15625 C 2.726562 0.15625 2.023438 -0.0703125 1.515625 -0.53125 C 1.015625 -0.988281 0.765625 -1.640625 0.765625 -2.484375 C 0.765625 -4.296875 2.210938 -5.242188 5.109375 -5.328125 L 6.640625 -5.375 L 6.640625 -5.9375 C 6.640625 -6.632812 6.488281 -7.148438 6.1875 -7.484375 C 5.882812 -7.828125 5.398438 -8 4.734375 -8 C 3.984375 -8 3.132812 -7.769531 2.1875 -7.3125 L 1.78125 -8.34375 C 2.21875 -8.582031 2.695312 -8.769531 3.21875 -8.90625 C 3.75 -9.050781 4.28125 -9.125 4.8125 -9.125 C 5.882812 -9.125 6.675781 -8.882812 7.1875 -8.40625 C 7.707031 -7.925781 7.96875 -7.164062 7.96875 -6.125 L 7.96875 0 Z M 3.890625 -0.953125 C 4.734375 -0.953125 5.394531 -1.179688 5.875 -1.640625 C 6.363281 -2.109375 6.609375 -2.765625 6.609375 -3.609375 L 6.609375 -4.40625 L 5.25 -4.359375 C 4.164062 -4.316406 3.382812 -4.144531 2.90625 -3.84375 C 2.425781 -3.550781 2.1875 -3.09375 2.1875 -2.46875 C 2.1875 -1.976562 2.335938 -1.601562 2.640625 -1.34375 C 2.941406 -1.082031 3.359375 -0.953125 3.890625 -0.953125 Z M 3.890625 -0.953125 "/></g></g><g style="fill:#000000;fill-opacity:1;"><g transform="translate(419.380797, 29.180366)"><path style="stroke:none" d="M 7.234375 -2.453125 C 7.234375 -1.609375 6.921875 -0.960938 6.296875 -0.515625 C 5.671875 -0.0664062 4.796875 0.15625 3.671875 0.15625 C 2.484375 0.15625 1.554688 -0.03125 0.890625 -0.40625 L 0.890625 -1.65625 C 1.316406 -1.4375 1.773438 -1.265625 2.265625 -1.140625 C 2.765625 -1.015625 3.242188 -0.953125 3.703125 -0.953125 C 4.410156 -0.953125 4.957031 -1.066406 5.34375 -1.296875 C 5.726562 -1.523438 5.921875 -1.867188 5.921875 -2.328125 C 5.921875 -2.679688 5.769531 -2.984375 5.46875 -3.234375 C 5.164062 -3.484375 4.570312 -3.773438 3.6875 -4.109375 C 2.851562 -4.421875 2.257812 -4.691406 1.90625 -4.921875 C 1.5625 -5.148438 1.300781 -5.410156 1.125 -5.703125 C 0.957031 -6.003906 0.875 -6.359375 0.875 -6.765625 C 0.875 -7.492188 1.171875 -8.070312 1.765625 -8.5 C 2.359375 -8.925781 3.171875 -9.140625 4.203125 -9.140625 C 5.171875 -9.140625 6.117188 -8.941406 7.046875 -8.546875 L 6.5625 -7.4375 C 5.65625 -7.8125 4.835938 -8 4.109375 -8 C 3.460938 -8 2.972656 -7.894531 2.640625 -7.6875 C 2.316406 -7.488281 2.15625 -7.210938 2.15625 -6.859375 C 2.15625 -6.617188 2.21875 -6.414062 2.34375 -6.25 C 2.46875 -6.082031 2.664062 -5.921875 2.9375 -5.765625 C 3.207031 -5.609375 3.734375 -5.382812 4.515625 -5.09375 C 5.578125 -4.707031 6.296875 -4.316406 6.671875 -3.921875 C 7.046875 -3.535156 7.234375 -3.046875 7.234375 -2.453125 Z M 7.234375 -2.453125 "/></g></g><g style="fill:#000000;fill-opacity:1;"><g transform="translate(427.375881, 29.180366)"><path style="stroke:none" d="M 6.953125 0 L 6.6875 -1.28125 L 6.625 -1.28125 C 6.175781 -0.71875 5.726562 -0.335938 5.28125 -0.140625 C 4.832031 0.0546875 4.28125 0.15625 3.625 0.15625 C 2.726562 0.15625 2.023438 -0.0703125 1.515625 -0.53125 C 1.015625 -0.988281 0.765625 -1.640625 0.765625 -2.484375 C 0.765625 -4.296875 2.210938 -5.242188 5.109375 -5.328125 L 6.640625 -5.375 L 6.640625 -5.9375 C 6.640625 -6.632812 6.488281 -7.148438 6.1875 -7.484375 C 5.882812 -7.828125 5.398438 -8 4.734375 -8 C 3.984375 -8 3.132812 -7.769531 2.1875 -7.3125 L 1.78125 -8.34375 C 2.21875 -8.582031 2.695312 -8.769531 3.21875 -8.90625 C 3.75 -9.050781 4.28125 -9.125 4.8125 -9.125 C 5.882812 -9.125 6.675781 -8.882812 7.1875 -8.40625 C 7.707031 -7.925781 7.96875 -7.164062 7.96875 -6.125 L 7.96875 0 Z M 3.890625 -0.953125 C 4.734375 -0.953125 5.394531 -1.179688 5.875 -1.640625 C 6.363281 -2.109375 6.609375 -2.765625 6.609375 -3.609375 L 6.609375 -4.40625 L 5.25 -4.359375 C 4.164062 -4.316406 3.382812 -4.144531 2.90625 -3.84375 C 2.425781 -3.550781 2.1875 -3.09375 2.1875 -2.46875 C 2.1875 -1.976562 2.335938 -1.601562 2.640625 -1.34375 C 2.941406 -1.082031 3.359375 -0.953125 3.890625 -0.953125 Z M 3.890625 -0.953125 "/></g></g><g style="fill:#000000;fill-opacity:1;"><g transform="translate(436.696659, 29.180366)"><path style="stroke:none" d="M 7.546875 -1.203125 L 7.46875 -1.203125 C 6.84375 -0.296875 5.90625 0.15625 4.65625 0.15625 C 3.476562 0.15625 2.5625 -0.242188 1.90625 -1.046875 C 1.257812 -1.847656 0.9375 -2.988281 0.9375 -4.46875 C 0.9375 -5.945312 1.265625 -7.09375 1.921875 -7.90625 C 2.578125 -8.726562 3.488281 -9.140625 4.65625 -9.140625 C 5.875 -9.140625 6.804688 -8.695312 7.453125 -7.8125 L 7.5625 -7.8125 L 7.5 -8.453125 L 7.46875 -9.09375 L 7.46875 -12.734375 L 8.828125 -12.734375 L 8.828125 0 L 7.734375 0 Z M 4.828125 -0.96875 C 5.753906 -0.96875 6.425781 -1.21875 6.84375 -1.71875 C 7.257812 -2.226562 7.46875 -3.046875 7.46875 -4.171875 L 7.46875 -4.46875 C 7.46875 -5.738281 7.253906 -6.644531 6.828125 -7.1875 C 6.410156 -7.726562 5.738281 -8 4.8125 -8 C 4.019531 -8 3.410156 -7.6875 2.984375 -7.0625 C 2.554688 -6.445312 2.34375 -5.570312 2.34375 -4.4375 C 2.34375 -3.289062 2.550781 -2.425781 2.96875 -1.84375 C 3.394531 -1.257812 4.015625 -0.96875 4.828125 -0.96875 Z M 4.828125 -0.96875 "/></g></g><g style="fill:#000000;fill-opacity:1;"><g transform="translate(446.966698, 29.180366)"><path style="stroke:none" d="M 6.953125 0 L 6.6875 -1.28125 L 6.625 -1.28125 C 6.175781 -0.71875 5.726562 -0.335938 5.28125 -0.140625 C 4.832031 0.0546875 4.28125 0.15625 3.625 0.15625 C 2.726562 0.15625 2.023438 -0.0703125 1.515625 -0.53125 C 1.015625 -0.988281 0.765625 -1.640625 0.765625 -2.484375 C 0.765625 -4.296875 2.210938 -5.242188 5.109375 -5.328125 L 6.640625 -5.375 L 6.640625 -5.9375 C 6.640625 -6.632812 6.488281 -7.148438 6.1875 -7.484375 C 5.882812 -7.828125 5.398438 -8 4.734375 -8 C 3.984375 -8 3.132812 -7.769531 2.1875 -7.3125 L 1.78125 -8.34375 C 2.21875 -8.582031 2.695312 -8.769531 3.21875 -8.90625 C 3.75 -9.050781 4.28125 -9.125 4.8125 -9.125 C 5.882812 -9.125 6.675781 -8.882812 7.1875 -8.40625 C 7.707031 -7.925781 7.96875 -7.164062 7.96875 -6.125 L 7.96875 0 Z M 3.890625 -0.953125 C 4.734375 -0.953125 5.394531 -1.179688 5.875 -1.640625 C 6.363281 -2.109375 6.609375 -2.765625 6.609375 -3.609375 L 6.609375 -4.40625 L 5.25 -4.359375 C 4.164062 -4.316406 3.382812 -4.144531 2.90625 -3.84375 C 2.425781 -3.550781 2.1875 -3.09375 2.1875 -2.46875 C 2.1875 -1.976562 2.335938 -1.601562 2.640625 -1.34375 C 2.941406 -1.082031 3.359375 -0.953125 3.890625 -0.953125 Z M 3.890625 -0.953125 "/></g></g><g style="fill:#000000;fill-opacity:1;"><g transform="translate(402.077668, 48.374971)"><path style="stroke:none" d="M 2.328125 0 L 7.296875 -10.71875 L 0.765625 -10.71875 L 0.765625 -11.96875 L 8.734375 -11.96875 L 8.734375 -10.875 L 3.84375 0 Z M 2.328125 0 "/></g></g><g style="fill:#000000;fill-opacity:1;"><g transform="translate(411.660311, 48.374971)"><path style="stroke:none" d="M 1.25 -0.875 C 1.25 -1.238281 1.332031 -1.515625 1.5 -1.703125 C 1.664062 -1.890625 1.898438 -1.984375 2.203125 -1.984375 C 2.523438 -1.984375 2.773438 -1.890625 2.953125 -1.703125 C 3.128906 -1.515625 3.21875 -1.238281 3.21875 -0.875 C 3.21875 -0.507812 3.125 -0.234375 2.9375 -0.046875 C 2.757812 0.140625 2.515625 0.234375 2.203125 0.234375 C 1.929688 0.234375 1.703125 0.148438 1.515625 -0.015625 C 1.335938 -0.191406 1.25 -0.476562 1.25 -0.875 Z M 1.25 -0.875 "/></g></g><g style="fill:#000000;fill-opacity:1;"><g transform="translate(416.120212, 48.374971)"><path style="stroke:none" d="M 2.328125 0 L 7.296875 -10.71875 L 0.765625 -10.71875 L 0.765625 -11.96875 L 8.734375 -11.96875 L 8.734375 -10.875 L 3.84375 0 Z M 2.328125 0 "/></g></g><g style="fill:#000000;fill-opacity:1;"><g transform="translate(425.702855, 48.374971)"><path style="stroke:none" d="M 1.984375 -8.40625 C 1.984375 -7.46875 2.082031 -6.765625 2.28125 -6.296875 C 2.488281 -5.835938 2.816406 -5.609375 3.265625 -5.609375 C 4.160156 -5.609375 4.609375 -6.539062 4.609375 -8.40625 C 4.609375 -10.25 4.160156 -11.171875 3.265625 -11.171875 C 2.816406 -11.171875 2.488281 -10.941406 2.28125 -10.484375 C 2.082031 -10.023438 1.984375 -9.332031 1.984375 -8.40625 Z M 5.734375 -8.40625 C 5.734375 -7.15625 5.523438 -6.210938 5.109375 -5.578125 C 4.691406 -4.941406 4.078125 -4.625 3.265625 -4.625 C 2.503906 -4.625 1.910156 -4.945312 1.484375 -5.59375 C 1.054688 -6.25 0.84375 -7.1875 0.84375 -8.40625 C 0.84375 -9.632812 1.046875 -10.5625 1.453125 -11.1875 C 1.867188 -11.820312 2.472656 -12.140625 3.265625 -12.140625 C 4.054688 -12.140625 4.664062 -11.8125 5.09375 -11.15625 C 5.519531 -10.507812 5.734375 -9.59375 5.734375 -8.40625 Z M 9.1875 -3.609375 C 9.1875 -2.671875 9.285156 -1.96875 9.484375 -1.5 C 9.691406 -1.039062 10.023438 -0.8125 10.484375 -0.8125 C 10.941406 -0.8125 11.28125 -1.039062 11.5 -1.5 C 11.71875 -1.957031 11.828125 -2.660156 11.828125 -3.609375 C 11.828125 -4.535156 11.71875 -5.222656 11.5 -5.671875 C 11.28125 -6.128906 10.941406 -6.359375 10.484375 -6.359375 C 10.023438 -6.359375 9.691406 -6.128906 9.484375 -5.671875 C 9.285156 -5.222656 9.1875 -4.535156 9.1875 -3.609375 Z M 12.9375 -3.609375 C 12.9375 -2.367188 12.726562 -1.429688 12.3125 -0.796875 C 11.894531 -0.160156 11.285156 0.15625 10.484375 0.15625 C 9.703125 0.15625 9.101562 -0.164062 8.6875 -0.8125 C 8.269531 -1.457031 8.0625 -2.390625 8.0625 -3.609375 C 8.0625 -4.835938 8.265625 -5.765625 8.671875 -6.390625 C 9.078125 -7.023438 9.679688 -7.34375 10.484375 -7.34375 C 11.253906 -7.34375 11.851562 -7.019531 12.28125 -6.375 C 12.71875 -5.738281 12.9375 -4.816406 12.9375 -3.609375 Z M 10.828125 -11.96875 L 4.1875 0 L 2.984375 0 L 9.625 -11.96875 Z M 10.828125 -11.96875 "/></g></g></g></svg>