<svg xmlns="http://www.w3.org/2000/svg" xmlns:xlink="http://www.w3.org/1999/xlink" width="1024" zoomAndPan="magnify" viewBox="0 0 768 576" height="768" preserveAspectRatio="xMidYMid meet" version="1.2"><defs><clipPath id="d2e27b556f"><path d="M 103.433594 17.449219 L 104 17.449219 L 104 535.273438 L 103.433594 535.273438 Z M 103.433594 17.449219 "/></clipPath><clipPath id="241dd071a4"><path d="M 209 17.449219 L 210 17.449219 L 210 535.273438 L 209 535.273438 Z M 209 17.449219 "/></clipPath><clipPath id="16f1168125"><path d="M 315 17.449219 L 316 17.449219 L 316 535.273438 L 315 535.273438 Z M 315 17.449219 "/></clipPath><clipPath id="a18d9f3f6a"><path d="M 421 17.449219 L 422 17.449219 L 422 535.273438 L 421 535.273438 Z M 421 17.449219 "/></clipPath><clipPath id="6c8dfd4eaf"><path d="M 527 17.449219 L 528 17.449219 L 528 535.273438 L 527 535.273438 Z M 527 17.449219 "/></clipPath><clipPath id="580b7914f9"><path d="M 633 17.449219 L 634 17.449219 L 634 535.273438 L 633 535.273438 Z M 633 17.449219 "/></clipPath><clipPath id="4cf62d0b6a"><path d="M 739 17.449219 L 739.625 17.449219 L 739.625 535.273438 L 739 535.273438 Z M 739 17.449219 "/></clipPath><clipPath id="5004fbf062"><path d="M 99 544 L 108 544 L 108 558.257812 L 99 558.257812 Z M 99 544 "/></clipPath><clipPath id="1f78a115a4"><path d="M 205 545 L 214 545 L 214 558.257812 L 205 558.257812 Z M 205 545 "/></clipPath><clipPath id="1bd33b241f"><path d="M 306 545 L 311 545 L 311 558.257812 L 306 558.257812 Z M 306 545 "/></clipPath><clipPath id="b47af6b370"><path d="M 316 544 L 325 544 L 325 558.257812 L 316 558.257812 Z M 316 544 "/></clipPath><clipPath id="ced6d37363"><path d="M 412 545 L 418 545 L 418 558.257812 L 412 558.257812 Z M 412 545 "/></clipPath><clipPath id="2c16d6ba31"><path d="M 422 545 L 431 545 L 431 558.257812 L 422 558.257812 Z M 422 545 "/></clipPath><clipPath id="28eacf9c56"><path d="M 517 544 L 527 544 L 527 558.257812 L 517 558.257812 Z M 517 544 "/></clipPath><clipPath id="3f50d95fe9"><path d="M 528 544 L 538 544 L 538 558.257812 L 528 558.257812 Z M 528 544 "/></clipPath><clipPath id="d7fe709d46"><path d="M 623 544 L 633 544 L 633 558.257812 L 623 558.257812 Z M 623 544 "/></clipPath><clipPath id="2ffa653795"><path d="M 634 545 L 644 545 L 644 558.257812 L 634 558.257812 Z M 634 545 "/></clipPath><clipPath id="3236b07369"><path d="M 729 544 L 739 544 L 739 558.257812 L 729 558.257812 Z M 729 544 "/></clipPath><clipPath id="becd0bbb9e"><path d="M 740 544 L 750 544 L 750 558.257812 L 740 558.257812 Z M 740 544 "/></clipPath><clipPath id="c25dac9890"><path d="M 103.433594 17.449219 L 167.050781 17.449219 L 167.050781 178.152344 L 103.433594 178.152344 Z M 103.433594 17.449219 "/></clipPath><clipPath id="da0b8a9a15"><path d="M 103.433594 196.007812 L 379.117188 196.007812 L 379.117188 356.710938 L 103.433594 356.710938 Z M 103.433594 196.007812 "/></clipPath><clipPath id="3820a14801"><path d="M 103.433594 374.570312 L 654.796875 374.570312 L 654.796875 535.273438 L 103.433594 535.273438 Z M 103.433594 374.570312 "/></clipPath></defs><g id="ad0de92770"><g clip-rule="nonzero" clip-path="url(#d2e27b556f)"><path style="fill:none;stroke-width:1;stroke-linecap:butt;stroke-linejoin:miter;stroke:#000000;stroke-opacity:0.6;stroke-miterlimit:4;" d="M -0.0000992714 639.841952 L -0.0000992714 -0.000854125 " transform="matrix(0.809299,0,0,0.809299,103.433674,17.44991)"/></g><g clip-rule="nonzero" clip-path="url(#241dd071a4)"><path style="fill:none;stroke-width:1;stroke-linecap:butt;stroke-linejoin:miter;stroke:#000000;stroke-opacity:0.251;stroke-miterlimit:4;" d="M 131.016045 639.841952 L 131.016045 -0.000854125 " transform="matrix(0.809299,0,0,0.809299,103.433674,17.44991)"/></g><g clip-rule="nonzero" clip-path="url(#16f1168125)"><path style="fill:none;stroke-width:1;stroke-linecap:butt;stroke-linejoin:miter;stroke:#000000;stroke-opacity:0.251;stroke-miterlimit:4;" d="M 262.032189 639.841952 L 262.032189 -0.000854125 " transform="matrix(0.809299,0,0,0.809299,103.433674,17.44991)"/></g><g clip-rule="nonzero" clip-path="url(#a18d9f3f6a)"><path style="fill:none;stroke-width:1;stroke-linecap:butt;stroke-linejoin:miter;stroke:#000000;stroke-opacity:0.251;stroke-miterlimit:4;" d="M 393.048333 639.841952 L 393.048333 -0.000854125 " transform="matrix(0.809299,0,0,0.809299,103.433674,17.44991)"/></g><g clip-rule="nonzero" clip-path="url(#6c8dfd4eaf)"><path style="fill:none;stroke-width:1;stroke-linecap:butt;stroke-linejoin:miter;stroke:#000000;stroke-opacity:0.251;stroke-miterlimit:4;" d="M 524.064478 639.841952 L 524.064478 -0.000854125 " transform="matrix(0.809299,0,0,0.809299,103.433674,17.44991)"/></g><g clip-rule="nonzero" clip-path="url(#580b7914f9)"><path style="fill:none;stroke-width:1;stroke-linecap:butt;stroke-linejoin:miter;stroke:#000000;stroke-opacity:0.251;stroke-miterlimit:4;" d="M 655.080622 639.841952 L 655.080622 -0.000854125 " transform="matrix(0.809299,0,0,0.809299,103.433674,17.44991)"/></g><g clip-rule="nonzero" clip-path="url(#4cf62d0b6a)"><path style="fill:none;stroke-width:1;stroke-linecap:butt;stroke-linejoin:miter;stroke:#000000;stroke-opacity:0.251;stroke-miterlimit:4;" d="M 786.101593 639.841952 L 786.101593 -0.000854125 " transform="matrix(0.809299,0,0,0.809299,103.433674,17.44991)"/></g><g clip-rule="nonzero" clip-path="url(#5004fbf062)"><g style="fill:#000000;fill-opacity:1;"><g transform="translate(98.174649, 558.255933)"><path style="stroke:none" d="M 9.625 -6.609375 C 9.625 -4.328125 9.265625 -2.625 8.546875 -1.5 C 7.835938 -0.375 6.742188 0.1875 5.265625 0.1875 C 3.847656 0.1875 2.769531 -0.382812 2.03125 -1.53125 C 1.289062 -2.6875 0.921875 -4.378906 0.921875 -6.609375 C 0.921875 -8.898438 1.273438 -10.597656 1.984375 -11.703125 C 2.703125 -12.816406 3.796875 -13.375 5.265625 -13.375 C 6.691406 -13.375 7.773438 -12.796875 8.515625 -11.640625 C 9.253906 -10.484375 9.625 -8.804688 9.625 -6.609375 Z M 2.4375 -6.609375 C 2.4375 -4.691406 2.660156 -3.296875 3.109375 -2.421875 C 3.554688 -1.546875 4.273438 -1.109375 5.265625 -1.109375 C 6.253906 -1.109375 6.972656 -1.550781 7.421875 -2.4375 C 7.867188 -3.320312 8.09375 -4.710938 8.09375 -6.609375 C 8.09375 -8.492188 7.867188 -9.875 7.421875 -10.75 C 6.972656 -11.632812 6.253906 -12.078125 5.265625 -12.078125 C 4.273438 -12.078125 3.554688 -11.644531 3.109375 -10.78125 C 2.660156 -9.914062 2.4375 -8.523438 2.4375 -6.609375 Z M 2.4375 -6.609375 "/></g></g></g><g clip-rule="nonzero" clip-path="url(#1f78a115a4)"><g style="fill:#000000;fill-opacity:1;"><g transform="translate(204.206207, 558.255933)"><path style="stroke:none" d="M 5.015625 -8.046875 C 6.398438 -8.046875 7.488281 -7.703125 8.28125 -7.015625 C 9.082031 -6.328125 9.484375 -5.382812 9.484375 -4.1875 C 9.484375 -2.820312 9.050781 -1.75 8.1875 -0.96875 C 7.320312 -0.195312 6.125 0.1875 4.59375 0.1875 C 3.113281 0.1875 1.984375 -0.0507812 1.203125 -0.53125 L 1.203125 -1.96875 C 1.617188 -1.695312 2.140625 -1.484375 2.765625 -1.328125 C 3.390625 -1.179688 4.003906 -1.109375 4.609375 -1.109375 C 5.671875 -1.109375 6.492188 -1.359375 7.078125 -1.859375 C 7.660156 -2.359375 7.953125 -3.078125 7.953125 -4.015625 C 7.953125 -5.859375 6.828125 -6.78125 4.578125 -6.78125 C 4.003906 -6.78125 3.238281 -6.691406 2.28125 -6.515625 L 1.515625 -7.015625 L 2.015625 -13.171875 L 8.5625 -13.171875 L 8.5625 -11.796875 L 3.28125 -11.796875 L 2.953125 -7.84375 C 3.640625 -7.976562 4.328125 -8.046875 5.015625 -8.046875 Z M 5.015625 -8.046875 "/></g></g></g><g clip-rule="nonzero" clip-path="url(#1bd33b241f)"><g style="fill:#000000;fill-opacity:1;"><g transform="translate(304.560039, 558.255933)"><path style="stroke:none" d="M 6.4375 0 L 4.984375 0 L 4.984375 -9.390625 C 4.984375 -10.171875 5.007812 -10.910156 5.0625 -11.609375 C 4.925781 -11.484375 4.78125 -11.347656 4.625 -11.203125 C 4.46875 -11.066406 3.753906 -10.484375 2.484375 -9.453125 L 1.6875 -10.484375 L 5.1875 -13.171875 L 6.4375 -13.171875 Z M 6.4375 0 "/></g></g></g><g clip-rule="nonzero" clip-path="url(#b47af6b370)"><g style="fill:#000000;fill-opacity:1;"><g transform="translate(315.109046, 558.255933)"><path style="stroke:none" d="M 9.625 -6.609375 C 9.625 -4.328125 9.265625 -2.625 8.546875 -1.5 C 7.835938 -0.375 6.742188 0.1875 5.265625 0.1875 C 3.847656 0.1875 2.769531 -0.382812 2.03125 -1.53125 C 1.289062 -2.6875 0.921875 -4.378906 0.921875 -6.609375 C 0.921875 -8.898438 1.273438 -10.597656 1.984375 -11.703125 C 2.703125 -12.816406 3.796875 -13.375 5.265625 -13.375 C 6.691406 -13.375 7.773438 -12.796875 8.515625 -11.640625 C 9.253906 -10.484375 9.625 -8.804688 9.625 -6.609375 Z M 2.4375 -6.609375 C 2.4375 -4.691406 2.660156 -3.296875 3.109375 -2.421875 C 3.554688 -1.546875 4.273438 -1.109375 5.265625 -1.109375 C 6.253906 -1.109375 6.972656 -1.550781 7.421875 -2.4375 C 7.867188 -3.320312 8.09375 -4.710938 8.09375 -6.609375 C 8.09375 -8.492188 7.867188 -9.875 7.421875 -10.75 C 6.972656 -11.632812 6.253906 -12.078125 5.265625 -12.078125 C 4.273438 -12.078125 3.554688 -11.644531 3.109375 -10.78125 C 2.660156 -9.914062 2.4375 -8.523438 2.4375 -6.609375 Z M 2.4375 -6.609375 "/></g></g></g><g clip-rule="nonzero" clip-path="url(#ced6d37363)"><g style="fill:#000000;fill-opacity:1;"><g transform="translate(410.591571, 558.255933)"><path style="stroke:none" d="M 6.4375 0 L 4.984375 0 L 4.984375 -9.390625 C 4.984375 -10.171875 5.007812 -10.910156 5.0625 -11.609375 C 4.925781 -11.484375 4.78125 -11.347656 4.625 -11.203125 C 4.46875 -11.066406 3.753906 -10.484375 2.484375 -9.453125 L 1.6875 -10.484375 L 5.1875 -13.171875 L 6.4375 -13.171875 Z M 6.4375 0 "/></g></g></g><g clip-rule="nonzero" clip-path="url(#2c16d6ba31)"><g style="fill:#000000;fill-opacity:1;"><g transform="translate(421.140578, 558.255933)"><path style="stroke:none" d="M 5.015625 -8.046875 C 6.398438 -8.046875 7.488281 -7.703125 8.28125 -7.015625 C 9.082031 -6.328125 9.484375 -5.382812 9.484375 -4.1875 C 9.484375 -2.820312 9.050781 -1.75 8.1875 -0.96875 C 7.320312 -0.195312 6.125 0.1875 4.59375 0.1875 C 3.113281 0.1875 1.984375 -0.0507812 1.203125 -0.53125 L 1.203125 -1.96875 C 1.617188 -1.695312 2.140625 -1.484375 2.765625 -1.328125 C 3.390625 -1.179688 4.003906 -1.109375 4.609375 -1.109375 C 5.671875 -1.109375 6.492188 -1.359375 7.078125 -1.859375 C 7.660156 -2.359375 7.953125 -3.078125 7.953125 -4.015625 C 7.953125 -5.859375 6.828125 -6.78125 4.578125 -6.78125 C 4.003906 -6.78125 3.238281 -6.691406 2.28125 -6.515625 L 1.515625 -7.015625 L 2.015625 -13.171875 L 8.5625 -13.171875 L 8.5625 -11.796875 L 3.28125 -11.796875 L 2.953125 -7.84375 C 3.640625 -7.976562 4.328125 -8.046875 5.015625 -8.046875 Z M 5.015625 -8.046875 "/></g></g></g><g clip-rule="nonzero" clip-path="url(#28eacf9c56)"><g style="fill:#000000;fill-opacity:1;"><g transform="translate(517.027823, 558.255933)"><path style="stroke:none" d="M 9.5625 0 L 0.90625 0 L 0.90625 -1.28125 L 4.375 -4.78125 C 5.425781 -5.84375 6.117188 -6.601562 6.453125 -7.0625 C 6.796875 -7.519531 7.050781 -7.960938 7.21875 -8.390625 C 7.382812 -8.828125 7.46875 -9.296875 7.46875 -9.796875 C 7.46875 -10.492188 7.253906 -11.046875 6.828125 -11.453125 C 6.398438 -11.867188 5.8125 -12.078125 5.0625 -12.078125 C 4.507812 -12.078125 3.988281 -11.988281 3.5 -11.8125 C 3.007812 -11.632812 2.460938 -11.304688 1.859375 -10.828125 L 1.078125 -11.84375 C 2.285156 -12.851562 3.601562 -13.359375 5.03125 -13.359375 C 6.269531 -13.359375 7.238281 -13.039062 7.9375 -12.40625 C 8.644531 -11.78125 9 -10.929688 9 -9.859375 C 9 -9.023438 8.765625 -8.195312 8.296875 -7.375 C 7.828125 -6.5625 6.953125 -5.53125 5.671875 -4.28125 L 2.78125 -1.453125 L 2.78125 -1.390625 L 9.5625 -1.390625 Z M 9.5625 0 "/></g></g></g><g clip-rule="nonzero" clip-path="url(#3f50d95fe9)"><g style="fill:#000000;fill-opacity:1;"><g transform="translate(527.57683, 558.255933)"><path style="stroke:none" d="M 9.625 -6.609375 C 9.625 -4.328125 9.265625 -2.625 8.546875 -1.5 C 7.835938 -0.375 6.742188 0.1875 5.265625 0.1875 C 3.847656 0.1875 2.769531 -0.382812 2.03125 -1.53125 C 1.289062 -2.6875 0.921875 -4.378906 0.921875 -6.609375 C 0.921875 -8.898438 1.273438 -10.597656 1.984375 -11.703125 C 2.703125 -12.816406 3.796875 -13.375 5.265625 -13.375 C 6.691406 -13.375 7.773438 -12.796875 8.515625 -11.640625 C 9.253906 -10.484375 9.625 -8.804688 9.625 -6.609375 Z M 2.4375 -6.609375 C 2.4375 -4.691406 2.660156 -3.296875 3.109375 -2.421875 C 3.554688 -1.546875 4.273438 -1.109375 5.265625 -1.109375 C 6.253906 -1.109375 6.972656 -1.550781 7.421875 -2.4375 C 7.867188 -3.320312 8.09375 -4.710938 8.09375 -6.609375 C 8.09375 -8.492188 7.867188 -9.875 7.421875 -10.75 C 6.972656 -11.632812 6.253906 -12.078125 5.265625 -12.078125 C 4.273438 -12.078125 3.554688 -11.644531 3.109375 -10.78125 C 2.660156 -9.914062 2.4375 -8.523438 2.4375 -6.609375 Z M 2.4375 -6.609375 "/></g></g></g><g clip-rule="nonzero" clip-path="url(#d7fe709d46)"><g style="fill:#000000;fill-opacity:1;"><g transform="translate(623.059362, 558.255933)"><path style="stroke:none" d="M 9.5625 0 L 0.90625 0 L 0.90625 -1.28125 L 4.375 -4.78125 C 5.425781 -5.84375 6.117188 -6.601562 6.453125 -7.0625 C 6.796875 -7.519531 7.050781 -7.960938 7.21875 -8.390625 C 7.382812 -8.828125 7.46875 -9.296875 7.46875 -9.796875 C 7.46875 -10.492188 7.253906 -11.046875 6.828125 -11.453125 C 6.398438 -11.867188 5.8125 -12.078125 5.0625 -12.078125 C 4.507812 -12.078125 3.988281 -11.988281 3.5 -11.8125 C 3.007812 -11.632812 2.460938 -11.304688 1.859375 -10.828125 L 1.078125 -11.84375 C 2.285156 -12.851562 3.601562 -13.359375 5.03125 -13.359375 C 6.269531 -13.359375 7.238281 -13.039062 7.9375 -12.40625 C 8.644531 -11.78125 9 -10.929688 9 -9.859375 C 9 -9.023438 8.765625 -8.195312 8.296875 -7.375 C 7.828125 -6.5625 6.953125 -5.53125 5.671875 -4.28125 L 2.78125 -1.453125 L 2.78125 -1.390625 L 9.5625 -1.390625 Z M 9.5625 0 "/></g></g></g><g clip-rule="nonzero" clip-path="url(#2ffa653795)"><g style="fill:#000000;fill-opacity:1;"><g transform="translate(633.60837, 558.255933)"><path style="stroke:none" d="M 5.015625 -8.046875 C 6.398438 -8.046875 7.488281 -7.703125 8.28125 -7.015625 C 9.082031 -6.328125 9.484375 -5.382812 9.484375 -4.1875 C 9.484375 -2.820312 9.050781 -1.75 8.1875 -0.96875 C 7.320312 -0.195312 6.125 0.1875 4.59375 0.1875 C 3.113281 0.1875 1.984375 -0.0507812 1.203125 -0.53125 L 1.203125 -1.96875 C 1.617188 -1.695312 2.140625 -1.484375 2.765625 -1.328125 C 3.390625 -1.179688 4.003906 -1.109375 4.609375 -1.109375 C 5.671875 -1.109375 6.492188 -1.359375 7.078125 -1.859375 C 7.660156 -2.359375 7.953125 -3.078125 7.953125 -4.015625 C 7.953125 -5.859375 6.828125 -6.78125 4.578125 -6.78125 C 4.003906 -6.78125 3.238281 -6.691406 2.28125 -6.515625 L 1.515625 -7.015625 L 2.015625 -13.171875 L 8.5625 -13.171875 L 8.5625 -11.796875 L 3.28125 -11.796875 L 2.953125 -7.84375 C 3.640625 -7.976562 4.328125 -8.046875 5.015625 -8.046875 Z M 5.015625 -8.046875 "/></g></g></g><g clip-rule="nonzero" clip-path="url(#3236b07369)"><g style="fill:#000000;fill-opacity:1;"><g transform="translate(729.09095, 558.255933)"><path style="stroke:none" d="M 9.0625 -10.078125 C 9.0625 -9.234375 8.828125 -8.539062 8.359375 -8 C 7.890625 -7.46875 7.222656 -7.113281 6.359375 -6.9375 L 6.359375 -6.859375 C 7.410156 -6.734375 8.191406 -6.398438 8.703125 -5.859375 C 9.210938 -5.316406 9.46875 -4.609375 9.46875 -3.734375 C 9.46875 -2.472656 9.03125 -1.503906 8.15625 -0.828125 C 7.289062 -0.148438 6.054688 0.1875 4.453125 0.1875 C 3.753906 0.1875 3.113281 0.128906 2.53125 0.015625 C 1.957031 -0.0859375 1.394531 -0.269531 0.84375 -0.53125 L 0.84375 -1.953125 C 1.414062 -1.671875 2.023438 -1.457031 2.671875 -1.3125 C 3.316406 -1.164062 3.925781 -1.09375 4.5 -1.09375 C 6.78125 -1.09375 7.921875 -1.984375 7.921875 -3.765625 C 7.921875 -5.359375 6.664062 -6.15625 4.15625 -6.15625 L 2.859375 -6.15625 L 2.859375 -7.453125 L 4.171875 -7.453125 C 5.203125 -7.453125 6.015625 -7.675781 6.609375 -8.125 C 7.210938 -8.582031 7.515625 -9.210938 7.515625 -10.015625 C 7.515625 -10.660156 7.289062 -11.164062 6.84375 -11.53125 C 6.40625 -11.894531 5.8125 -12.078125 5.0625 -12.078125 C 4.476562 -12.078125 3.929688 -12 3.421875 -11.84375 C 2.910156 -11.6875 2.328125 -11.398438 1.671875 -10.984375 L 0.921875 -12 C 1.460938 -12.414062 2.082031 -12.742188 2.78125 -12.984375 C 3.488281 -13.234375 4.234375 -13.359375 5.015625 -13.359375 C 6.296875 -13.359375 7.289062 -13.066406 8 -12.484375 C 8.707031 -11.898438 9.0625 -11.097656 9.0625 -10.078125 Z M 9.0625 -10.078125 "/></g></g></g><g clip-rule="nonzero" clip-path="url(#becd0bbb9e)"><g style="fill:#000000;fill-opacity:1;"><g transform="translate(739.639957, 558.255933)"><path style="stroke:none" d="M 9.625 -6.609375 C 9.625 -4.328125 9.265625 -2.625 8.546875 -1.5 C 7.835938 -0.375 6.742188 0.1875 5.265625 0.1875 C 3.847656 0.1875 2.769531 -0.382812 2.03125 -1.53125 C 1.289062 -2.6875 0.921875 -4.378906 0.921875 -6.609375 C 0.921875 -8.898438 1.273438 -10.597656 1.984375 -11.703125 C 2.703125 -12.816406 3.796875 -13.375 5.265625 -13.375 C 6.691406 -13.375 7.773438 -12.796875 8.515625 -11.640625 C 9.253906 -10.484375 9.625 -8.804688 9.625 -6.609375 Z M 2.4375 -6.609375 C 2.4375 -4.691406 2.660156 -3.296875 3.109375 -2.421875 C 3.554688 -1.546875 4.273438 -1.109375 5.265625 -1.109375 C 6.253906 -1.109375 6.972656 -1.550781 7.421875 -2.4375 C 7.867188 -3.320312 8.09375 -4.710938 8.09375 -6.609375 C 8.09375 -8.492188 7.867188 -9.875 7.421875 -10.75 C 6.972656 -11.632812 6.253906 -12.078125 5.265625 -12.078125 C 4.273438 -12.078125 3.554688 -11.644531 3.109375 -10.78125 C 2.660156 -9.914062 2.4375 -8.523438 2.4375 -6.609375 Z M 2.4375 -6.609375 "/></g></g></g><g style="fill:#000000;fill-opacity:1;"><g transform="translate(39.9389, 105.085285)"><path style="stroke:none" d="M 12.328125 -6.71875 C 12.328125 -4.539062 11.734375 -2.875 10.546875 -1.71875 C 9.367188 -0.570312 7.671875 0 5.453125 0 L 1.8125 0 L 1.8125 -13.171875 L 5.84375 -13.171875 C 7.894531 -13.171875 9.488281 -12.601562 10.625 -11.46875 C 11.757812 -10.332031 12.328125 -8.75 12.328125 -6.71875 Z M 10.703125 -6.65625 C 10.703125 -8.375 10.269531 -9.664062 9.40625 -10.53125 C 8.550781 -11.40625 7.269531 -11.84375 5.5625 -11.84375 L 3.34375 -11.84375 L 3.34375 -1.328125 L 5.203125 -1.328125 C 7.035156 -1.328125 8.410156 -1.773438 9.328125 -2.671875 C 10.242188 -3.566406 10.703125 -4.894531 10.703125 -6.65625 Z M 10.703125 -6.65625 "/></g></g><g style="fill:#000000;fill-opacity:1;"><g transform="translate(53.388657, 105.085285)"><path style="stroke:none" d="M 3.078125 0 L 1.578125 0 L 1.578125 -9.875 L 3.078125 -9.875 Z M 1.453125 -12.546875 C 1.453125 -12.890625 1.535156 -13.140625 1.703125 -13.296875 C 1.878906 -13.460938 2.09375 -13.546875 2.34375 -13.546875 C 2.582031 -13.546875 2.785156 -13.460938 2.953125 -13.296875 C 3.128906 -13.140625 3.21875 -12.890625 3.21875 -12.546875 C 3.21875 -12.210938 3.128906 -11.960938 2.953125 -11.796875 C 2.785156 -11.628906 2.582031 -11.546875 2.34375 -11.546875 C 2.09375 -11.546875 1.878906 -11.628906 1.703125 -11.796875 C 1.535156 -11.960938 1.453125 -12.210938 1.453125 -12.546875 Z M 1.453125 -12.546875 "/></g></g><g style="fill:#000000;fill-opacity:1;"><g transform="translate(58.055081, 105.085285)"><path style="stroke:none" d="M 7.65625 0 L 7.359375 -1.40625 L 7.296875 -1.40625 C 6.796875 -0.789062 6.300781 -0.367188 5.8125 -0.140625 C 5.320312 0.078125 4.710938 0.1875 3.984375 0.1875 C 3.003906 0.1875 2.234375 -0.0625 1.671875 -0.5625 C 1.117188 -1.070312 0.84375 -1.796875 0.84375 -2.734375 C 0.84375 -4.722656 2.4375 -5.765625 5.625 -5.859375 L 7.3125 -5.921875 L 7.3125 -6.53125 C 7.3125 -7.300781 7.144531 -7.867188 6.8125 -8.234375 C 6.476562 -8.609375 5.941406 -8.796875 5.203125 -8.796875 C 4.378906 -8.796875 3.453125 -8.546875 2.421875 -8.046875 L 1.953125 -9.1875 C 2.441406 -9.457031 2.972656 -9.664062 3.546875 -9.8125 C 4.128906 -9.957031 4.710938 -10.03125 5.296875 -10.03125 C 6.472656 -10.03125 7.34375 -9.769531 7.90625 -9.25 C 8.476562 -8.726562 8.765625 -7.890625 8.765625 -6.734375 L 8.765625 0 Z M 4.28125 -1.046875 C 5.207031 -1.046875 5.9375 -1.300781 6.46875 -1.8125 C 7 -2.332031 7.265625 -3.050781 7.265625 -3.96875 L 7.265625 -4.859375 L 5.78125 -4.796875 C 4.582031 -4.753906 3.722656 -4.566406 3.203125 -4.234375 C 2.679688 -3.910156 2.421875 -3.40625 2.421875 -2.71875 C 2.421875 -2.175781 2.582031 -1.757812 2.90625 -1.46875 C 3.226562 -1.1875 3.6875 -1.046875 4.28125 -1.046875 Z M 4.28125 -1.046875 "/></g></g><g style="fill:#000000;fill-opacity:1;"><g transform="translate(68.315814, 105.085285)"><path style="stroke:none" d="M 6.09375 -10.0625 C 6.53125 -10.0625 6.921875 -10.023438 7.265625 -9.953125 L 7.0625 -8.5625 C 6.65625 -8.644531 6.296875 -8.6875 5.984375 -8.6875 C 5.179688 -8.6875 4.492188 -8.363281 3.921875 -7.71875 C 3.359375 -7.070312 3.078125 -6.265625 3.078125 -5.296875 L 3.078125 0 L 1.578125 0 L 1.578125 -9.875 L 2.8125 -9.875 L 2.984375 -8.046875 L 3.0625 -8.046875 C 3.425781 -8.691406 3.863281 -9.1875 4.375 -9.53125 C 4.894531 -9.882812 5.46875 -10.0625 6.09375 -10.0625 Z M 6.09375 -10.0625 "/></g></g><g style="fill:#000000;fill-opacity:1;"><g transform="translate(75.846954, 105.085285)"><path style="stroke:none" d="M 3.078125 0 L 1.578125 0 L 1.578125 -9.875 L 3.078125 -9.875 Z M 1.453125 -12.546875 C 1.453125 -12.890625 1.535156 -13.140625 1.703125 -13.296875 C 1.878906 -13.460938 2.09375 -13.546875 2.34375 -13.546875 C 2.582031 -13.546875 2.785156 -13.460938 2.953125 -13.296875 C 3.128906 -13.140625 3.21875 -12.890625 3.21875 -12.546875 C 3.21875 -12.210938 3.128906 -11.960938 2.953125 -11.796875 C 2.785156 -11.628906 2.582031 -11.546875 2.34375 -11.546875 C 2.09375 -11.546875 1.878906 -11.628906 1.703125 -11.796875 C 1.535156 -11.960938 1.453125 -12.210938 1.453125 -12.546875 Z M 1.453125 -12.546875 "/></g></g><g style="fill:#000000;fill-opacity:1;"><g transform="translate(80.513378, 105.085285)"><path style="stroke:none" d="M 7.65625 0 L 7.359375 -1.40625 L 7.296875 -1.40625 C 6.796875 -0.789062 6.300781 -0.367188 5.8125 -0.140625 C 5.320312 0.078125 4.710938 0.1875 3.984375 0.1875 C 3.003906 0.1875 2.234375 -0.0625 1.671875 -0.5625 C 1.117188 -1.070312 0.84375 -1.796875 0.84375 -2.734375 C 0.84375 -4.722656 2.4375 -5.765625 5.625 -5.859375 L 7.3125 -5.921875 L 7.3125 -6.53125 C 7.3125 -7.300781 7.144531 -7.867188 6.8125 -8.234375 C 6.476562 -8.609375 5.941406 -8.796875 5.203125 -8.796875 C 4.378906 -8.796875 3.453125 -8.546875 2.421875 -8.046875 L 1.953125 -9.1875 C 2.441406 -9.457031 2.972656 -9.664062 3.546875 -9.8125 C 4.128906 -9.957031 4.710938 -10.03125 5.296875 -10.03125 C 6.472656 -10.03125 7.34375 -9.769531 7.90625 -9.25 C 8.476562 -8.726562 8.765625 -7.890625 8.765625 -6.734375 L 8.765625 0 Z M 4.28125 -1.046875 C 5.207031 -1.046875 5.9375 -1.300781 6.46875 -1.8125 C 7 -2.332031 7.265625 -3.050781 7.265625 -3.96875 L 7.265625 -4.859375 L 5.78125 -4.796875 C 4.582031 -4.753906 3.722656 -4.566406 3.203125 -4.234375 C 2.679688 -3.910156 2.421875 -3.40625 2.421875 -2.71875 C 2.421875 -2.175781 2.582031 -1.757812 2.90625 -1.46875 C 3.226562 -1.1875 3.6875 -1.046875 4.28125 -1.046875 Z M 4.28125 -1.046875 "/></g></g><g style="fill:#000000;fill-opacity:1;"><g transform="translate(21.295473, 283.644589)"><path style="stroke:none" d="M 9.25 -3.5 C 9.25 -2.34375 8.828125 -1.4375 7.984375 -0.78125 C 7.140625 -0.132812 6 0.1875 4.5625 0.1875 C 3 0.1875 1.796875 -0.015625 0.953125 -0.421875 L 0.953125 -1.90625 C 1.492188 -1.675781 2.082031 -1.492188 2.71875 -1.359375 C 3.351562 -1.222656 3.984375 -1.15625 4.609375 -1.15625 C 5.628906 -1.15625 6.394531 -1.347656 6.90625 -1.734375 C 7.425781 -2.128906 7.6875 -2.671875 7.6875 -3.359375 C 7.6875 -3.816406 7.59375 -4.191406 7.40625 -4.484375 C 7.226562 -4.773438 6.925781 -5.039062 6.5 -5.28125 C 6.070312 -5.53125 5.421875 -5.8125 4.546875 -6.125 C 3.316406 -6.5625 2.4375 -7.082031 1.90625 -7.6875 C 1.382812 -8.289062 1.125 -9.070312 1.125 -10.03125 C 1.125 -11.050781 1.503906 -11.859375 2.265625 -12.453125 C 3.035156 -13.054688 4.046875 -13.359375 5.296875 -13.359375 C 6.609375 -13.359375 7.8125 -13.117188 8.90625 -12.640625 L 8.4375 -11.3125 C 7.34375 -11.769531 6.285156 -12 5.265625 -12 C 4.453125 -12 3.816406 -11.820312 3.359375 -11.46875 C 2.898438 -11.125 2.671875 -10.640625 2.671875 -10.015625 C 2.671875 -9.554688 2.753906 -9.179688 2.921875 -8.890625 C 3.097656 -8.597656 3.382812 -8.332031 3.78125 -8.09375 C 4.175781 -7.851562 4.785156 -7.585938 5.609375 -7.296875 C 6.992188 -6.796875 7.945312 -6.265625 8.46875 -5.703125 C 8.988281 -5.140625 9.25 -4.40625 9.25 -3.5 Z M 9.25 -3.5 "/></g></g><g style="fill:#000000;fill-opacity:1;"><g transform="translate(31.421073, 283.644589)"><path style="stroke:none" d="M 5.75 0.1875 C 4.289062 0.1875 3.140625 -0.253906 2.296875 -1.140625 C 1.453125 -2.035156 1.03125 -3.273438 1.03125 -4.859375 C 1.03125 -6.453125 1.421875 -7.71875 2.203125 -8.65625 C 2.992188 -9.59375 4.050781 -10.0625 5.375 -10.0625 C 6.601562 -10.0625 7.578125 -9.648438 8.296875 -8.828125 C 9.023438 -8.015625 9.390625 -6.941406 9.390625 -5.609375 L 9.390625 -4.671875 L 2.59375 -4.671875 C 2.613281 -3.503906 2.898438 -2.617188 3.453125 -2.015625 C 4.015625 -1.421875 4.800781 -1.125 5.8125 -1.125 C 6.875 -1.125 7.925781 -1.347656 8.96875 -1.796875 L 8.96875 -0.453125 C 8.4375 -0.222656 7.929688 -0.0625 7.453125 0.03125 C 6.984375 0.132812 6.414062 0.1875 5.75 0.1875 Z M 5.359375 -8.796875 C 4.554688 -8.796875 3.921875 -8.535156 3.453125 -8.015625 C 2.984375 -7.503906 2.707031 -6.796875 2.625 -5.890625 L 7.78125 -5.890625 C 7.78125 -6.828125 7.570312 -7.546875 7.15625 -8.046875 C 6.738281 -8.546875 6.140625 -8.796875 5.359375 -8.796875 Z M 5.359375 -8.796875 "/></g></g><g style="fill:#000000;fill-opacity:1;"><g transform="translate(41.771892, 283.644589)"><path style="stroke:none" d="M 14.171875 0 L 14.171875 -6.421875 C 14.171875 -7.210938 14.003906 -7.800781 13.671875 -8.1875 C 13.335938 -8.582031 12.8125 -8.78125 12.09375 -8.78125 C 11.164062 -8.78125 10.476562 -8.515625 10.03125 -7.984375 C 9.59375 -7.453125 9.375 -6.628906 9.375 -5.515625 L 9.375 0 L 7.875 0 L 7.875 -6.421875 C 7.875 -7.210938 7.703125 -7.800781 7.359375 -8.1875 C 7.023438 -8.582031 6.503906 -8.78125 5.796875 -8.78125 C 4.859375 -8.78125 4.171875 -8.5 3.734375 -7.9375 C 3.296875 -7.375 3.078125 -6.457031 3.078125 -5.1875 L 3.078125 0 L 1.578125 0 L 1.578125 -9.875 L 2.796875 -9.875 L 3.046875 -8.53125 L 3.125 -8.53125 C 3.40625 -9.007812 3.800781 -9.382812 4.3125 -9.65625 C 4.820312 -9.925781 5.394531 -10.0625 6.03125 -10.0625 C 7.582031 -10.0625 8.59375 -9.5 9.0625 -8.375 L 9.140625 -8.375 C 9.429688 -8.894531 9.851562 -9.304688 10.40625 -9.609375 C 10.96875 -9.910156 11.609375 -10.0625 12.328125 -10.0625 C 13.441406 -10.0625 14.273438 -9.769531 14.828125 -9.1875 C 15.390625 -8.613281 15.671875 -7.695312 15.671875 -6.4375 L 15.671875 0 Z M 14.171875 0 "/></g></g><g style="fill:#000000;fill-opacity:1;"><g transform="translate(58.933168, 283.644589)"><path style="stroke:none" d="M 7.65625 0 L 7.359375 -1.40625 L 7.296875 -1.40625 C 6.796875 -0.789062 6.300781 -0.367188 5.8125 -0.140625 C 5.320312 0.078125 4.710938 0.1875 3.984375 0.1875 C 3.003906 0.1875 2.234375 -0.0625 1.671875 -0.5625 C 1.117188 -1.070312 0.84375 -1.796875 0.84375 -2.734375 C 0.84375 -4.722656 2.4375 -5.765625 5.625 -5.859375 L 7.3125 -5.921875 L 7.3125 -6.53125 C 7.3125 -7.300781 7.144531 -7.867188 6.8125 -8.234375 C 6.476562 -8.609375 5.941406 -8.796875 5.203125 -8.796875 C 4.378906 -8.796875 3.453125 -8.546875 2.421875 -8.046875 L 1.953125 -9.1875 C 2.441406 -9.457031 2.972656 -9.664062 3.546875 -9.8125 C 4.128906 -9.957031 4.710938 -10.03125 5.296875 -10.03125 C 6.472656 -10.03125 7.34375 -9.769531 7.90625 -9.25 C 8.476562 -8.726562 8.765625 -7.890625 8.765625 -6.734375 L 8.765625 0 Z M 4.28125 -1.046875 C 5.207031 -1.046875 5.9375 -1.300781 6.46875 -1.8125 C 7 -2.332031 7.265625 -3.050781 7.265625 -3.96875 L 7.265625 -4.859375 L 5.78125 -4.796875 C 4.582031 -4.753906 3.722656 -4.566406 3.203125 -4.234375 C 2.679688 -3.910156 2.421875 -3.40625 2.421875 -2.71875 C 2.421875 -2.175781 2.582031 -1.757812 2.90625 -1.46875 C 3.226562 -1.1875 3.6875 -1.046875 4.28125 -1.046875 Z M 4.28125 -1.046875 "/></g></g><g style="fill:#000000;fill-opacity:1;"><g transform="translate(69.193902, 283.644589)"><path style="stroke:none" d="M 8.34375 0 L 8.34375 -6.390625 C 8.34375 -7.191406 8.160156 -7.789062 7.796875 -8.1875 C 7.429688 -8.582031 6.859375 -8.78125 6.078125 -8.78125 C 5.035156 -8.78125 4.273438 -8.5 3.796875 -7.9375 C 3.316406 -7.382812 3.078125 -6.46875 3.078125 -5.1875 L 3.078125 0 L 1.578125 0 L 1.578125 -9.875 L 2.796875 -9.875 L 3.046875 -8.53125 L 3.125 -8.53125 C 3.425781 -9.007812 3.851562 -9.382812 4.40625 -9.65625 C 4.957031 -9.925781 5.570312 -10.0625 6.25 -10.0625 C 7.4375 -10.0625 8.332031 -9.769531 8.9375 -9.1875 C 9.539062 -8.613281 9.84375 -7.695312 9.84375 -6.4375 L 9.84375 0 Z M 8.34375 0 "/></g></g><g style="fill:#000000;fill-opacity:1;"><g transform="translate(80.517643, 283.644589)"><path style="stroke:none" d="M 7.65625 0 L 7.359375 -1.40625 L 7.296875 -1.40625 C 6.796875 -0.789062 6.300781 -0.367188 5.8125 -0.140625 C 5.320312 0.078125 4.710938 0.1875 3.984375 0.1875 C 3.003906 0.1875 2.234375 -0.0625 1.671875 -0.5625 C 1.117188 -1.070312 0.84375 -1.796875 0.84375 -2.734375 C 0.84375 -4.722656 2.4375 -5.765625 5.625 -5.859375 L 7.3125 -5.921875 L 7.3125 -6.53125 C 7.3125 -7.300781 7.144531 -7.867188 6.8125 -8.234375 C 6.476562 -8.609375 5.941406 -8.796875 5.203125 -8.796875 C 4.378906 -8.796875 3.453125 -8.546875 2.421875 -8.046875 L 1.953125 -9.1875 C 2.441406 -9.457031 2.972656 -9.664062 3.546875 -9.8125 C 4.128906 -9.957031 4.710938 -10.03125 5.296875 -10.03125 C 6.472656 -10.03125 7.34375 -9.769531 7.90625 -9.25 C 8.476562 -8.726562 8.765625 -7.890625 8.765625 -6.734375 L 8.765625 0 Z M 4.28125 -1.046875 C 5.207031 -1.046875 5.9375 -1.300781 6.46875 -1.8125 C 7 -2.332031 7.265625 -3.050781 7.265625 -3.96875 L 7.265625 -4.859375 L 5.78125 -4.796875 C 4.582031 -4.753906 3.722656 -4.566406 3.203125 -4.234375 C 2.679688 -3.910156 2.421875 -3.40625 2.421875 -2.71875 C 2.421875 -2.175781 2.582031 -1.757812 2.90625 -1.46875 C 3.226562 -1.1875 3.6875 -1.046875 4.28125 -1.046875 Z M 4.28125 -1.046875 "/></g></g><g style="fill:#000000;fill-opacity:1;"><g transform="translate(17.455885, 462.203881)"><path style="stroke:none" d="M 7.640625 0 L 3.171875 -11.671875 L 3.09375 -11.671875 C 3.175781 -10.753906 3.21875 -9.65625 3.21875 -8.375 L 3.21875 0 L 1.8125 0 L 1.8125 -13.171875 L 4.125 -13.171875 L 8.296875 -2.3125 L 8.359375 -2.3125 L 12.5625 -13.171875 L 14.859375 -13.171875 L 14.859375 0 L 13.328125 0 L 13.328125 -8.484375 C 13.328125 -9.460938 13.367188 -10.519531 13.453125 -11.65625 L 13.375 -11.65625 L 8.875 0 Z M 7.640625 0 "/></g></g><g style="fill:#000000;fill-opacity:1;"><g transform="translate(34.112683, 462.203881)"><path style="stroke:none" d="M 5.75 0.1875 C 4.289062 0.1875 3.140625 -0.253906 2.296875 -1.140625 C 1.453125 -2.035156 1.03125 -3.273438 1.03125 -4.859375 C 1.03125 -6.453125 1.421875 -7.71875 2.203125 -8.65625 C 2.992188 -9.59375 4.050781 -10.0625 5.375 -10.0625 C 6.601562 -10.0625 7.578125 -9.648438 8.296875 -8.828125 C 9.023438 -8.015625 9.390625 -6.941406 9.390625 -5.609375 L 9.390625 -4.671875 L 2.59375 -4.671875 C 2.613281 -3.503906 2.898438 -2.617188 3.453125 -2.015625 C 4.015625 -1.421875 4.800781 -1.125 5.8125 -1.125 C 6.875 -1.125 7.925781 -1.347656 8.96875 -1.796875 L 8.96875 -0.453125 C 8.4375 -0.222656 7.929688 -0.0625 7.453125 0.03125 C 6.984375 0.132812 6.414062 0.1875 5.75 0.1875 Z M 5.359375 -8.796875 C 4.554688 -8.796875 3.921875 -8.535156 3.453125 -8.015625 C 2.984375 -7.503906 2.707031 -6.796875 2.625 -5.890625 L 7.78125 -5.890625 C 7.78125 -6.828125 7.570312 -7.546875 7.15625 -8.046875 C 6.738281 -8.546875 6.140625 -8.796875 5.359375 -8.796875 Z M 5.359375 -8.796875 "/></g></g><g style="fill:#000000;fill-opacity:1;"><g transform="translate(44.463502, 462.203881)"><path style="stroke:none" d="M 8.34375 0 L 8.34375 -6.390625 C 8.34375 -7.191406 8.160156 -7.789062 7.796875 -8.1875 C 7.429688 -8.582031 6.859375 -8.78125 6.078125 -8.78125 C 5.035156 -8.78125 4.273438 -8.5 3.796875 -7.9375 C 3.316406 -7.382812 3.078125 -6.46875 3.078125 -5.1875 L 3.078125 0 L 1.578125 0 L 1.578125 -9.875 L 2.796875 -9.875 L 3.046875 -8.53125 L 3.125 -8.53125 C 3.425781 -9.007812 3.851562 -9.382812 4.40625 -9.65625 C 4.957031 -9.925781 5.570312 -10.0625 6.25 -10.0625 C 7.4375 -10.0625 8.332031 -9.769531 8.9375 -9.1875 C 9.539062 -8.613281 9.84375 -7.695312 9.84375 -6.4375 L 9.84375 0 Z M 8.34375 0 "/></g></g><g style="fill:#000000;fill-opacity:1;"><g transform="translate(55.787243, 462.203881)"><path style="stroke:none" d="M 7.953125 -2.6875 C 7.953125 -1.769531 7.609375 -1.0625 6.921875 -0.5625 C 6.242188 -0.0625 5.285156 0.1875 4.046875 0.1875 C 2.734375 0.1875 1.710938 -0.0195312 0.984375 -0.4375 L 0.984375 -1.828125 C 1.453125 -1.585938 1.957031 -1.394531 2.5 -1.25 C 3.050781 -1.113281 3.578125 -1.046875 4.078125 -1.046875 C 4.859375 -1.046875 5.457031 -1.171875 5.875 -1.421875 C 6.300781 -1.671875 6.515625 -2.050781 6.515625 -2.5625 C 6.515625 -2.945312 6.347656 -3.273438 6.015625 -3.546875 C 5.679688 -3.828125 5.03125 -4.148438 4.0625 -4.515625 C 3.144531 -4.859375 2.488281 -5.15625 2.09375 -5.40625 C 1.707031 -5.664062 1.421875 -5.957031 1.234375 -6.28125 C 1.046875 -6.613281 0.953125 -7.003906 0.953125 -7.453125 C 0.953125 -8.253906 1.28125 -8.890625 1.9375 -9.359375 C 2.59375 -9.828125 3.488281 -10.0625 4.625 -10.0625 C 5.6875 -10.0625 6.726562 -9.84375 7.75 -9.40625 L 7.21875 -8.1875 C 6.226562 -8.59375 5.328125 -8.796875 4.515625 -8.796875 C 3.804688 -8.796875 3.269531 -8.6875 2.90625 -8.46875 C 2.550781 -8.25 2.375 -7.941406 2.375 -7.546875 C 2.375 -7.285156 2.441406 -7.0625 2.578125 -6.875 C 2.710938 -6.6875 2.929688 -6.507812 3.234375 -6.34375 C 3.535156 -6.175781 4.113281 -5.929688 4.96875 -5.609375 C 6.132812 -5.179688 6.921875 -4.75 7.328125 -4.3125 C 7.742188 -3.882812 7.953125 -3.34375 7.953125 -2.6875 Z M 7.953125 -2.6875 "/></g></g><g style="fill:#000000;fill-opacity:1;"><g transform="translate(64.588594, 462.203881)"><path style="stroke:none" d="M 2.984375 -9.875 L 2.984375 -3.46875 C 2.984375 -2.664062 3.164062 -2.066406 3.53125 -1.671875 C 3.90625 -1.273438 4.484375 -1.078125 5.265625 -1.078125 C 6.296875 -1.078125 7.050781 -1.359375 7.53125 -1.921875 C 8.007812 -2.484375 8.25 -3.40625 8.25 -4.6875 L 8.25 -9.875 L 9.734375 -9.875 L 9.734375 0 L 8.5 0 L 8.296875 -1.328125 L 8.203125 -1.328125 C 7.898438 -0.835938 7.476562 -0.460938 6.9375 -0.203125 C 6.394531 0.0546875 5.773438 0.1875 5.078125 0.1875 C 3.867188 0.1875 2.96875 -0.0976562 2.375 -0.671875 C 1.78125 -1.242188 1.484375 -2.160156 1.484375 -3.421875 L 1.484375 -9.875 Z M 2.984375 -9.875 "/></g></g><g style="fill:#000000;fill-opacity:1;"><g transform="translate(75.912335, 462.203881)"><path style="stroke:none" d="M 7.65625 0 L 7.359375 -1.40625 L 7.296875 -1.40625 C 6.796875 -0.789062 6.300781 -0.367188 5.8125 -0.140625 C 5.320312 0.078125 4.710938 0.1875 3.984375 0.1875 C 3.003906 0.1875 2.234375 -0.0625 1.671875 -0.5625 C 1.117188 -1.070312 0.84375 -1.796875 0.84375 -2.734375 C 0.84375 -4.722656 2.4375 -5.765625 5.625 -5.859375 L 7.3125 -5.921875 L 7.3125 -6.53125 C 7.3125 -7.300781 7.144531 -7.867188 6.8125 -8.234375 C 6.476562 -8.609375 5.941406 -8.796875 5.203125 -8.796875 C 4.378906 -8.796875 3.453125 -8.546875 2.421875 -8.046875 L 1.953125 -9.1875 C 2.441406 -9.457031 2.972656 -9.664062 3.546875 -9.8125 C 4.128906 -9.957031 4.710938 -10.03125 5.296875 -10.03125 C 6.472656 -10.03125 7.34375 -9.769531 7.90625 -9.25 C 8.476562 -8.726562 8.765625 -7.890625 8.765625 -6.734375 L 8.765625 0 Z M 4.28125 -1.046875 C 5.207031 -1.046875 5.9375 -1.300781 6.46875 -1.8125 C 7 -2.332031 7.265625 -3.050781 7.265625 -3.96875 L 7.265625 -4.859375 L 5.78125 -4.796875 C 4.582031 -4.753906 3.722656 -4.566406 3.203125 -4.234375 C 2.679688 -3.910156 2.421875 -3.40625 2.421875 -2.71875 C 2.421875 -2.175781 2.582031 -1.757812 2.90625 -1.46875 C 3.226562 -1.1875 3.6875 -1.046875 4.28125 -1.046875 Z M 4.28125 -1.046875 "/></g></g><g style="fill:#000000;fill-opacity:1;"><g transform="translate(86.173069, 462.203881)"><path style="stroke:none" d="M 3.078125 0 L 1.578125 0 L 1.578125 -14.015625 L 3.078125 -14.015625 Z M 3.078125 0 "/></g></g><g clip-rule="nonzero" clip-path="url(#c25dac9890)"><path style=" stroke:none;fill-rule:nonzero;fill:#6ce5e8;fill-opacity:1;" d="M 103.433594 17.449219 L 154.195312 17.449219 C 155.039062 17.449219 155.875 17.53125 156.703125 17.695312 C 157.53125 17.863281 158.335938 18.105469 159.117188 18.429688 C 159.894531 18.75 160.636719 19.148438 161.339844 19.617188 C 162.039062 20.085938 162.691406 20.617188 163.285156 21.214844 C 163.882812 21.8125 164.417969 22.460938 164.886719 23.164062 C 165.355469 23.867188 165.75 24.605469 166.074219 25.386719 C 166.398438 26.167969 166.640625 26.96875 166.804688 27.796875 C 166.96875 28.625 167.050781 29.460938 167.050781 30.304688 L 167.050781 165.296875 C 167.050781 166.140625 166.96875 166.976562 166.804688 167.804688 C 166.640625 168.632812 166.398438 169.4375 166.074219 170.21875 C 165.75 170.996094 165.355469 171.738281 164.886719 172.441406 C 164.417969 173.140625 163.882812 173.789062 163.285156 174.386719 C 162.691406 174.984375 162.039062 175.519531 161.339844 175.988281 C 160.636719 176.457031 159.894531 176.851562 159.117188 177.175781 C 158.335938 177.496094 157.53125 177.742188 156.703125 177.90625 C 155.875 178.070312 155.039062 178.152344 154.195312 178.152344 L 103.433594 178.152344 C 102.589844 178.152344 101.753906 178.070312 100.925781 177.90625 C 100.097656 177.742188 99.292969 177.496094 98.515625 177.175781 C 97.734375 176.851562 96.992188 176.457031 96.292969 175.988281 C 95.589844 175.519531 94.941406 174.984375 94.34375 174.386719 C 93.746094 173.789062 93.214844 173.140625 92.742188 172.441406 C 92.273438 171.738281 91.878906 170.996094 91.554688 170.21875 C 91.234375 169.4375 90.988281 168.632812 90.824219 167.804688 C 90.660156 166.976562 90.578125 166.140625 90.578125 165.296875 L 90.578125 30.304688 C 90.578125 29.460938 90.660156 28.625 90.824219 27.796875 C 90.988281 26.96875 91.234375 26.167969 91.554688 25.386719 C 91.878906 24.605469 92.273438 23.867188 92.742188 23.164062 C 93.214844 22.460938 93.746094 21.8125 94.34375 21.214844 C 94.941406 20.617188 95.589844 20.085938 96.292969 19.617188 C 96.992188 19.148438 97.734375 18.75 98.515625 18.429688 C 99.292969 18.105469 100.097656 17.863281 100.925781 17.695312 C 101.753906 17.53125 102.589844 17.449219 103.433594 17.449219 Z M 103.433594 17.449219 "/></g><g clip-rule="nonzero" clip-path="url(#da0b8a9a15)"><path style=" stroke:none;fill-rule:nonzero;fill:#6ce5e8;fill-opacity:1;" d="M 103.433594 196.007812 L 366.257812 196.007812 C 367.105469 196.007812 367.941406 196.089844 368.765625 196.257812 C 369.59375 196.421875 370.398438 196.664062 371.179688 196.988281 C 371.960938 197.3125 372.699219 197.707031 373.402344 198.175781 C 374.105469 198.644531 374.753906 199.179688 375.351562 199.773438 C 375.945312 200.371094 376.480469 201.019531 376.949219 201.722656 C 377.417969 202.425781 377.8125 203.164062 378.136719 203.945312 C 378.460938 204.726562 378.703125 205.53125 378.867188 206.355469 C 379.035156 207.183594 379.117188 208.019531 379.117188 208.867188 L 379.117188 343.855469 C 379.117188 344.699219 379.035156 345.535156 378.867188 346.363281 C 378.703125 347.191406 378.460938 347.996094 378.136719 348.777344 C 377.8125 349.554688 377.417969 350.296875 376.949219 351 C 376.480469 351.699219 375.945312 352.351562 375.351562 352.945312 C 374.753906 353.542969 374.105469 354.078125 373.402344 354.546875 C 372.699219 355.015625 371.960938 355.410156 371.179688 355.734375 C 370.398438 356.058594 369.59375 356.300781 368.765625 356.464844 C 367.941406 356.628906 367.105469 356.710938 366.257812 356.710938 L 103.433594 356.710938 C 102.589844 356.710938 101.753906 356.628906 100.925781 356.464844 C 100.097656 356.300781 99.292969 356.058594 98.515625 355.734375 C 97.734375 355.410156 96.992188 355.015625 96.292969 354.546875 C 95.589844 354.078125 94.941406 353.542969 94.34375 352.945312 C 93.746094 352.351562 93.214844 351.699219 92.742188 351 C 92.273438 350.296875 91.878906 349.554688 91.554688 348.777344 C 91.234375 347.996094 90.988281 347.191406 90.824219 346.363281 C 90.660156 345.535156 90.578125 344.699219 90.578125 343.855469 L 90.578125 208.867188 C 90.578125 208.019531 90.660156 207.183594 90.824219 206.355469 C 90.988281 205.53125 91.234375 204.726562 91.554688 203.945312 C 91.878906 203.164062 92.273438 202.425781 92.742188 201.722656 C 93.214844 201.019531 93.746094 200.371094 94.34375 199.773438 C 94.941406 199.179688 95.589844 198.644531 96.292969 198.175781 C 96.992188 197.707031 97.734375 197.3125 98.515625 196.988281 C 99.292969 196.664062 100.097656 196.421875 100.925781 196.257812 C 101.753906 196.089844 102.589844 196.007812 103.433594 196.007812 Z M 103.433594 196.007812 "/></g><g clip-rule="nonzero" clip-path="url(#3820a14801)"><path style=" stroke:none;fill-rule:nonzero;fill:#6ce5e8;fill-opacity:1;" d="M 103.433594 374.570312 L 641.941406 374.570312 C 642.785156 374.570312 643.621094 374.652344 644.449219 374.816406 C 645.277344 374.980469 646.082031 375.222656 646.859375 375.546875 C 647.640625 375.871094 648.382812 376.265625 649.085938 376.734375 C 649.785156 377.203125 650.433594 377.738281 651.03125 378.335938 C 651.628906 378.929688 652.160156 379.582031 652.632812 380.28125 C 653.101562 380.984375 653.496094 381.726562 653.820312 382.503906 C 654.140625 383.285156 654.386719 384.089844 654.550781 384.917969 C 654.714844 385.746094 654.796875 386.582031 654.796875 387.425781 L 654.796875 522.414062 C 654.796875 523.257812 654.714844 524.097656 654.550781 524.921875 C 654.386719 525.75 654.140625 526.554688 653.820312 527.335938 C 653.496094 528.117188 653.101562 528.855469 652.632812 529.558594 C 652.160156 530.261719 651.628906 530.910156 651.03125 531.507812 C 650.433594 532.101562 649.785156 532.636719 649.085938 533.105469 C 648.382812 533.574219 647.640625 533.96875 646.859375 534.292969 C 646.082031 534.617188 645.277344 534.859375 644.449219 535.023438 C 643.621094 535.1875 642.785156 535.273438 641.941406 535.273438 L 103.433594 535.273438 C 102.589844 535.273438 101.753906 535.1875 100.925781 535.023438 C 100.097656 534.859375 99.292969 534.617188 98.515625 534.292969 C 97.734375 533.96875 96.992188 533.574219 96.292969 533.105469 C 95.589844 532.636719 94.941406 532.101562 94.34375 531.507812 C 93.746094 530.910156 93.214844 530.261719 92.742188 529.558594 C 92.273438 528.855469 91.878906 528.117188 91.554688 527.335938 C 91.234375 526.554688 90.988281 525.75 90.824219 524.921875 C 90.660156 524.097656 90.578125 523.257812 90.578125 522.414062 L 90.578125 387.425781 C 90.578125 386.582031 90.660156 385.746094 90.824219 384.917969 C 90.988281 384.089844 91.234375 383.285156 91.554688 382.503906 C 91.878906 381.726562 92.273438 380.984375 92.742188 380.28125 C 93.214844 379.582031 93.746094 378.929688 94.34375 378.332031 C 94.941406 377.738281 95.589844 377.203125 96.292969 376.734375 C 96.992188 376.265625 97.734375 375.871094 98.515625 375.546875 C 99.292969 375.222656 100.097656 374.980469 100.925781 374.816406 C 101.753906 374.652344 102.589844 374.570312 103.433594 374.570312 Z M 103.433594 374.570312 "/></g></g></svg>